<svg version="1.1" xmlns="http://www.w3.org/2000/svg" xmlns:xlink="http://www.w3.org/1999/xlink" width="14.69262" height="17.46786" viewBox="0,0,14.69262,17.46786"><defs><linearGradient x1="352.78875" y1="77.14318" x2="366.01848" y2="70.7112" gradientUnits="userSpaceOnUse" id="color-1"><stop offset="0" stop-color="#ee2a7b"/><stop offset="1" stop-color="#811150"/></linearGradient></defs><g transform="translate(-231.53949,-170.6618)"><g data-paper-data="{&quot;isPaintingLayer&quot;:true}" fill="url(#color-1)" fill-rule="nonzero" stroke="#ffffff" stroke-width="1.15823" stroke-linecap="butt" stroke-linejoin="miter" stroke-miterlimit="10" stroke-dasharray="" stroke-dashoffset="0" font-family="none" font-weight="none" font-size="none" text-anchor="none" style="mix-blend-mode: normal"><path d="M239.5361,175.6377c0,0 3.26748,6.71354 4.75017,9.76323c0.38839,0.79886 0.05552,1.7613 -0.7432,2.14962c-0.79886,0.38839 -1.76111,0.05561 -2.1495,-0.74326c-1.24307,-2.55683 -4.7465,-9.75531 -4.7465,-9.75531c0,0 -0.25417,0.7212 -1.39982,4.03523c-0.29028,0.83954 -1.20598,1.28473 -2.04539,0.99442c-0.83955,-0.2906 -1.28483,-1.20611 -0.99449,-2.04554c0.92882,-2.68713 2.66642,-7.71203 2.66642,-7.71203c0.29034,-0.83942 1.20616,-1.28467 2.04539,-0.99442c0,0 4.33631,1.49912 7.65039,2.64489c0.83996,0.2904 1.28515,1.2061 0.99449,2.04554c-0.29015,0.83951 -1.20611,1.28483 -2.04513,0.99429c-2.68783,-0.92884 -3.98283,-1.37666 -3.98283,-1.37666z" data-paper-data="{&quot;origRot&quot;:0,&quot;origPos&quot;:null}" id="ID0.6278323931619525"/></g></g></svg>