<svg version="1.1" xmlns="http://www.w3.org/2000/svg" xmlns:xlink="http://www.w3.org/1999/xlink" width="153" height="52.287"><defs><linearGradient x1="181.01813" y1="176.9307" x2="334.01749" y2="176.9307" gradientUnits="userSpaceOnUse" id="color-1"><stop offset="0" stop-color="#27aae1"/><stop offset="1" stop-color="#115489"/></linearGradient><linearGradient x1="186.75805" y1="176.9305" x2="328.2754" y2="176.9305" gradientUnits="userSpaceOnUse" id="color-2"><stop offset="0" stop-color="#00baff"/><stop offset="1" stop-color="#00ff12"/></linearGradient></defs><g transform="translate(-181.018,-150.787)"><g data-paper-data="{&quot;isPaintingLayer&quot;:true}" fill="none" fill-rule="nonzero" stroke="none" stroke-width="1" stroke-linecap="butt" stroke-linejoin="miter" stroke-miterlimit="10" stroke-dasharray="" stroke-dashoffset="0" font-family="none" font-weight="none" font-size="none" text-anchor="none" style="mix-blend-mode: normal"><path d="M334.018,176.93c0,14.416 -14.95447,26.144 -33.3336,26.144h-86.33408c-18.37912,0 -33.33232,-11.727 -33.33232,-26.144c0,-14.415 14.95192,-26.143 33.33232,-26.143h86.33408c18.37912,0 33.3336,11.728 33.3336,26.143z" fill="url(#color-1)"/><path d="M328.2754,176.93c0,11.952 -12.3522,21.641 -27.591,21.641h-86.33408c-15.2388,0 -27.59228,-9.689 -27.59228,-21.641v0c0,-11.951 12.35348,-21.64 27.59228,-21.64h86.33408c15.2388,0 27.591,9.689 27.591,21.64z" data-paper-data="{&quot;origPos&quot;:null}" fill="url(#color-2)"/><text transform="translate(198.08864,182.14165) scale(0.41292,0.41292)" font-size="40" xml:space="preserve" data-paper-data="{&quot;origPos&quot;:null}" fill="#000000" fill-rule="nonzero" stroke="none" stroke-width="1" stroke-linecap="butt" stroke-linejoin="miter" stroke-miterlimit="10" stroke-dasharray="" stroke-dashoffset="0" font-family="Pixel" font-weight="normal" text-anchor="start" style="mix-blend-mode: normal"><tspan x="0" dy="0"> Skip Tutorial </tspan></text></g></g></svg>