<svg version="1.1" xmlns="http://www.w3.org/2000/svg" xmlns:xlink="http://www.w3.org/1999/xlink" width="221" height="221" viewBox="0,0,221,221"><g transform="translate(-129,-70.5)"><g data-paper-data="{&quot;isPaintingLayer&quot;:true}" fill="none" fill-rule="nonzero" stroke="none" stroke-width="none" stroke-linecap="none" stroke-linejoin="miter" stroke-miterlimit="10" stroke-dasharray="" stroke-dashoffset="0" font-family="none" font-weight="none" font-size="none" text-anchor="none" style="mix-blend-mode: normal"><path d="M130,71.5h108.875" data-paper-data="{&quot;origPos&quot;:null}" fill="none" stroke="#000000" stroke-width="2" stroke-linecap="square"/><path d="M239.5,71.5h109.5" fill="none" stroke="#000000" stroke-width="2" stroke-linecap="square"/><path d="M157.375,98.875h54.75" fill="none" stroke="#000000" stroke-width="2" stroke-linecap="square"/><path d="M266.875,98.875h54.75" fill="none" stroke="#000000" stroke-width="2" stroke-linecap="square"/><path d="M130,126.25h82.125" fill="none" stroke="#000000" stroke-width="2" stroke-linecap="square"/><path d="M321.625,126.25h27.375" fill="none" stroke="#000000" stroke-width="2" stroke-linecap="square"/><path d="M212.125,153.625h27.375" fill="none" stroke="#000000" stroke-width="2" stroke-linecap="square"/><path d="M157.375,181h82.125" fill="none" stroke="#000000" stroke-width="2" stroke-linecap="square"/><path d="M239.5,208.375h82.125" fill="none" stroke="#000000" stroke-width="2" stroke-linecap="square"/><path d="M157.375,235.75h27.375" fill="none" stroke="#000000" stroke-width="2" stroke-linecap="square"/><path d="M212.125,235.75h82.125" fill="none" stroke="#000000" stroke-width="2" stroke-linecap="square"/><path d="M157.375,263.125h54.75" fill="none" stroke="#000000" stroke-width="2" stroke-linecap="square"/><path d="M294.25,263.125h27.375" fill="none" stroke="#000000" stroke-width="2" stroke-linecap="square"/><path d="M130,290.5h135.83333" data-paper-data="{&quot;origPos&quot;:null}" fill="none" stroke="#000000" stroke-width="2" stroke-linecap="square"/><path d="M266.875,290.5h82.125" fill="none" stroke="#000000" stroke-width="2" stroke-linecap="square"/><path d="M130,71.5v219" fill="none" stroke="#000000" stroke-width="2" stroke-linecap="square"/><path d="M157.375,153.625v54.75" fill="none" stroke="#000000" stroke-width="2" stroke-linecap="square"/><path d="M157.375,235.75v27.375" fill="none" stroke="#000000" stroke-width="2" stroke-linecap="square"/><path d="M184.75,126.25v27.375" fill="none" stroke="#000000" stroke-width="2" stroke-linecap="square"/><path d="M184.75,208.375v27.375" fill="none" stroke="#000000" stroke-width="2" stroke-linecap="square"/><path d="M212.125,98.875v27.375" fill="none" stroke="#000000" stroke-width="2" stroke-linecap="square"/><path d="M212.125,153.625v54.75" fill="none" stroke="#000000" stroke-width="2" stroke-linecap="square"/><path d="M212.125,235.75v27.375" fill="none" stroke="#000000" stroke-width="2" stroke-linecap="square"/><path d="M239.5,153.625v-27.375" fill="none" stroke="#000000" stroke-width="2" stroke-linecap="square"/><path d="M239.5,181v54.75" fill="none" stroke="#000000" stroke-width="2" stroke-linecap="square"/><path d="M266.875,98.875v82.125" fill="none" stroke="#000000" stroke-width="2" stroke-linecap="square"/><path d="M266.875,290.5v-54.75" fill="none" stroke="#000000" stroke-width="2" stroke-linecap="square"/><path d="M294.25,181v-109.5" fill="none" stroke="#000000" stroke-width="2" stroke-linecap="square"/><path d="M321.625,153.625v109.5" fill="none" stroke="#000000" stroke-width="2" stroke-linecap="square"/><path d="M349,71.5v219" fill="none" stroke="#000000" stroke-width="2" stroke-linecap="square"/><path d="M213.25,204v-22h25v22z" data-paper-data="{&quot;origPos&quot;:null}" fill="#4a943b" stroke="none" stroke-width="0" stroke-linecap="butt"/></g></g></svg>