<svg version="1.1" xmlns="http://www.w3.org/2000/svg" xmlns:xlink="http://www.w3.org/1999/xlink" width="34.29781" height="57.8831" viewBox="0,0,34.29781,57.8831"><g transform="translate(-225.05937,-149.90277)"><g data-paper-data="{&quot;isPaintingLayer&quot;:true}" fill="none" fill-rule="nonzero" stroke="#002fff" stroke-width="none" stroke-linecap="butt" stroke-linejoin="miter" stroke-miterlimit="10" stroke-dasharray="" stroke-dashoffset="0" font-family="none" font-weight="none" font-size="none" text-anchor="none" style="mix-blend-mode: normal"><path d="M246.10447,151.16619c0,0 0.26326,24.38807 0.43177,39.99767c0.06459,5.98368 7.66262,-0.41607 7.66262,-0.41607c0,0 -9.73268,15.77265 -11.16356,15.78809c-1.69104,0.01825 -12.49813,-15.19931 -12.49813,-15.19931c0,0 8.06413,5.89732 7.99953,-0.08636c-0.1685,-15.60959 -0.43177,-39.99767 -0.43177,-39.99767z" data-paper-data="{&quot;origPos&quot;:null,&quot;origRot&quot;:0}" fill="#0091ff" stroke-width="2.5"/><path d="M241.96735,186.68988c-4.14209,-0.02031 -7.48271,-3.54384 -7.4615,-7.87002c0.02122,-4.32618 3.39623,-7.81677 7.53832,-7.79646c4.14209,0.02031 7.48271,3.54384 7.4615,7.87002c-0.02122,4.32618 -3.39623,7.81677 -7.53832,7.79646z" data-paper-data="{&quot;origRot&quot;:0}" fill="#ffffff" stroke-width="4"/></g></g></svg>