<svg version="1.1" xmlns="http://www.w3.org/2000/svg" xmlns:xlink="http://www.w3.org/1999/xlink" width="199.001" height="54.672"><defs><linearGradient x1="135.17097" y1="179.1562" x2="334.16978" y2="179.1562" gradientUnits="userSpaceOnUse" id="color-1"><stop offset="0.012" stop-color="#a7a9ac"/><stop offset="1" stop-color="#414042"/></linearGradient><linearGradient x1="141.583" y1="178.77973" x2="324.75696" y2="178.77973" gradientUnits="userSpaceOnUse" id="color-2"><stop offset="0" stop-color="#d1d2d3"/><stop offset="1" stop-color="#a4a5a8"/></linearGradient></defs><g transform="translate(-135.169,-151.82)"><g data-paper-data="{&quot;isPaintingLayer&quot;:true}" fill="none" fill-rule="nonzero" stroke="none" stroke-width="1" stroke-linecap="butt" stroke-linejoin="miter" stroke-miterlimit="10" stroke-dasharray="" stroke-dashoffset="0" font-family="none" font-weight="none" font-size="none" text-anchor="none" style="mix-blend-mode: normal"><path d="M334.17,197.887c0,4.752 -8.42793,8.605 -18.81742,8.605h-161.36836c-10.39167,0 -18.81523,-3.854 -18.81523,-8.605v-37.463c0,-4.752 8.42355,-8.604 18.81523,-8.604h161.36617c10.39605,0 18.81742,3.852 18.81742,8.604v37.463z" data-paper-data="{&quot;origPos&quot;:null}" fill="url(#color-1)"/><path d="M324.755,164.25753v29.04393c0,2.21888 -5.06393,4.02376 -11.29646,4.02376h-160.58125c-6.226,0 -11.29429,-1.80488 -11.29429,-4.02376v-29.0447c0,-2.21888 5.06828,-4.02376 11.29429,-4.02376h160.58125c6.23253,0 11.29646,1.80565 11.29646,4.02453z" data-paper-data="{&quot;origPos&quot;:null}" fill="url(#color-2)"/><text transform="translate(151,189.14412) scale(0.55902,0.73529)" font-size="40" xml:space="preserve" data-paper-data="{&quot;origPos&quot;:null}" fill="#000000" fill-rule="nonzero" stroke="none" stroke-width="1" stroke-linecap="butt" stroke-linejoin="miter" stroke-miterlimit="10" stroke-dasharray="" stroke-dashoffset="0" font-family="Pixel" font-weight="normal" text-anchor="start" style="mix-blend-mode: normal"><tspan x="0" dy="0">Skip turtorial</tspan></text></g></g></svg>