<svg version="1.1" xmlns="http://www.w3.org/2000/svg" xmlns:xlink="http://www.w3.org/1999/xlink" width="426.76717" height="51.12485" viewBox="0,0,426.76717,51.12485"><g transform="translate(-28.78093,-155.47515)"><g data-paper-data="{&quot;isPaintingLayer&quot;:true}" fill="#ffffff" fill-rule="nonzero" stroke="none" stroke-width="none" stroke-linecap="butt" stroke-linejoin="miter" stroke-miterlimit="10" stroke-dasharray="" stroke-dashoffset="0" font-family="none" font-weight="none" font-size="none" text-anchor="none" style="mix-blend-mode: normal"><path d="M28.78093,173.50903c1.06209,0.37125 2.11942,0.76162 3.16664,1.19016l-0.02202,5.99847c-1.0414,0.31882 -2.09055,0.70797 -3.11426,1.08378z" data-paper-data="{&quot;origPos&quot;:null}" stroke-width="1"/><path d="M31.79231,206h-2.85176l-0.03955,-7.2171c0.99117,-0.19172 1.98469,-0.38084 2.93421,-0.60864z" data-paper-data="{&quot;origPos&quot;:null}" stroke-width="1"/><path d="M43.40301,181c0,-0.47276 0.04875,-1.13965 0.13669,-1.95206c0.46289,0.05938 0.91909,0.12529 1.42692,0.23021c-0.00602,0.01285 -0.0106,0.02695 -0.01363,0.04235c-0.11586,0.58965 0.92382,0.82935 1.5,1c0.09375,0.02777 0.18761,0.0552 0.28155,0.08232c2.34569,0.67699 4.74887,1.15287 7.15343,1.57744c0.03734,0.00659 0.07468,0.01317 0.11202,0.01974c1.15965,0.204 2.21957,0.2661 3.21044,0.21004c-0.10061,1.58679 -0.36721,3.75211 -0.72958,6.12328c-0.11722,0.07034 -0.23443,0.14067 -0.35011,0.21101c-3.89587,-3.39018 -8.00908,-6.00224 -12.72655,-7.40589c-0.00079,-0.04766 -0.00119,-0.09382 -0.00119,-0.13844z" data-paper-data="{&quot;origPos&quot;:null}" stroke-width="0.5"/><path d="M48.25099,205.5c-0.2204,-0.30914 -0.53661,-1.25293 -0.90339,-2.60558c1.35044,1.15246 2.5658,1.86564 4.72419,2.80521c-1.17189,1.05029 -2.84427,1.04022 -3.82081,-0.19963z" data-paper-data="{&quot;origPos&quot;:null}" stroke-width="0.5"/><path d="M53.09898,157.7c0.32604,0.88682 0.70545,2.26957 1.09988,3.93775c-1.80184,-1.02568 -2.46397,-1.37241 -4.7735,-1.83917c-0.72467,-0.14646 -1.44966,-0.29401 -2.17662,-0.42997c0.37659,-1.43985 0.70026,-2.44785 0.92077,-2.76861c1.3444,-1.9 3.99246,-1.3 4.92946,1.1z" data-paper-data="{&quot;origPos&quot;:null}" stroke-width="0.5"/><path d="M91.88285,200.5h2.40362c2.6888,0 3.8295,1.8 2.89249,4.5c-0.44813,1.3 -1.58883,1.5 -7.08865,1.3l-6.55903,-0.3v-2.5c0,-2.4 0.12222,-2.5 2.56658,-2.8l2.52584,-0.3v-19.9759c0.71361,1.07576 1.4954,2.28627 2.25252,3.32201c0.05429,0.30199 0.46871,1.07642 0.63694,1.41617c0.12014,0.24262 0.24358,0.48356 0.36968,0.72311z" data-paper-data="{&quot;origPos&quot;:null}" stroke-width="1"/><path d="M97.17896,157c0.41176,1.18651 0.42229,2.19922 0.07653,2.96175c-0.89119,-1.40282 -1.67685,-2.86824 -2.52937,-4.28976c1.62135,0.19824 2.20412,0.5954 2.45284,1.32801z" data-paper-data="{&quot;origPos&quot;:null}" stroke-width="1"/><path d="M113.88209,172l0.10032,-7.87986c0.90461,0.45729 1.95216,0.65406 2.99842,0.83942l0.07894,16.34045l0.04636,14.39562c-0.70643,-2.1193 -1.41287,-4.2386 -2.1193,-6.3579c-0.42457,-1.27372 -0.8402,-3.06372 -1.35832,-4.87188c0.14837,-1.90345 0.17006,-6.11059 0.25358,-12.46584z" data-paper-data="{&quot;origPos&quot;:null}" stroke-width="1"/><path d="M114,163.75c0.03133,0.00543 0.01978,0.01703 -0.01329,0.03238l0.00044,-0.0346c0.00428,0.00074 0.00857,0.00147 0.01285,0.00222z" data-paper-data="{&quot;origPos&quot;:null}" stroke-width="1"/><path d="M110.01185,168.7c0.8711,4.9224 1.53404,8.7385 2.04102,11.49138c-0.4885,-0.95039 -1.05635,-1.73946 -1.73236,-2.23838c-0.24144,-0.17819 0.30938,1.14851 0.16633,0.88472c-1.4362,-2.64829 -2.19042,-5.68345 -4.41577,-7.90879c0.08315,0.17469 0.36738,0.67742 0.24944,0.52407c-1.09082,-1.41835 -2.01592,-2.9388 -2.99338,-4.42782l-0.01708,-5.28376c0.90434,-0.04701 1.8345,-0.26154 2.68996,0.00858c1.04119,0.32877 1.80043,1.34399 2.8645,1.58874c0.06491,0.01493 0.12996,0.02888 0.19515,0.04192z" data-paper-data="{&quot;origPos&quot;:null}" stroke-width="1"/><path d="M126.51128,172.4l3.99246,0.3c3.91098,0.3 3.95172,0.3 3.95172,2.8c0,2.5 -0.04074,2.5 -3.95172,2.8l-3.95172,0.3l-0.07976,8.94045c-1.03927,0.98704 -2.07012,1.98111 -3.09121,2.9812l-0.04745,-9.82165l-0.04332,-13.40271c1.05937,0.11358 2.16737,0.00129 3.221,0.10241z" data-paper-data="{&quot;origPos&quot;:null}" stroke-width="1"/><path d="M130.05561,155.7l6.84421,0.3l0,3.48657c-0.02606,0.02047 -0.05321,0.04 -0.08151,0.05851c-0.43556,0.28484 -4.20748,-1.67242 -4.24683,-1.68803c-1.5014,-0.59564 -3.01001,-1.19374 -4.57148,-1.60704c-0.48335,-0.12794 -1.21165,-0.40848 -1.5,0c-0.03008,0.04261 -0.02911,0.08678 -0.00528,0.13109c-0.60555,-0.27709 -1.20026,-0.56156 -1.79594,-0.83857z" data-paper-data="{&quot;origPos&quot;:null}" stroke-width="1"/><path d="M151.76969,200.5h2.40362c2.6888,0 3.8295,1.8 2.89249,4.5c-0.44813,1.3 -1.58883,1.5 -7.08865,1.3l-6.55903,-0.3v-2.5c0,-2.4 0.12222,-2.5 2.56658,-2.8l2.52584,-0.3l0,-5.94867c1.07402,-1.04604 2.1573,-2.08305 3.25915,-3.10234z" data-paper-data="{&quot;origPos&quot;:null}" stroke-width="1"/><path d="" data-paper-data="{&quot;origPos&quot;:null}" stroke-width="1"/><path d="M177.02809,206.6l-4.15542,-0.6l-2.11845,-12c-0.13097,-0.73164 -0.26494,-1.47681 -0.40036,-2.22718c1.16756,0.45671 2.36422,0.9394 3.70695,1.41863c0.95877,0.34219 1.94033,0.61616 2.92692,0.87461z" data-paper-data="{&quot;origPos&quot;:null}" stroke-width="1"/><path d="M173.84865,165.73839c0.95111,-1.15241 1.96395,-2.20841 3.00721,-3.2235l0.0503,10.4127c-1.0428,-0.39133 -2.08323,-0.77271 -3.13466,-1.13004z" data-paper-data="{&quot;origPos&quot;:null}" stroke-width="1"/><path d="M170.18805,170.33743c0.02311,0.13097 0.04607,0.26108 0.06887,0.39032c-0.11107,-0.02928 -0.22241,-0.05814 -0.33403,-0.08658c0.08835,-0.10064 0.17673,-0.20185 0.26517,-0.30373z" data-paper-data="{&quot;origPos&quot;:null}" stroke-width="1"/><path d="M166.23215,206h-2.85176l-0.07918,-16.39111c0.45693,0.14078 0.73763,0.19692 0.73763,0.19692c0.84661,0.16932 1.63162,0.36615 2.38036,0.58412z" data-paper-data="{&quot;origPos&quot;:null}" stroke-width="1"/><path d="M188.4351,161.5h-2.44436c-2.56658,0 -3.21841,-1.1 -2.6888,-4.5c0.13299,-0.9793 0.91715,-1.35921 4.12385,-1.46583c0.16359,0.11243 0.3105,0.23156 0.43481,0.35935c0.18262,0.18774 -0.63134,0.3213 -0.54303,0.56787c0.45309,1.26502 1.28822,2.36029 2,3.5c0.81901,1.31141 1.58334,2.6707 2.37668,4.00866l0,14.73746c-1.17315,-0.67603 -2.22742,-1.18289 -3.25915,-1.61141z" data-paper-data="{&quot;origPos&quot;:null}" stroke-width="1"/><path d="M196.99036,205c-0.44813,1.3 -1.58883,1.5 -7.08865,1.3l-6.55903,-0.3v-2.5c0,-2.4 0.12222,-2.5 2.56658,-2.8l2.52584,-0.3v-0.86035c0.67304,0.25913 1.21376,0.5109 1.5179,0.78085c1.72591,1.53191 4.73141,2.87808 7.35969,3.04009c-0.01094,0.49668 -0.11651,1.04633 -0.32233,1.6394z" data-paper-data="{&quot;origPos&quot;:null}" stroke-width="1"/><path d="M211.45283,206h-2.85176l-0.038,-6.93283c1.05156,-0.58727 2.05449,-1.21048 2.93795,-1.85999z" data-paper-data="{&quot;origPos&quot;:null}" stroke-width="1"/><path d="M216.99338,155.5l-0.12066,5.62706c-0.41093,-0.48063 -0.84992,-0.96243 -1.32572,-1.44756c-0.84155,-0.85805 -1.87658,-1.57295 -3,-2c-0.25113,-0.09546 -0.05064,0.97661 -0.2265,0.7735c-0.81272,-0.93867 -1.55721,-1.92899 -2.25729,-2.953z" data-paper-data="{&quot;origPos&quot;:null}" stroke-width="1"/><path d="M231.53733,194.2c-0.12222,11.5 -0.16296,11.8 -1.05922,12.1c-1.83327,0.7 -2.11845,-1.2 -2.11845,-13.3v-9.05477c1.10387,-0.40577 2.20479,-0.83568 3.29603,-1.26917z" data-paper-data="{&quot;origPos&quot;:null}" stroke-width="1"/><path d="M224.89681,155.7c0.90307,0.25577 1.18427,0.65692 1.34854,2.62883c-1.08905,0.7665 -2.14509,1.57243 -3.18027,2.40326c0.01458,-2.22408 0.13131,-4.25818 0.28364,-4.63209c0.16296,-0.4 0.85553,-0.6 1.5481,-0.4z" data-paper-data="{&quot;origPos&quot;:null}" stroke-width="1"/><path d="" data-paper-data="{&quot;origPos&quot;:null}" stroke-width="1"/><path d="M276.758,203.9c-0.12222,2.4 -1.67031,3.4 -2.56658,1.6c-0.28518,-0.6 -0.77405,-3.3 -1.05922,-6.1l-0.15733,-1.45567c1.22172,-0.22431 2.32006,-0.62289 3.16382,-1.27075c0.40194,3.95547 0.64873,6.7209 0.61931,7.22642z" data-paper-data="{&quot;origPos&quot;:null}" stroke-width="0.5"/><path d="M266.77686,200.2c-0.65183,4.8 -0.97774,5.9 -1.83327,6.1c-0.52961,0.2 -1.26292,-0.4 -1.5481,-1.3c-0.25575,-0.77263 -0.274,-2.31478 0.24343,-7.4528c0.99614,0.17286 2.17989,0.35609 3.43274,0.48192z" data-paper-data="{&quot;origPos&quot;:null}" stroke-width="0.5"/><path d="M266.52974,173.08035c2.25803,-0.6778 4.50491,-1.39515 6.7535,-2.10586c0.09899,0.83619 0.19958,1.69193 0.30117,2.5618c-0.2196,0.12903 -0.43814,0.25985 -0.65548,0.39264c-0.13437,0.0821 -0.34173,0.23313 -0.54122,0.3938c-0.9974,0.4377 -2.46751,1.11043 -3.87614,1.92924c-0.70039,-0.77869 -1.3844,-1.58979 -2.06775,-2.47817c0.02841,-0.22943 0.05705,-0.46057 0.08591,-0.69346zM270.20024,175.34371l-0.16423,-1.34372l-0.18884,1.523" data-paper-data="{&quot;origPos&quot;:null}" stroke-width="0.5"/><path d="M286.00583,206h-2.85176l-0.07204,-14.91178c0.52168,-0.32504 1.03489,-0.66637 1.54212,-1.01308c-0.02887,0.25559 1.15576,-0.29174 1.53812,-0.5883c0.01394,-0.01081 0.02788,-0.02163 0.04181,-0.03246z" data-paper-data="{&quot;origPos&quot;:null}" stroke-width="1"/><path d="M296.80177,206.6l-4.15542,-0.6l-1.18579,-6.71694c1.72522,1.24709 3.50648,2.42033 5.329,3.52616z" data-paper-data="{&quot;origPos&quot;:null}" stroke-width="1"/><path d="M311.87532,205.2c-0.65183,0.9 -2.36288,1.2 -4.88872,1.1c-1.00271,-0.07855 -1.74566,-0.13653 -2.29614,-0.22421c0.105,-0.02402 0.20842,-0.04962 0.30954,-0.07578c2.67242,-0.69143 5.21733,-1.78095 7.77156,-2.84655c-0.33252,1.00983 -0.6391,1.73096 -0.89624,2.04655z" data-paper-data="{&quot;origPos&quot;:null}" stroke-width="0.5"/><path d="" data-paper-data="{&quot;origPos&quot;:null}" stroke-width="0.5"/><path d="M355.83307,200.9c-1.50736,4.7 -2.77028,5.6 -8.10713,5.6h-4.88872v-12.09792c1.06288,-0.33177 2.16753,-0.67672 3.25915,-1.01769c2.87758,-0.89881 5.66463,-1.76994 7.35741,-2.2991c0.89419,-0.27952 1.48303,-0.46363 1.61857,-0.50599c0.54013,-0.16879 1.07842,-0.33695 1.61529,-0.50418c0.12142,4.18859 -0.16642,8.65312 -0.85457,10.82488z" data-paper-data="{&quot;origPos&quot;:null}" stroke-width="0.5"/><path d="M362.7995,155.5h6.68125c2.99168,0 4.74138,0.09146 5.77713,0.37537c-3.15059,1.4881 -6.10569,3.01419 -9.07027,4.9873c-0.61159,0.40705 -1.17036,0.88414 -1.71574,1.3792c-0.49376,-0.74585 -1.05868,-1.67175 -1.67238,-2.58589z" data-paper-data="{&quot;origPos&quot;:null}" stroke-width="1"/><path d="M366.05865,200.5h5.05168c0.31383,0 0.61005,0.00185 0.88967,0.00585c0,0.83138 0,1.66277 0,2.49415c0,1.15608 0,2.31216 0,3.46824c-0.72294,0.02229 -1.55683,0.03176 -2.51925,0.03176h-6.68125v-18.28256c1.08459,-0.31708 2.16981,-0.62534 3.25915,-0.92212z" data-paper-data="{&quot;origPos&quot;:null}" stroke-width="1"/><path d="M394.1688,173.7l-1.9749,6.042c-0.24342,-2.76633 -0.75023,-5.38619 -1.71052,-7.6224c0.11499,-0.30833 0.23793,-0.65836 0.36585,-1.03971c1.54674,-0.54327 3.09738,-1.0596 4.65411,-1.61027c-0.36883,1.2369 -0.81137,2.63799 -1.33454,4.23038z" data-paper-data="{&quot;origPos&quot;:null}" stroke-width="1"/><path d="" data-paper-data="{&quot;origPos&quot;:null}" stroke-width="1"/><path d="M407.16386,188.08281c-1.11148,0.48466 -2.21878,0.97978 -3.32215,1.48404c-0.3871,-2.2103 -0.70851,-4.2786 -0.90579,-5.91334c0.30652,0.46778 0.6359,0.9397 0.99301,1.41755c0.28219,0.37761 0.53205,0.94302 1,1c1.851,0.22539 3.7086,0.43291 5.56965,0.59562c-1.1159,0.4608 -2.22738,0.93327 -3.33471,1.41612z" data-paper-data="{&quot;origPos&quot;:null}" stroke-width="0.5"/><path d="M422.68634,155.5h4.35911l0.52289,2.92105c-1.66045,0.89463 -3.28603,1.84584 -4.86329,2.86467z" data-paper-data="{&quot;origPos&quot;:null}" stroke-width="1"/><path d="M436.4377,177.46084c-1.00312,0.38638 -2,0.78808 -2.98471,1.21866c-0.07789,0.03406 -0.16607,0.06669 -0.25976,0.09929c0.00203,-0.14307 0.00405,-0.28833 0.00606,-0.43578c0.78116,-0.67254 1.57167,-1.29274 2.38575,-1.81724c0.2762,-0.17795 0.55828,-0.35211 0.84562,-0.52267z" data-paper-data="{&quot;origPos&quot;:null}" stroke-width="1"/><path d="M436.53773,206.6l-4.15542,-0.6l-0.98182,-5.56154c0.33477,-0.08106 0.67612,-0.16007 1.02487,-0.23704c1.35351,-0.33838 2.73617,-0.58172 4.08879,-0.92297z" data-paper-data="{&quot;origPos&quot;:null}" stroke-width="1"/><path d="M425.74179,206h-2.85176l-0.01294,-2.67878c0.97564,-0.41039 1.93475,-0.79698 2.91069,-1.15972z" data-paper-data="{&quot;origPos&quot;:null}" stroke-width="1"/><path d="M455.5481,172.34499c-0.6648,0.29017 -1.3208,0.54715 -1.96231,0.75552c-0.46303,0.15039 -0.92951,0.28367 -1.39876,0.40378c-1.12592,0.28818 -2.26785,0.50051 -3.41662,0.6914c-1.22176,0.20302 -2.45125,0.38179 -3.67743,0.60175v-2.70003c1.64553,-0.60356 3.27951,-1.16205 4.82445,-1.69947c1.66184,-0.60431 3.31853,-1.23027 4.95596,-1.90126c0.24185,1.28475 0.47002,2.5847 0.67471,3.84831z" data-paper-data="{&quot;origPos&quot;:null}" stroke-width="1"/><path d="M451.61128,205.2c-0.65183,0.9 -2.36288,1.2 -4.88872,1.1c-3.8295,-0.3 -3.87024,-0.3 -3.87024,-2.8c0,-2 0.24444,-2.6 1.1407,-2.8l1.09996,-0.3l0,-5.26971c1.22576,-0.4029 2.48685,-0.66121 3.75821,-0.8677c0.67829,-0.11017 1.3595,-0.20559 2.03983,-0.30035c1.34095,-0.18677 2.67846,-0.37098 3.98339,-0.6605c-1.07237,5.57493 -2.42835,10.87373 -3.26312,11.89826z" data-paper-data="{&quot;origPos&quot;:null}" stroke-width="1"/></g></g></svg>