<svg version="1.1" xmlns="http://www.w3.org/2000/svg" xmlns:xlink="http://www.w3.org/1999/xlink" width="470.47219" height="22.77762"><g transform="translate(-5.05772,-168.60813)"><g data-paper-data="{&quot;isPaintingLayer&quot;:true}" fill="#ffffff" fill-rule="nonzero" stroke="none" stroke-width="1" stroke-linecap="butt" stroke-linejoin="miter" stroke-miterlimit="10" stroke-dasharray="" stroke-dashoffset="0" font-family="none" font-weight="none" font-size="none" text-anchor="none" style="mix-blend-mode: normal"><path d="M8.57774,169.03356v16.93625c-1.10475,1.54595 -2.30855,3.01294 -3.52002,4.47926v-9.85808c0,-5.92538 0.176,-10.97076 0.41067,-11.14676c0.176,-0.23467 0.99733,-0.41067 1.76001,-0.41067z" data-paper-data="{&quot;origPos&quot;:null}"/><path d="M14.09245,188.39373c5.63205,0 6.51206,0.29334 5.86672,1.99469c-0.29333,0.76268 -1.52535,0.93867 -7.62673,0.93867h-1.55158c0.76081,-0.95724 1.50228,-1.92892 2.20346,-2.93336z" data-paper-data="{&quot;origPos&quot;:null}"/><path d="M38.90867,179.41765c1.64268,5.74938 2.81602,10.79476 2.64002,11.20543c-0.11733,0.41067 -0.93868,0.70401 -1.81868,0.58667c-1.23201,-0.11734 -1.64268,-0.58668 -2.05335,-2.40535c-0.52801,-2.11201 -0.58668,-2.17068 -3.34403,-2.17068c-2.81602,0 -2.81602,0 -3.46136,2.34668c-0.52801,1.93601 -0.88001,2.34669 -2.11202,2.34669c-0.76268,0 -1.58401,-0.41067 -1.76001,-0.82134c-0.176,-0.46934 0.76267,-4.6347 2.11201,-9.26941c0.92842,-3.05606 1.83134,-6.11212 2.42282,-8.14219c2.08375,0.3924 4.03178,0.99901 6.0671,1.67496c0.36131,1.25493 0.78851,2.78442 1.3075,4.64854zM33.56996,179.47632c-0.176,0.88 -0.46934,2.17069 -0.70401,2.87469c-0.352,1.23201 -0.176,1.34934 1.52535,1.34934c1.58402,0 1.81869,-0.17601 1.46668,-1.05601c-0.176,-0.52801 -0.52801,-1.70135 -0.70401,-2.64002c-0.46934,-2.22935 -1.11467,-2.46402 -1.58401,-0.528z" data-paper-data="{&quot;origPos&quot;:null}"/><path d="M51.99143,169.03356v9.03474c0,10.32542 0.05866,10.50142 4.51737,10.20808l2.81602,-0.176l0.12959,-4.14696c1.33477,0.33091 2.621,0.75999 3.94683,1.3362c-0.07861,3.77202 -0.36128,4.1181 -1.37773,4.92278c-1.05601,0.88 -2.28802,1.11468 -6.10138,1.11468c-4.04803,0 -4.92804,-0.17601 -6.10138,-1.29068c-1.29068,-1.23201 -1.34934,-1.58401 -1.34934,-10.73609c0,-5.22138 0.176,-9.68008 0.41067,-9.85608c0.176,-0.23467 0.99734,-0.41067 1.76002,-0.41067z" data-paper-data="{&quot;origPos&quot;:null}"/><path d="M59.61815,178.71363l0.29333,-9.38674h3.52004v9.85608c0,0.25604 0,0.50547 -0.00003,0.74849c-1.25529,-0.44336 -2.51377,-0.79186 -3.81794,-1.07065z" data-paper-data="{&quot;origPos&quot;:null}"/><path d="M81.0317,183.34835l0.29333,-7.04006l0.29333,-6.98139h3.52003l0.176,10.97076l0.11733,11.02943h-5.16272l-2.87469,-6.80539l-0.55414,-1.35073c2.09652,0.22145 2.59581,-1.94214 2.59581,-1.94214c0.08694,-0.37674 0.17785,-0.7446 0.2735,-1.10671z" data-paper-data="{&quot;origPos&quot;:null}"/><path d="M70.17827,169.03356h4.98671l1.44097,3.51596c-0.32453,0.47011 -0.43557,0.92816 -0.43557,0.92816l0.09626,1.09155c-0.51543,1.34012 -0.9479,2.64508 -1.31591,3.99622l-0.37243,-0.90781l-0.05882,2.76448c-0.00961,0.11463 -0.0152,0.25456 -0.00872,0.41007l-0.04979,2.34016c-0.23467,7.56806 -0.41067,8.27207 -2.40535,8.0374l-1.58401,-0.176l-0.17601,-11.02943z" data-paper-data="{&quot;origPos&quot;:null}"/><path d="M102.4452,169.20957c3.98937,0.11734 4.40004,0.23467 4.40004,1.29068c0,1.05601 -0.46934,1.17335 -3.69603,1.34935l-3.63736,0.176l-1.76001,3.46136c-0.66631,1.29342 -1.22788,2.66541 -1.52725,3.62612c-1.43782,0.50832 -2.87506,1.01814 -4.31154,1.53025c-0.01835,-0.10915 -0.02792,-0.20531 -0.02792,-0.28698c0,-1.70135 4.34136,-10.50142 5.39737,-10.91209c0.41067,-0.176 2.75736,-0.29334 5.16271,-0.23467z" data-paper-data="{&quot;origPos&quot;:null}"/><path d="M97.75184,184.87371l1.76001,3.46137l3.63736,0.176c3.2267,0.176 3.69603,0.29334 3.69603,1.34935c0,1.05601 -0.41067,1.17334 -4.40004,1.29067c-2.81602,0.11734 -4.75204,-0.11733 -5.33871,-0.58667c-0.71497,-0.55954 -2.13819,-2.9309 -3.31838,-5.28132c1.18144,-0.42099 2.36339,-0.84047 3.54574,-1.25884c0.1333,0.28351 0.27317,0.56833 0.41799,0.84944z" data-paper-data="{&quot;origPos&quot;:null}"/><path d="M115.64531,169.03356c1.46668,0 1.46668,0.05867 1.46668,4.98671v4.9867h7.56806l0.17601,-4.86937c0.01962,-0.51013 0.03778,-0.9663 0.05644,-1.37446c0.05598,0.00354 0.0875,0.00354 0.0875,0.00354c1.22357,0 2.44148,0.00219 3.65825,0.02067c0.27095,5.63327 0.15734,17.06584 -0.34083,17.83573c-0.23467,0.46934 -1.11468,0.70401 -1.87735,0.58667c-1.34934,-0.176 -1.40801,-0.41067 -1.58401,-4.75204l-0.17601,-4.51737h-7.56806v9.44541l-1.58401,-0.176l-1.64268,-0.176l-0.176,-10.26675c-0.05867,-5.63205 0,-10.56009 0.11733,-10.97075c0.176,-0.41067 0.99734,-0.76268 1.81868,-0.76268z" data-paper-data="{&quot;origPos&quot;:null}"/><path d="M160.52566,169.03356v9.03474c0,6.04271 0.23467,9.21074 0.64534,9.50408c1.17335,0.704 1.70135,-1.17334 1.70135,-6.39472v-5.16271l1.64269,0.17601c1.58401,0.176 1.58401,0.176 1.87735,5.69071c0.176,3.63736 0.52801,5.63205 0.99734,5.74938c0.26227,0.11656 0.45216,-0.37479 0.59124,-1.76164c0.61451,0.29727 1.21903,0.29727 1.21903,0.29727c0.65652,0 1.7966,0 2.91897,0c-0.11676,1.897 -0.40986,2.54043 -1.03321,3.45906c-1.23201,1.70135 -1.34935,1.70135 -6.74673,1.70135c-5.51471,0 -5.51471,0 -6.45338,-1.76002c-0.64534,-1.29068 -0.88001,-3.81336 -0.88001,-10.73609c0,-4.92804 0.176,-9.21075 0.41067,-9.38675c0.176,-0.23467 0.99734,-0.41067 1.76002,-0.41067z" data-paper-data="{&quot;origPos&quot;:null}"/><path d="M168.26973,178.59631l0.176,-9.26941h3.52003l0.176,9.26941c0.0129,0.94789 0.02367,1.80081 0.03114,2.57037c-0.99097,0 -1.98193,0 -2.9729,0c0,0 -0.46232,0 -0.98933,0.19881c0.02252,-0.82645 0.04202,-1.74712 0.05906,-2.76918z" data-paper-data="{&quot;origPos&quot;:null}"/><path d="M188.09923,188.33506l2.81602,0.176c2.28802,0.176 2.75736,0.35201 2.75736,1.34935c0,1.11467 -0.41067,1.17334 -7.33339,1.17334c-6.92272,0 -7.33339,-0.05867 -7.33339,-1.17334c0,-0.99734 0.46933,-1.17335 2.81602,-1.34935l2.75736,-0.176v-6.56982c1.17594,0.01094 2.34684,0.04645 3.52002,0.14608z" data-paper-data="{&quot;origPos&quot;:null}"/><path d="M186.45655,169.1509c6.74672,0.176 7.21606,0.23467 7.21606,1.34934c0,0.99734 -0.46934,1.17335 -2.75736,1.34935l-2.81602,0.176v4.87345c-1.17313,-0.08468 -2.34399,-0.11734 -3.52002,-0.12904v-4.80306h-2.58136c-2.75735,0 -3.63736,-0.64534 -3.05069,-2.11202c0.29334,-0.704 1.58402,-0.82134 7.5094,-0.704z" data-paper-data="{&quot;origPos&quot;:null}"/><path d="M208.33942,176.19096l2.93336,7.15739l0.29334,-7.04006l0.29333,-6.98139h3.52003l0.176,10.97076l0.11733,11.02943h-5.16272l-2.87469,-6.80539l-2.81602,-6.86406l-0.11734,5.51471c-0.23467,7.56806 -0.41066,8.27207 -2.40535,8.0374l-1.58401,-0.176l-0.176,-11.02943l-0.0453,-4.23525c2.3839,0.0229 4.73565,0.20708 7.11687,0.39025l0.46993,0.00439c0,0 0.09443,0.00461 0.24746,-0.00634z" data-paper-data="{&quot;origPos&quot;:null}"/><path d="M226.32048,168.60813c2.20568,0 4.46941,0.17601 4.99182,0.352c1.39306,0.58667 5.1079,8.3894 5.1079,10.79476c0,2.28802 -2.90222,8.50674 -4.70159,10.14942c-0.9287,0.88 -1.97351,0.99734 -5.39813,0.88001c-3.83092,-0.176 -4.29528,-0.29333 -4.29528,-1.34934c0,-0.76268 0.46436,-1.23201 1.33501,-1.34935c0.81262,-0.11734 1.27697,-0.58667 1.27697,-1.34934c0,-0.82134 0.40631,-1.11467 1.74132,-1.11467c1.33501,0 1.74133,0.23467 1.74133,1.17334c0,0.64534 0.23218,1.17334 0.46436,1.17334c0.5224,0 4.17919,-7.33339 4.17919,-8.3894c0,-1.23201 -3.42461,-8.0374 -4.0631,-8.0374c-0.34826,0 -0.58045,2.28802 -0.58045,6.16005v6.16005h-1.74133h-1.74132v-6.16005c0,-5.69072 -0.05805,-6.16005 -1.10285,-6.16005c-1.33501,0 -2.03155,-0.88 -1.56719,-2.05335c0.23218,-0.64534 1.33501,-0.88001 4.35333,-0.88001z" data-paper-data="{&quot;origPos&quot;:null}"/><path d="M251.84735,168.92546c2.20568,0.176 2.43786,0.352 4.17919,3.69603c3.48266,6.51206 3.54071,7.1574 0.98675,12.61344c-1.21893,2.64002 -2.67004,5.04537 -3.19243,5.33871c-1.62524,0.88 -4.35333,0.58667 -5.28203,-0.52801c-1.0448,-1.17334 -4.52746,-8.0374 -4.52746,-8.9174c0,-0.29334 0.87067,-0.58668 1.91546,-0.58668c1.74133,0 2.03155,0.29333 3.65679,3.63736l1.79937,3.69603l1.85742,-3.63736c0.98675,-1.99469 1.79937,-4.04803 1.79937,-4.51737c0,-1.23201 -3.0183,-7.39206 -3.59874,-7.39206c-0.29023,0 -1.16088,1.46668 -2.03155,3.2267c-1.45111,2.93336 -1.74132,3.22669 -3.48266,3.22669c-1.0448,0 -1.91546,-0.11733 -1.91546,-0.29333c0,-0.76268 4.29528,-8.85874 4.87572,-9.26941c0.34826,-0.23467 1.68329,-0.352 2.96026,-0.29334z" data-paper-data="{&quot;origPos&quot;:null}"/><path d="M267.43539,168.60813h1.33502v9.03474c0,6.04271 0.23218,9.21074 0.63849,9.50408c1.16088,0.704 1.68329,-1.17334 1.68329,-6.39472v-5.16271l1.62524,0.17601c1.5672,0.176 1.56719,0.176 1.85742,5.69071c0.17413,3.63737 0.5224,5.63205 0.98675,5.74938c0.5224,0.23467 0.75457,-1.99469 0.87066,-9.03474l0.17413,-9.26941h1.74133h1.74133l0.17413,6.62939l0.17414,6.68805l-2.49591,4.34137l-2.49591,4.34137h-4.17919c-4.0631,0 -4.23723,-0.05867 -5.1079,-1.76002c-0.63849,-1.29068 -0.87067,-3.81336 -0.87067,-10.73609c0,-4.92804 0.17413,-9.21075 0.40631,-9.38674c0.17413,-0.23467 0.98675,-0.41067 1.74133,-0.41067z" data-paper-data="{&quot;origPos&quot;:null}"/><path d="M294.41968,169.00813c5.22398,0 5.45617,0.05867 6.6751,1.58401c1.5672,2.05335 1.27698,3.34403 -0.75458,3.5787c-1.27698,0.176 -1.74132,-0.05867 -1.9735,-0.99734c-0.29023,-1.05601 -0.75458,-1.23201 -3.71484,-1.23201c-1.91546,0 -3.42461,0.176 -3.42461,0.41067c0,0.176 1.04479,1.76001 2.37981,3.46136c2.08959,2.75735 2.32177,3.34402 2.14763,5.86671l-0.17413,2.75736l-4.17919,-5.39738c-4.35333,-5.57338 -4.99181,-7.39207 -3.30852,-9.09341c0.69653,-0.704 2.14763,-0.93867 6.32682,-0.93867z" data-paper-data="{&quot;origPos&quot;:null}"/><path d="M299.87587,183.90958c0.63849,0.58667 1.4511,1.81869 1.79937,2.75736c0.58044,1.40801 0.58045,1.93601 -0.23218,3.16803c-0.9287,1.40801 -1.21893,1.46668 -6.44291,1.46668c-6.09465,0 -7.83599,-0.82134 -7.83599,-3.81336c0,-1.23201 0.29023,-1.46668 1.68329,-1.46668c1.16088,0 1.74133,0.352 1.97351,1.17334c0.23218,0.99734 0.81262,1.17334 3.77288,1.17334c3.77287,0 4.17919,-0.352 4.17919,-3.63736c0,-1.76002 0.05805,-1.76002 1.10285,-0.82134z" data-paper-data="{&quot;origPos&quot;:null}"/><path d="M331.05891,168.80813h7.54576h7.60381v1.70135c0,2.64002 -0.58044,3.5787 -2.14764,3.5787c-0.9287,0 -1.56719,-0.41067 -1.74132,-1.17335c-0.5224,-2.11202 -1.91546,-1.34934 -1.91546,0.99735v2.17068l-2.20568,-2.17068c-2.49591,-2.46402 -3.59874,-2.75736 -3.59874,-0.93868c0,0.93867 -0.29023,1.17334 -1.5672,0.99734c-1.45111,-0.176 -1.62524,-0.41067 -1.79937,-2.69869z" data-paper-data="{&quot;origPos&quot;:null}"/><path d="M360.42933,168.92546c2.26373,0.176 2.37981,0.352 4.46941,4.2827c1.21893,2.22935 2.20568,4.2827 2.20568,4.51737c0,0.29334 -0.87066,0.46934 -1.91546,0.46934c-1.74133,0 -2.0896,-0.29334 -3.30853,-2.93336c-0.75458,-1.64268 -1.56719,-2.93336 -1.85741,-2.93336c-0.75458,0 -3.36656,5.74939 -3.36656,7.45073c0.05805,0.88001 0.81262,3.10935 1.68328,4.86937l1.68329,3.2267l1.62524,-3.40269c1.50916,-3.05069 1.79937,-3.34402 3.5407,-3.34402c1.0448,0 1.91546,0.29333 1.91546,0.58667c0,1.29067 -4.0631,8.68273 -4.93376,9.03474c-1.79937,0.64534 -4.17919,0.35201 -5.04985,-0.704c-1.68329,-1.87735 -4.52746,-8.27207 -4.52746,-10.09075c0,-1.81868 3.65679,-9.91475 4.87572,-10.73609c0.34827,-0.23467 1.68329,-0.352 2.96026,-0.29334z" data-paper-data="{&quot;origPos&quot;:null}"/><path d="M336.34094,176.25886l1.91546,1.46668l1.85742,1.52535v5.74938c0,5.69072 -0.05804,5.80805 -1.39306,5.98405c-0.75458,0.11734 -1.62524,-0.11733 -1.85742,-0.58667c-0.29023,-0.41067 -0.5224,-3.7547 -0.5224,-7.45073z" data-paper-data="{&quot;origPos&quot;:null}"/><path d="M396.14612,168.80813h2.14763c1.85742,0 2.43786,0.352 3.71483,2.22935c1.50916,2.17068 2.84418,5.45604 2.84418,6.92272c0,0.46934 -0.63849,0.82134 -1.45111,0.82134c-1.0448,0 -1.50916,-0.41066 -1.79937,-1.46667c-0.17413,-0.76268 -0.69653,-1.70135 -1.16088,-2.11202c-0.69653,-0.58667 -0.81262,0.58667 -0.81262,7.62673v8.33074l-1.56719,-0.176l-1.62524,-0.176l-0.17413,-11.02942z" data-paper-data="{&quot;origPos&quot;:null}"/><path d="M408.97391,168.80813h2.26373v10.38408c0,5.74938 -0.23218,10.79476 -0.52239,11.20543c-0.23218,0.46934 -1.10285,0.704 -1.85742,0.58667c-1.39306,-0.176 -1.39306,-0.23467 -1.45111,-7.80273c-0.05805,-5.39738 -0.40631,-8.3894 -1.0448,-10.20808c-0.69653,-1.93601 -0.75457,-2.75736 -0.29023,-3.34403c0.34827,-0.46934 1.68329,-0.82134 2.90222,-0.82134z" data-paper-data="{&quot;origPos&quot;:null}"/><path d="M425.11023,168.80813c1.62524,0 1.68329,0.05866 4.52745,10.38408c1.62524,5.74938 2.78613,10.79476 2.612,11.20543c-0.11609,0.41067 -0.92871,0.704 -1.79937,0.58667c-1.21893,-0.11734 -1.62524,-0.58668 -2.03155,-2.40535c-0.5224,-2.11201 -0.58044,-2.17068 -3.30852,-2.17068c-2.78613,0 -2.78613,0 -3.42462,2.34668c-0.5224,1.93601 -0.87066,2.34669 -2.08959,2.34669c-1.85742,0 -2.20568,-1.05601 -1.39306,-4.1067c1.45111,-5.39738 1.45111,-5.39738 3.83092,-4.40004c2.96026,1.23201 5.1079,1.17335 4.5855,-0.176c-0.17413,-0.52801 -0.5224,-1.70135 -0.69653,-2.64002c-0.40631,-1.93601 -1.33502,-2.69869 -1.33502,-1.05601c0,1.34934 -0.40631,1.46668 -2.55394,0.64534c-1.45111,-0.52801 -1.45111,-0.52801 -0.63849,-3.34403c0.46436,-1.52534 1.16088,-3.81337 1.45111,-5.04538c0.5224,-1.87735 0.87067,-2.17068 2.26373,-2.17068z" data-paper-data="{&quot;origPos&quot;:null}"/><path d="M439.09891,168.80813h6.32683c6.26878,0 6.38488,0 7.60381,1.58401c2.49591,3.16803 0.40631,8.3894 -3.30853,8.3894c-1.0448,0 -1.39306,0.23467 -1.16088,0.82134c0.58044,1.46668 -3.1344,1.46668 -4.35333,0.05867c-0.98675,-1.11468 -0.98675,-0.93867 -1.04479,4.40004c0,3.05069 -0.23218,5.92539 -0.5224,6.33605c-0.23218,0.46934 -1.10285,0.704 -1.85742,0.58667l-1.39306,-0.176l-0.17413,-11.02942zM446.52858,171.85882l-3.36656,-0.176v2.11202v2.11202l3.36656,-0.176c3.25048,-0.176 3.30852,-0.176 3.30852,-1.93602c0,-1.76002 -0.05804,-1.76002 -3.30852,-1.93601z" data-paper-data="{&quot;origPos&quot;:null}"/><path d="M467.83084,168.80813c5.22398,0 5.45616,0.05867 6.67509,1.58401c1.5672,2.05335 1.27698,3.34403 -0.75457,3.5787c-1.27698,0.176 -1.74133,-0.05867 -1.97351,-0.99734c-0.29023,-1.05601 -0.75458,-1.23201 -3.59874,-1.23201c-1.79937,0.05866 -3.88897,0.41067 -4.70159,0.88001c-0.81262,0.46934 -1.79937,0.82135 -2.14764,0.88001c-1.0448,0 -0.9287,-2.69869 0.17414,-3.7547c0.69653,-0.704 2.14763,-0.93867 6.32683,-0.93867z" data-paper-data="{&quot;origPos&quot;:null}"/><path d="M467.59867,176.31752c2.08959,2.40536 7.02337,9.15207 7.54576,10.32542c0.58044,1.17334 0.5224,1.76002 -0.29023,2.99203c-0.9287,1.40801 -1.21893,1.46668 -6.44292,1.46668c-6.09465,0 -7.83598,-0.82134 -7.83598,-3.81336c0,-1.23201 0.29023,-1.46668 1.68329,-1.46668c1.16088,0 1.74133,0.352 1.97351,1.17334c0.23218,0.99734 0.81262,1.17334 3.83092,1.17334c1.97351,0 3.54071,-0.11733 3.54071,-0.352c0,-0.176 -1.45111,-2.17069 -3.30853,-4.51737c-1.79937,-2.34669 -3.48266,-4.51737 -3.77288,-4.92804c-0.34827,-0.46934 0,-0.93867 1.10285,-1.58401c0.87066,-0.46934 1.79937,-0.64534 1.97351,-0.46934z" data-paper-data="{&quot;origPos&quot;:null}"/><path d="M449.83711,185.23493c1.74133,0 2.14763,0.29334 3.07635,2.17068c1.33502,2.64002 1.10284,3.69603 -0.75458,3.69603c-1.0448,0 -1.79937,-0.70401 -2.90222,-2.52269c-0.81262,-1.40801 -1.45111,-2.75736 -1.45111,-2.93336c0,-0.23467 0.92871,-0.41067 2.03155,-0.41067z" data-paper-data="{&quot;origPos&quot;:null}"/></g></g></svg>