<svg version="1.1" xmlns="http://www.w3.org/2000/svg" xmlns:xlink="http://www.w3.org/1999/xlink" width="470.93529" height="22.3522"><g transform="translate(-4.91485,-170.07353)"><g data-paper-data="{&quot;isPaintingLayer&quot;:true}" fill="#ffffff" fill-rule="nonzero" stroke="none" stroke-width="1" stroke-linecap="butt" stroke-linejoin="miter" stroke-miterlimit="10" stroke-dasharray="" stroke-dashoffset="0" font-family="none" font-weight="none" font-size="none" text-anchor="none" style="mix-blend-mode: normal"><path d="M7.08553,170.07354c1.29068,0 1.34935,0.176 1.34935,4.69337v4.69337h-1.76002h-1.76001v-4.2827c0,-2.40535 0.176,-4.51737 0.41067,-4.69337c0.176,-0.23467 0.99733,-0.41067 1.76001,-0.41067z" data-paper-data="{&quot;origPos&quot;:null}"/><path d="M34.18977,170.07354c1.52535,0 1.70135,0.29333 2.87469,4.34137c0.70401,2.40536 1.29068,4.6347 1.29068,4.98671c0,0.88 -3.10936,0.82134 -3.98936,-0.05867c-0.52801,-0.528 -0.70401,-0.528 -0.70401,0c0,0.41067 -0.82134,0.70401 -2.05335,0.70401h-1.99468l0.88,-2.81603c0.46934,-1.52535 1.11468,-3.75469 1.40801,-4.98671c0.52801,-1.81868 0.88001,-2.17068 2.28802,-2.17068z" data-paper-data="{&quot;origPos&quot;:null}"/><path d="M50.49923,170.07354h1.34934v8.97607c0,9.26941 0.23467,10.38408 2.46402,10.38408c0.76268,0 1.05601,0.46934 1.05601,1.46668c0,1.29067 -0.23467,1.46668 -2.17068,1.46668c-1.40801,0 -2.64003,-0.46934 -3.52003,-1.29068c-1.29068,-1.23201 -1.34934,-1.58401 -1.34934,-10.73609c0,-5.22137 0.176,-9.68008 0.41067,-9.85608c0.176,-0.23467 0.99734,-0.41067 1.76002,-0.41067z" data-paper-data="{&quot;origPos&quot;:null}"/><path d="M102.30234,170.24954c3.98937,0.11733 4.40004,0.23467 4.40004,1.29068c0,1.05601 -0.46934,1.17334 -3.63736,1.34934c-2.93336,0.11733 -3.81337,0.41067 -4.28271,1.29068c-0.46934,0.82134 -1.23201,1.17334 -2.69869,1.17334h-1.99468l1.17334,-2.28802c0.58667,-1.29067 1.46668,-2.46402 1.87735,-2.58136c0.41067,-0.176 2.75736,-0.29333 5.16271,-0.23467z" data-paper-data="{&quot;origPos&quot;:null}"/><path d="M115.50245,170.07354c1.46668,0 1.46668,0.05867 1.46668,4.98671c0,4.92804 0,4.98671 1.46668,4.98671c1.17334,0 1.46668,0.29333 1.46668,1.46668c0,1.17334 -0.29333,1.46668 -1.46668,1.46668c-1.46668,0 -1.46668,0.05867 -1.46668,4.75204v4.69337l-1.58401,-0.176l-1.64268,-0.17601l-0.176,-10.26675c-0.05867,-5.63205 0,-10.56008 0.11733,-10.97075c0.176,-0.41067 0.99734,-0.76268 1.81868,-0.76268z" data-paper-data="{&quot;origPos&quot;:null}"/><path d="M159.03346,170.07354c1.29067,0 1.34934,0.176 1.34934,4.69337v4.69337h-1.76002h-1.76002v-4.2827c0,-2.40535 0.176,-4.51737 0.41067,-4.69337c0.176,-0.23467 0.99734,-0.41067 1.76002,-0.41067z" data-paper-data="{&quot;origPos&quot;:null}"/><path d="M226.61804,170.07354c2.22935,0 4.51737,0.176 5.04538,0.352c0.88001,0.35201 4.98671,7.74407 4.98671,9.03474c0,0.29333 -0.88001,0.58667 -1.87735,0.58667c-1.76002,-0.05867 -2.05335,-0.29333 -3.52003,-3.52003c-0.88001,-1.93601 -1.87735,-3.52003 -2.17068,-3.52003c-0.41067,0 -0.64533,1.46668 -0.64533,3.52003v3.52003h-1.76002h-1.76002v-3.52003c0,-3.10936 -0.11733,-3.52003 -1.11467,-3.52003c-1.34934,0 -2.05335,-0.88 -1.58402,-2.05335c0.23467,-0.64534 1.34934,-0.88 4.40004,-0.88z" data-paper-data="{&quot;origPos&quot;:null}"/><path d="M252.37292,170.19088c1.29067,0.11733 1.93602,0.88 3.46137,3.69603c3.52003,6.51206 3.57869,7.15739 0.99734,12.61344c-1.93601,4.1067 -3.28537,5.86672 -4.57604,5.86672c-0.93867,0 -0.176,-5.04538 1.11467,-7.62673c0.82134,-1.58401 1.46668,-3.28536 1.46668,-3.81336c0,-1.11468 -2.87469,-6.98139 -3.5787,-7.21606c-0.29334,-0.11733 -0.52801,-0.99734 -0.52801,-1.93602c0,-1.58401 0.176,-1.76001 1.64268,-1.58401z" data-paper-data="{&quot;origPos&quot;:null}"/><path d="M330.45889,170.07354h7.62673h7.68539v1.70135c0,2.64002 -0.58666,3.5787 -2.17068,3.5787c-0.93867,0 -1.58402,-0.41067 -1.76002,-1.17334c-0.58667,-2.17069 -1.93602,-1.34934 -1.93602,1.17334c0,2.28802 -0.05867,2.34668 -2.05335,2.34668c-1.99469,0 -2.05335,-0.05866 -2.05335,-2.34668c0,-1.70135 -0.23467,-2.34669 -0.88,-2.34669c-0.46934,0 -0.88001,0.52801 -0.88001,1.23202c0,0.93868 -0.29333,1.17334 -1.58401,0.99734c-1.46668,-0.176 -1.64269,-0.41067 -1.81869,-2.69869z" data-paper-data="{&quot;origPos&quot;:null}"/><path d="M360.14448,170.19088c2.05335,0.176 2.46402,0.46934 3.63737,2.52268c1.76002,3.05069 1.70134,3.2267 -0.64534,3.2267c-1.52535,0 -2.11202,-0.29334 -2.40535,-1.17334c-0.176,-0.64534 -0.58667,-1.17334 -0.88,-1.17334c-0.29334,0 -0.82134,0.528 -1.17335,1.17334c-0.46934,0.82134 -1.23201,1.17334 -2.69869,1.17334h-1.99468l1.23201,-2.52269c0.704,-1.34934 1.58401,-2.64002 1.93601,-2.93336c0.35201,-0.23467 1.70135,-0.352 2.99202,-0.29333z" data-paper-data="{&quot;origPos&quot;:null}"/><path d="M424.91301,170.07354c1.58402,0 1.70135,0.176 3.2267,5.45605c0.82134,2.99202 1.52534,5.63205 1.52534,5.86671c0,0.23467 -0.93867,0.41067 -2.05335,0.41067c-1.64268,0 -2.05335,-0.23467 -2.05335,-1.11468c0,-1.70135 -1.05601,-2.05335 -1.29068,-0.528c-0.11734,1.05601 -0.58667,1.40801 -2.34668,1.52535l-2.11201,0.176l1.70135,-5.69071c0.93867,-3.16802 1.70135,-5.80805 1.70135,-5.92538c0,-0.05867 0.76267,-0.176 1.70135,-0.176z" data-paper-data="{&quot;origPos&quot;:null}"/><path d="M449.84655,170.07354c1.52535,0 2.34668,0.41067 3.28536,1.58401c2.46402,3.16803 0.41067,8.3894 -3.28536,8.3894c-0.76268,0 -1.40801,0.11733 -1.40801,0.176c0,0.11733 1.29067,2.52269 2.87469,5.39738c3.05069,5.33871 3.22669,6.74672 0.88,6.74672c-0.99734,0 -1.76002,-0.70401 -2.87469,-2.52269c-1.23201,-2.22935 -1.46668,-3.28536 -1.46668,-7.56807c0,-4.51737 0.11733,-5.04538 1.17334,-5.33871c0.82134,-0.176 1.17334,-0.82133 1.17334,-1.87734c0,-1.05601 -0.352,-1.70135 -1.17334,-1.87735c-0.76268,-0.176 -1.17334,-0.82135 -1.17334,-1.70135c0,-1.23201 0.29334,-1.40801 1.99469,-1.40801z" data-paper-data="{&quot;origPos&quot;:null}"/><path d="M468.09204,170.07354c5.28004,0 5.51471,0.05867 6.74672,1.58401c1.58402,2.05335 1.29068,3.34403 -0.76267,3.5787c-1.29068,0.176 -1.76002,-0.05867 -1.99469,-0.99734c-0.29334,-1.05601 -0.76267,-1.23202 -3.7547,-1.23202c-1.93601,0 -3.46137,0.11734 -3.46137,0.29334c0,0.176 0.41067,0.99734 0.93868,1.76002l0.93867,1.46667h-2.34669c-1.81868,0 -2.58136,-0.29333 -3.05069,-1.11468c-0.82134,-1.64268 -0.70401,-3.34402 0.352,-4.40003c0.704,-0.704 2.17068,-0.93868 6.39472,-0.93868z" data-paper-data="{&quot;origPos&quot;:null}"/><path d="M290.6239,176.05759c2.40535,0.176 2.69869,0.41066 6.27738,4.98671l3.81336,4.86938h-2.34668c-2.40535,0 -3.10936,-0.64534 -9.68008,-9.26941c-0.52801,-0.64534 -0.11734,-0.76267 1.93601,-0.58667z" data-paper-data="{&quot;origPos&quot;:null}"/><path d="M395.57944,181.80697h1.81868h1.76002v5.33871v5.28005l-1.58401,-0.176c-1.64268,-0.176 -1.64269,-0.176 -1.81869,-5.33871z" data-paper-data="{&quot;origPos&quot;:null}"/><path d="M406.7262,181.80697h2.11201h2.05335v4.51737c0,5.22137 -0.41066,6.21872 -2.40535,5.92539c-1.34935,-0.176 -1.40802,-0.41067 -1.58402,-5.33871z" data-paper-data="{&quot;origPos&quot;:null}"/><path d="M69.97672,182.98032h2.11201h2.05335v3.9307c0,4.6347 -0.46934,5.63205 -2.40535,5.33871c-1.34934,-0.176 -1.40802,-0.41067 -1.58402,-4.75204z" data-paper-data="{&quot;origPos&quot;:null}"/><path d="M80.65416,183.68432c0,0.58667 0.11733,0.58667 0.352,0c0.11733,-0.35201 1.17334,-0.704 2.28802,-0.704h1.99468v4.69337v4.69338h-2.58136h-2.58136l-1.81868,-4.34137c-0.99734,-2.40535 -1.81868,-4.51738 -1.81868,-4.69338c0,-0.704 4.1067,-0.352 4.16537,0.352z" data-paper-data="{&quot;origPos&quot;:null}"/><path d="M269.09305,187.67369c0.176,0.64534 0.58667,1.17334 0.88,1.17334c0.35201,0 0.82135,-0.528 0.99734,-1.17334c0.23467,-0.82134 0.88001,-1.17334 2.05335,-1.17334c1.11467,0 1.70135,0.352 1.93601,1.17334c0.176,0.64534 0.58667,1.17334 0.93867,1.17334c0.35201,0 0.64534,-0.528 0.64534,-1.17334c0,-0.93868 0.41067,-1.17334 2.05335,-1.17334c1.70135,0 2.05335,0.23468 2.05335,1.23202c0,0.64534 -0.52801,1.99468 -1.23201,2.93335c-1.17334,1.64268 -1.29067,1.70135 -6.68805,1.70135c-5.51471,0 -5.51472,0 -6.45339,-1.76002c-0.46934,-0.93868 -0.88,-2.22935 -0.88,-2.93336c0,-1.64268 3.2267,-1.70135 3.69603,0z" data-paper-data="{&quot;origPos&quot;:null}"/><path d="M200.2178,187.08702h2.05335c1.99469,0 2.11201,0.11733 2.11201,1.87735c0,2.58136 -0.70401,3.52003 -2.40535,3.28536c-1.17335,-0.11733 -1.40801,-0.52801 -1.58401,-2.69869z" data-paper-data="{&quot;origPos&quot;:null}"/><path d="M212.00992,187.08702h3.52003v2.64002v2.64003h-2.52269c-2.34669,0 -2.64002,-0.17601 -3.52002,-2.05336c-0.52801,-1.17334 -0.99735,-2.34668 -0.99735,-2.64002c0,-0.35201 1.58402,-0.58667 3.52003,-0.58667z" data-paper-data="{&quot;origPos&quot;:null}"/><path d="M98.95832,188.5537c0.23467,0.58667 1.46667,0.88 4.04803,0.99734c3.2267,0.176 3.69603,0.29333 3.69603,1.34934c0,1.05601 -0.46934,1.17335 -4.1067,1.34935c-2.34668,0.11733 -4.63471,-0.11734 -5.33871,-0.52801c-1.05601,-0.528 -2.58136,-2.75736 -2.58136,-3.7547c0,-0.76268 3.98937,-0.176 4.28271,0.58667z" data-paper-data="{&quot;origPos&quot;:null}"/><path d="M337.90963,187.67369c2.05335,0 2.05335,0.05867 1.87735,2.17069c-0.11734,1.81868 -0.41067,2.28802 -1.58402,2.40536c-1.64268,0.23467 -2.40535,-0.70401 -2.40535,-2.99203c0,-1.40801 0.176,-1.58401 2.11202,-1.58401z" data-paper-data="{&quot;origPos&quot;:null}"/><path d="M186.19637,188.26036c0.99734,0 1.76002,0.23467 1.76002,0.52801c0,0.35201 1.232,0.64534 2.81602,0.76267c2.28802,0.176 2.75736,0.35201 2.75736,1.34934c0,1.11468 -0.41067,1.17334 -7.33339,1.17334c-6.92272,0 -7.33339,-0.05867 -7.33339,-1.17334c0,-0.99734 0.46933,-1.17334 2.81602,-1.34934c1.52534,-0.11733 2.75736,-0.41067 2.75736,-0.76267c0,-0.29333 0.82134,-0.52801 1.76002,-0.52801z" data-paper-data="{&quot;origPos&quot;:null}"/><path d="M16.88296,189.4337c2.81603,0 3.52003,0.46934 2.93336,1.99469c-0.23467,0.64534 -1.11468,0.93868 -2.93336,0.93868c-2.34669,0 -2.58136,-0.11734 -2.58136,-1.46668c0,-1.34934 0.23467,-1.46668 2.58136,-1.46668z" data-paper-data="{&quot;origPos&quot;:null}"/></g></g></svg>