<svg version="1.1" xmlns="http://www.w3.org/2000/svg" xmlns:xlink="http://www.w3.org/1999/xlink" width="433.1" height="51.20085" viewBox="0,0,433.1,51.20085"><g transform="translate(-23.4,-155.39915)"><g data-paper-data="{&quot;isPaintingLayer&quot;:true}" fill="#ffffff" fill-rule="nonzero" stroke="none" stroke-width="1" stroke-linecap="butt" stroke-linejoin="miter" stroke-miterlimit="10" stroke-dasharray="" stroke-dashoffset="0" font-family="none" font-weight="none" font-size="none" text-anchor="none" style="mix-blend-mode: normal"><path d="M23.4,155.5h6.96643h6.96643l-0.12222,5.7c-0.12222,5.2 -0.2037,5.8 -1.05922,6.1c-1.1407,0.4 -2.11845,-1.4 -2.11845,-3.9c0,-1.4 -0.28518,-1.9 -1.01848,-1.9h-1.01848l-0.08148,22.2l-0.12222,22.3h-1.42588h-1.42588l-0.12222,-22.3l-0.08148,-22.2h-1.01848c-0.73331,0 -0.97774,0.6 -1.09996,2.7c-0.12222,2.5 -0.28518,2.8 -1.5481,2.8h-1.42588l-0.12222,-5.8z" data-paper-data="{&quot;origPos&quot;:null}"/><path d="M53.09898,157.7c1.50736,4.1 4.15541,18.8 4.15541,23.3c0,5 -3.09619,21.4 -4.52207,23.9c-1.09996,1.8 -3.29989,2.1 -4.48133,0.6c-1.1407,-1.6 -4.84798,-20.2 -4.84798,-24.5c0,-4.1 3.66654,-22.8 4.7665,-24.4c1.3444,-1.9 3.99246,-1.3 4.92946,1.1zM52.24346,170.1c-1.3444,-6.9 -1.83327,-8.5 -2.15919,-7.5c-0.52961,1.7 -3.42211,17.3 -3.42211,18.5c0,1.7 3.42211,18.4 3.74802,18.4c0.48887,0 3.58506,-16.4 3.58506,-18.8c0,-1 -0.77405,-5.8 -1.75179,-10.6z" data-paper-data="{&quot;origPos&quot;:null}"/><path d="M90.17179,155.5c5.29612,0 6.59977,0.3 7.00717,1.5c0.937,2.7 -0.2037,4.5 -2.89249,4.5h-2.40362v19.5v19.5h2.40362c2.6888,0 3.8295,1.8 2.89249,4.5c-0.44813,1.3 -1.58883,1.5 -7.08865,1.3l-6.55903,-0.3v-2.5c0,-2.4 0.12222,-2.5 2.56658,-2.8l2.52584,-0.3v-19.4v-19.5h-2.44436c-2.56658,0 -3.21841,-1.1 -2.6888,-4.5c0.16296,-1.2 1.30366,-1.5 6.68125,-1.5z" data-paper-data="{&quot;origPos&quot;:null}"/><path d="M103.28986,155.5h2.19992h2.15919l2.36288,13.2c3.91098,22.1 3.6258,21.9 3.87024,3.3l0.2037,-16h1.42588h1.42588l0.12222,25.3l0.08148,25.3l-2.07771,-0.3l-2.07771,-0.3l-2.11845,-12c-1.18144,-6.6 -2.60732,-14.3 -3.13693,-17l-0.97774,-5l-0.2037,17l-0.2037,17h-1.42588h-1.42588l-0.12222,-25.3z" data-paper-data="{&quot;origPos&quot;:null}"/><path d="M123.25214,155.5l6.80347,0.2l6.84421,0.3v2.5v2.5l-5.1739,0.3l-5.21464,0.3v5.4v5.4l3.99246,0.3c3.91098,0.3 3.95172,0.3 3.95172,2.8c0,2.5 -0.04074,2.5 -3.95172,2.8l-3.95172,0.3l-0.12222,13.7l-0.12222,13.7h-1.42588h-1.42588l-0.12222,-25.3z" data-paper-data="{&quot;origPos&quot;:null}"/><path d="M150.05863,155.5c5.29612,0 6.59977,0.3 7.00717,1.5c0.937,2.7 -0.2037,4.5 -2.89249,4.5h-2.40362v19.5v19.5h2.40362c2.6888,0 3.8295,1.8 2.89249,4.5c-0.44813,1.3 -1.58883,1.5 -7.08865,1.3l-6.55903,-0.3v-2.5c0,-2.4 0.12222,-2.5 2.56658,-2.8l2.52584,-0.3v-19.4v-19.5h-2.44436c-2.56658,0 -3.21841,-1.1 -2.6888,-4.5c0.16296,-1.2 1.30366,-1.5 6.68125,-1.5z" data-paper-data="{&quot;origPos&quot;:null}"/><path d="M163.1767,155.5h2.19992h2.15919l2.36288,13.2c3.91098,22.1 3.6258,21.9 3.87024,3.3l0.2037,-16h1.42588h1.42588l0.12222,25.3l0.08148,25.3l-2.07771,-0.3l-2.07771,-0.3l-2.11845,-12c-1.18144,-6.6 -2.60732,-14.3 -3.13693,-17l-0.97774,-5l-0.2037,17l-0.2037,17h-1.42588h-1.42588l-0.12222,-25.3z" data-paper-data="{&quot;origPos&quot;:null}"/><path d="M189.98319,155.5c5.29612,0 6.59977,0.3 7.00717,1.5c0.937,2.7 -0.2037,4.5 -2.89249,4.5h-2.40362v19.5v19.5h2.40362c2.6888,0 3.8295,1.8 2.89249,4.5c-0.44813,1.3 -1.58883,1.5 -7.08865,1.3l-6.55903,-0.3v-2.5c0,-2.4 0.12222,-2.5 2.56658,-2.8l2.52584,-0.3v-19.4v-19.5h-2.44436c-2.56658,0 -3.21841,-1.1 -2.6888,-4.5c0.16296,-1.2 1.30366,-1.5 6.68125,-1.5z" data-paper-data="{&quot;origPos&quot;:null}"/><path d="M203.06052,155.5h6.96643h6.96643l-0.12222,5.7c-0.12222,5.2 -0.2037,5.8 -1.05922,6.1c-1.1407,0.4 -2.11845,-1.4 -2.11845,-3.9c0,-1.4 -0.28518,-1.9 -1.01848,-1.9h-1.01848l-0.08148,22.2l-0.12222,22.3h-1.42588h-1.42588l-0.12222,-22.3l-0.08148,-22.2h-1.01848c-0.73331,0 -0.97774,0.6 -1.09996,2.7c-0.12222,2.5 -0.28518,2.8 -1.5481,2.8h-1.42588l-0.12222,-5.8z" data-paper-data="{&quot;origPos&quot;:null}"/><path d="M224.89681,155.7c1.05922,0.3 1.26292,0.8 1.42588,3.8c0.16296,3.2 3.01471,13.8 3.74802,14c0.57035,0.1 3.58506,-10.4 3.58506,-12.5c0,-4 0.44813,-5.5 1.67031,-5.5c1.30366,0 1.99623,2.3 1.99623,6.7c0,2 -0.81479,5.3 -2.85175,11.5l-2.81101,8.6l-0.12222,11.9c-0.12222,11.5 -0.16296,11.8 -1.05922,12.1c-1.83327,0.7 -2.11845,-1.2 -2.11845,-13.3v-11.3l-2.64806,-8.1c-2.36288,-7.1 -2.64806,-8.5 -2.64806,-12.4c0,-2.4 0.12222,-4.7 0.28518,-5.1c0.16296,-0.4 0.85553,-0.6 1.5481,-0.4z" data-paper-data="{&quot;origPos&quot;:null}"/><path d="M269.91379,155.5c0.73331,0 1.3444,0.7 1.58883,1.8c0.73331,3.4 5.37759,44.5 5.25538,46.6c-0.12222,2.4 -1.67031,3.4 -2.56658,1.6c-0.28518,-0.6 -0.77405,-3.3 -1.05922,-6.1l-0.52961,-4.9h-2.52584h-2.52584l-0.77405,5.7c-0.65183,4.8 -0.97774,5.9 -1.83327,6.1c-0.52961,0.2 -1.26292,-0.4 -1.5481,-1.3c-0.52961,-1.6 -0.04074,-6.5 4.11467,-39.8c1.18144,-9.4 1.26292,-9.7 2.40362,-9.7zM270.76932,180l-0.73331,-6l-0.85553,6.9c-0.48887,3.7 -0.89627,7 -0.89627,7.2c0,0.2 0.73331,0.4 1.62957,0.4c1.01848,0 1.62957,-0.5 1.62957,-1.3c0,-0.6 -0.36665,-3.9 -0.77405,-7.2z" data-paper-data="{&quot;origPos&quot;:null}"/><path d="M282.95038,155.5h2.19992h2.15919l2.36288,13.2c3.91098,22.1 3.6258,21.9 3.87024,3.3l0.2037,-16h1.42588h1.42588l0.12222,25.3l0.08148,25.3l-2.07771,-0.3l-2.07771,-0.3l-2.11845,-12c-1.18144,-6.6 -2.60732,-14.3 -3.13693,-17l-0.97774,-5l-0.2037,17l-0.2037,17h-1.42588h-1.42588l-0.12222,-25.3z" data-paper-data="{&quot;origPos&quot;:null}"/><path d="M312.20123,157.1c1.50736,2.6 4.56281,18.6 4.56281,23.8c0,5.8 -3.34063,22.4 -4.88872,24.3c-0.65183,0.9 -2.36288,1.2 -4.88872,1.1c-3.8295,-0.3 -3.87024,-0.3 -3.87024,-2.8c0,-2 0.24444,-2.6 1.1407,-2.8l1.09996,-0.3v-19.5v-19.4h-1.01848c-1.09996,0 -1.67031,-2 -1.26292,-4.5c0.32591,-2.2 7.82195,-2.1 9.12561,0.1zM309.55317,161.7c-0.40739,-0.3 -0.52961,4 -0.52961,19.2c0,12.3 0.16296,19.6 0.40739,19.6c0.57035,0 4.07393,-17.5 4.07393,-20.2c-0.04074,-1.3 -0.81479,-5.9 -1.75179,-10.2c-0.937,-4.4 -1.95549,-8.2 -2.19992,-8.4z" data-paper-data="{&quot;origPos&quot;:null}"/><path d="M342.83722,155.5h5.13316c5.62203,0 6.80347,0.9 8.06639,6c0.937,4 0.85553,13.1 -0.12222,16.1c-0.73331,2.2 -0.73331,2.4 0,5.3c1.09996,4.5 1.05922,14.4 -0.08148,18c-1.50736,4.7 -2.77028,5.6 -8.10713,5.6h-4.88872v-25.5zM348.94812,161.5h-2.85175v8v8h2.60732c3.38137,0 4.72576,-2.3 4.72576,-8.1c0,-2.6 -0.28518,-4.6 -0.81479,-5.9c-0.65183,-1.6 -1.3444,-2 -3.66654,-2zM348.82591,183.5h-2.72954v8.5v8.5h2.64806c2.32214,0 2.81101,-0.3 3.66654,-2.5c1.38514,-3.3 1.38514,-9.3 0.08148,-12.3c-0.77405,-1.8 -1.42588,-2.2 -3.66654,-2.2z" data-paper-data="{&quot;origPos&quot;:null}"/><path d="M362.7995,155.5h6.68125c5.41833,0 6.76273,0.3 7.17013,1.5c0.40739,1.2 0.40739,1.8 0,3c-0.40739,1.2 -1.5481,1.5 -5.54055,1.5h-5.05168v8v8h2.36288c2.64806,0 3.54432,1.3 2.89249,4.2c-0.32591,1.4 -0.89627,1.8 -2.81101,1.8h-2.44436v8.5v8.5h5.05168c3.99246,0 5.13316,0.3 5.54055,1.5c0.40739,1.2 0.40739,1.8 0,3c-0.40739,1.2 -1.75179,1.5 -7.17013,1.5h-6.68125v-25.5z" data-paper-data="{&quot;origPos&quot;:null}"/><path d="M384.59505,155.7c1.05922,0.3 1.26292,0.8 1.42588,3.8c0.16296,3.2 3.01471,13.8 3.74802,14c0.57035,0.1 3.58506,-10.4 3.58506,-12.5c0,-4 0.44813,-5.5 1.67031,-5.5c1.30366,0 1.99623,2.3 1.99623,6.7c0,2 -0.81479,5.3 -2.85175,11.5l-2.81101,8.6l-0.12222,11.9c-0.12222,11.5 -0.16296,11.8 -1.05922,12.1c-1.83327,0.7 -2.11845,-1.2 -2.11845,-13.3v-11.3l-2.64806,-8.1c-2.36288,-7.1 -2.64806,-8.5 -2.64806,-12.4c0,-2.4 0.12222,-4.7 0.28518,-5.1c0.16296,-0.4 0.85553,-0.6 1.5481,-0.4z" data-paper-data="{&quot;origPos&quot;:null}"/><path d="M412.42003,157.7c1.50736,4.1 4.15541,18.8 4.15541,23.3c0,5 -3.09619,21.4 -4.52207,23.9c-1.09996,1.8 -3.29989,2.1 -4.48133,0.6c-1.1407,-1.6 -4.84798,-20.2 -4.84798,-24.5c0,-4.1 3.66654,-22.8 4.7665,-24.4c1.3444,-1.9 3.99246,-1.3 4.92946,1.1zM411.5645,170.1c-1.3444,-6.9 -1.83327,-8.5 -2.15919,-7.5c-0.52961,1.7 -3.42211,17.3 -3.42211,18.5c0,1.7 3.42211,18.4 3.74802,18.4c0.48887,0 3.58506,-16.4 3.58506,-18.8c0,-1 -0.77405,-5.8 -1.75179,-10.6z" data-paper-data="{&quot;origPos&quot;:null}"/><path d="M422.68634,155.5h2.19992h2.15919l2.36288,13.2c3.91098,22.1 3.6258,21.9 3.87024,3.3l0.2037,-16h1.42588h1.42588l0.12222,25.3l0.08148,25.3l-2.07771,-0.3l-2.07771,-0.3l-2.11845,-12c-1.18144,-6.6 -2.60732,-14.3 -3.13693,-17l-0.97774,-5l-0.2037,17l-0.2037,17h-1.42588h-1.42588l-0.12222,-25.3z" data-paper-data="{&quot;origPos&quot;:null}"/><path d="M451.93719,157.1c1.50736,2.6 4.56281,18.6 4.56281,23.8c0,5.8 -3.34063,22.4 -4.88872,24.3c-0.65183,0.9 -2.36288,1.2 -4.88872,1.1c-3.8295,-0.3 -3.87024,-0.3 -3.87024,-2.8c0,-2 0.24444,-2.6 1.1407,-2.8l1.09996,-0.3v-19.5v-19.4h-1.01848c-1.09996,0 -1.67031,-2 -1.26292,-4.5c0.32591,-2.2 7.82195,-2.1 9.12561,0.1zM449.28914,161.7c-0.40739,-0.3 -0.52961,4 -0.52961,19.2c0,12.3 0.16296,19.6 0.40739,19.6c0.57035,0 4.07393,-17.5 4.07393,-20.2c-0.04074,-1.3 -0.81479,-5.9 -1.75179,-10.2c-0.937,-4.4 -1.95549,-8.2 -2.19992,-8.4z" data-paper-data="{&quot;origPos&quot;:null}"/></g></g></svg>