<svg version="1.1" xmlns="http://www.w3.org/2000/svg" xmlns:xlink="http://www.w3.org/1999/xlink" width="451.70165" height="326.2542" viewBox="0,0,451.70165,326.2542"><defs><radialGradient cx="52.1" cy="41.1" r="2.6" gradientUnits="userSpaceOnUse" id="color-1"><stop offset="0" stop-color="#ffffff"/><stop offset="1" stop-color="#1a1a1a"/></radialGradient><radialGradient cx="123.1" cy="34.1" r="2.6" gradientUnits="userSpaceOnUse" id="color-2"><stop offset="0" stop-color="#ffffff"/><stop offset="1" stop-color="#1a1a1a"/></radialGradient><radialGradient cx="43.1" cy="74.1" r="2.6" gradientUnits="userSpaceOnUse" id="color-3"><stop offset="0" stop-color="#ffffff"/><stop offset="1" stop-color="#1a1a1a"/></radialGradient><radialGradient cx="88.1" cy="26.1" r="2.6" gradientUnits="userSpaceOnUse" id="color-4"><stop offset="0" stop-color="#ffffff"/><stop offset="1" stop-color="#1a1a1a"/></radialGradient><radialGradient cx="162.1" cy="65.1" r="2.6" gradientUnits="userSpaceOnUse" id="color-5"><stop offset="0" stop-color="#ffffff"/><stop offset="1" stop-color="#1a1a1a"/></radialGradient><radialGradient cx="122.1" cy="101.1" r="2.6" gradientUnits="userSpaceOnUse" id="color-6"><stop offset="0" stop-color="#ffffff"/><stop offset="1" stop-color="#1a1a1a"/></radialGradient><radialGradient cx="107.1" cy="67.1" r="2.6" gradientUnits="userSpaceOnUse" id="color-7"><stop offset="0" stop-color="#ffffff"/><stop offset="1" stop-color="#1a1a1a"/></radialGradient><radialGradient cx="86.43407" cy="200.7539" r="2.6" gradientUnits="userSpaceOnUse" id="color-8"><stop offset="0" stop-color="#ffffff"/><stop offset="1" stop-color="#1a1a1a"/></radialGradient><radialGradient cx="128.84545" cy="189.4273" r="2.6" gradientUnits="userSpaceOnUse" id="color-9"><stop offset="0" stop-color="#ffffff"/><stop offset="1" stop-color="#1a1a1a"/></radialGradient><radialGradient cx="28.69597" cy="113.16456" r="2.6" gradientUnits="userSpaceOnUse" id="color-10"><stop offset="0" stop-color="#ffffff"/><stop offset="1" stop-color="#1a1a1a"/></radialGradient><radialGradient cx="79.13881" cy="131.91341" r="2.6" gradientUnits="userSpaceOnUse" id="color-11"><stop offset="0" stop-color="#ffffff"/><stop offset="1" stop-color="#1a1a1a"/></radialGradient><radialGradient cx="55.96921" cy="160.96801" r="2.6" gradientUnits="userSpaceOnUse" id="color-12"><stop offset="0" stop-color="#ffffff"/><stop offset="1" stop-color="#1a1a1a"/></radialGradient><radialGradient cx="55.03956" cy="337.22995" r="2.6" gradientUnits="userSpaceOnUse" id="color-13"><stop offset="0" stop-color="#ffffff"/><stop offset="1" stop-color="#1a1a1a"/></radialGradient><radialGradient cx="17.53879" cy="276.53652" r="2.6" gradientUnits="userSpaceOnUse" id="color-14"><stop offset="0" stop-color="#ffffff"/><stop offset="1" stop-color="#1a1a1a"/></radialGradient><radialGradient cx="88.63616" cy="330.80589" r="2.6" gradientUnits="userSpaceOnUse" id="color-15"><stop offset="0" stop-color="#ffffff"/><stop offset="1" stop-color="#1a1a1a"/></radialGradient><radialGradient cx="25.74029" cy="311.48985" r="2.6" gradientUnits="userSpaceOnUse" id="color-16"><stop offset="0" stop-color="#ffffff"/><stop offset="1" stop-color="#1a1a1a"/></radialGradient><radialGradient cx="28.23694" cy="227.87905" r="2.6" gradientUnits="userSpaceOnUse" id="color-17"><stop offset="0" stop-color="#ffffff"/><stop offset="1" stop-color="#1a1a1a"/></radialGradient><radialGradient cx="78.15651" cy="247.9797" r="2.6" gradientUnits="userSpaceOnUse" id="color-18"><stop offset="0" stop-color="#ffffff"/><stop offset="1" stop-color="#1a1a1a"/></radialGradient><radialGradient cx="54.21278" cy="276.39972" r="2.6" gradientUnits="userSpaceOnUse" id="color-19"><stop offset="0" stop-color="#ffffff"/><stop offset="1" stop-color="#1a1a1a"/></radialGradient><radialGradient cx="214.51475" cy="252.12051" r="2.6" gradientUnits="userSpaceOnUse" id="color-20"><stop offset="0" stop-color="#ffffff"/><stop offset="1" stop-color="#1a1a1a"/></radialGradient><radialGradient cx="193.2456" cy="225.33202" r="2.6" gradientUnits="userSpaceOnUse" id="color-21"><stop offset="0" stop-color="#ffffff"/><stop offset="1" stop-color="#1a1a1a"/></radialGradient><radialGradient cx="130.05558" cy="326.56948" r="2.6" gradientUnits="userSpaceOnUse" id="color-22"><stop offset="0" stop-color="#ffffff"/><stop offset="1" stop-color="#1a1a1a"/></radialGradient><radialGradient cx="124.71941" cy="273.0202" r="2.6" gradientUnits="userSpaceOnUse" id="color-23"><stop offset="0" stop-color="#ffffff"/><stop offset="1" stop-color="#1a1a1a"/></radialGradient><radialGradient cx="161.00166" cy="281.0575" r="2.6" gradientUnits="userSpaceOnUse" id="color-24"><stop offset="0" stop-color="#ffffff"/><stop offset="1" stop-color="#1a1a1a"/></radialGradient><radialGradient cx="352.6462" cy="231.34416" r="2.6" gradientUnits="userSpaceOnUse" id="color-25"><stop offset="0" stop-color="#ffffff"/><stop offset="1" stop-color="#1a1a1a"/></radialGradient><radialGradient cx="387.17066" cy="293.77862" r="2.6" gradientUnits="userSpaceOnUse" id="color-26"><stop offset="0" stop-color="#ffffff"/><stop offset="1" stop-color="#1a1a1a"/></radialGradient><radialGradient cx="294.77845" cy="255.13744" r="2.6" gradientUnits="userSpaceOnUse" id="color-27"><stop offset="0" stop-color="#ffffff"/><stop offset="1" stop-color="#1a1a1a"/></radialGradient><radialGradient cx="380.66758" cy="258.46984" r="2.6" gradientUnits="userSpaceOnUse" id="color-28"><stop offset="0" stop-color="#ffffff"/><stop offset="1" stop-color="#1a1a1a"/></radialGradient><radialGradient cx="374.13403" cy="341.86237" r="2.6" gradientUnits="userSpaceOnUse" id="color-29"><stop offset="0" stop-color="#ffffff"/><stop offset="1" stop-color="#1a1a1a"/></radialGradient><radialGradient cx="325.24396" cy="319.37323" r="2.6" gradientUnits="userSpaceOnUse" id="color-30"><stop offset="0" stop-color="#ffffff"/><stop offset="1" stop-color="#1a1a1a"/></radialGradient><radialGradient cx="350.53289" cy="292.14329" r="2.6" gradientUnits="userSpaceOnUse" id="color-31"><stop offset="0" stop-color="#ffffff"/><stop offset="1" stop-color="#1a1a1a"/></radialGradient><radialGradient cx="189.24505" cy="308.64886" r="2.6" gradientUnits="userSpaceOnUse" id="color-32"><stop offset="0" stop-color="#ffffff"/><stop offset="1" stop-color="#1a1a1a"/></radialGradient><radialGradient cx="209.19503" cy="336.43372" r="2.6" gradientUnits="userSpaceOnUse" id="color-33"><stop offset="0" stop-color="#ffffff"/><stop offset="1" stop-color="#1a1a1a"/></radialGradient><radialGradient cx="352.20272" cy="190.36764" r="2.6" gradientUnits="userSpaceOnUse" id="color-34"><stop offset="0" stop-color="#ffffff"/><stop offset="1" stop-color="#1a1a1a"/></radialGradient><radialGradient cx="279.94532" cy="292.11221" r="2.6" gradientUnits="userSpaceOnUse" id="color-35"><stop offset="0" stop-color="#ffffff"/><stop offset="1" stop-color="#1a1a1a"/></radialGradient><radialGradient cx="244.09379" cy="282.33125" r="2.6" gradientUnits="userSpaceOnUse" id="color-36"><stop offset="0" stop-color="#ffffff"/><stop offset="1" stop-color="#1a1a1a"/></radialGradient><radialGradient cx="278.70147" cy="319.40717" r="2.6" gradientUnits="userSpaceOnUse" id="color-37"><stop offset="0" stop-color="#ffffff"/><stop offset="1" stop-color="#1a1a1a"/></radialGradient><radialGradient cx="253.05885" cy="342.04467" r="2.6" gradientUnits="userSpaceOnUse" id="color-38"><stop offset="0" stop-color="#ffffff"/><stop offset="1" stop-color="#1a1a1a"/></radialGradient><radialGradient cx="385.10421" cy="117.9024" r="2.6" gradientUnits="userSpaceOnUse" id="color-39"><stop offset="0" stop-color="#ffffff"/><stop offset="1" stop-color="#1a1a1a"/></radialGradient><radialGradient cx="413.6128" cy="136.80373" r="2.6" gradientUnits="userSpaceOnUse" id="color-40"><stop offset="0" stop-color="#ffffff"/><stop offset="1" stop-color="#1a1a1a"/></radialGradient><radialGradient cx="442.41176" cy="20.99086" r="2.6" gradientUnits="userSpaceOnUse" id="color-41"><stop offset="0" stop-color="#ffffff"/><stop offset="1" stop-color="#1a1a1a"/></radialGradient><radialGradient cx="464.04044" cy="70.26764" r="2.6" gradientUnits="userSpaceOnUse" id="color-42"><stop offset="0" stop-color="#ffffff"/><stop offset="1" stop-color="#1a1a1a"/></radialGradient><radialGradient cx="427.05075" cy="73.84008" r="2.6" gradientUnits="userSpaceOnUse" id="color-43"><stop offset="0" stop-color="#ffffff"/><stop offset="1" stop-color="#1a1a1a"/></radialGradient><radialGradient cx="260.1613" cy="180.36219" r="2.6" gradientUnits="userSpaceOnUse" id="color-44"><stop offset="0" stop-color="#ffffff"/><stop offset="1" stop-color="#1a1a1a"/></radialGradient><radialGradient cx="156.0273" cy="153.65853" r="2.59999" gradientUnits="userSpaceOnUse" id="color-45"><stop offset="0" stop-color="#ffffff"/><stop offset="1" stop-color="#1a1a1a"/></radialGradient><radialGradient cx="290.8884" cy="165.33402" r="2.6" gradientUnits="userSpaceOnUse" id="color-46"><stop offset="0" stop-color="#ffffff"/><stop offset="1" stop-color="#1a1a1a"/></radialGradient><radialGradient cx="225.12699" cy="163.22751" r="2.6" gradientUnits="userSpaceOnUse" id="color-47"><stop offset="0" stop-color="#ffffff"/><stop offset="1" stop-color="#1a1a1a"/></radialGradient><radialGradient cx="203.56107" cy="57.89994" r="2.59999" gradientUnits="userSpaceOnUse" id="color-48"><stop offset="0" stop-color="#ffffff"/><stop offset="1" stop-color="#1a1a1a"/></radialGradient><radialGradient cx="259.00859" cy="88.17395" r="2.6" gradientUnits="userSpaceOnUse" id="color-49"><stop offset="0" stop-color="#ffffff"/><stop offset="1" stop-color="#1a1a1a"/></radialGradient><radialGradient cx="243.37603" cy="121.88779" r="2.6" gradientUnits="userSpaceOnUse" id="color-50"><stop offset="0" stop-color="#ffffff"/><stop offset="1" stop-color="#1a1a1a"/></radialGradient><radialGradient cx="391.66133" cy="56.33117" r="2.59999" gradientUnits="userSpaceOnUse" id="color-51"><stop offset="0" stop-color="#ffffff"/><stop offset="1" stop-color="#1a1a1a"/></radialGradient><radialGradient cx="364.0993" cy="36.07446" r="2.6" gradientUnits="userSpaceOnUse" id="color-52"><stop offset="0" stop-color="#ffffff"/><stop offset="1" stop-color="#1a1a1a"/></radialGradient><radialGradient cx="329.73826" cy="150.3606" r="2.6" gradientUnits="userSpaceOnUse" id="color-53"><stop offset="0" stop-color="#ffffff"/><stop offset="1" stop-color="#1a1a1a"/></radialGradient><radialGradient cx="310.51573" cy="100.09635" r="2.6" gradientUnits="userSpaceOnUse" id="color-54"><stop offset="0" stop-color="#ffffff"/><stop offset="1" stop-color="#1a1a1a"/></radialGradient><radialGradient cx="347.63484" cy="98.3153" r="2.6" gradientUnits="userSpaceOnUse" id="color-55"><stop offset="0" stop-color="#ffffff"/><stop offset="1" stop-color="#1a1a1a"/></radialGradient><radialGradient cx="190.26086" cy="115.75381" r="2.59999" gradientUnits="userSpaceOnUse" id="color-56"><stop offset="0" stop-color="#ffffff"/><stop offset="1" stop-color="#1a1a1a"/></radialGradient><radialGradient cx="320.64945" cy="44.29814" r="2.59999" gradientUnits="userSpaceOnUse" id="color-57"><stop offset="0" stop-color="#ffffff"/><stop offset="1" stop-color="#1a1a1a"/></radialGradient><radialGradient cx="437.17066" cy="335.77862" r="2.59999" gradientUnits="userSpaceOnUse" id="color-58"><stop offset="0" stop-color="#ffffff"/><stop offset="1" stop-color="#1a1a1a"/></radialGradient><radialGradient cx="448.66758" cy="281.46985" r="2.6" gradientUnits="userSpaceOnUse" id="color-59"><stop offset="0" stop-color="#ffffff"/><stop offset="1" stop-color="#1a1a1a"/></radialGradient><radialGradient cx="442.93555" cy="203.69476" r="2.6" gradientUnits="userSpaceOnUse" id="color-60"><stop offset="0" stop-color="#ffffff"/><stop offset="1" stop-color="#1a1a1a"/></radialGradient><radialGradient cx="443.43324" cy="164.69793" r="2.6" gradientUnits="userSpaceOnUse" id="color-61"><stop offset="0" stop-color="#ffffff"/><stop offset="1" stop-color="#1a1a1a"/></radialGradient><radialGradient cx="413.43712" cy="232.13969" r="2.6" gradientUnits="userSpaceOnUse" id="color-62"><stop offset="0" stop-color="#ffffff"/><stop offset="1" stop-color="#1a1a1a"/></radialGradient><radialGradient cx="278.18784" cy="38.81954" r="2.6" gradientUnits="userSpaceOnUse" id="color-63"><stop offset="0" stop-color="#ffffff"/><stop offset="1" stop-color="#1a1a1a"/></radialGradient><radialGradient cx="237.47337" cy="28.18031" r="2.59999" gradientUnits="userSpaceOnUse" id="color-64"><stop offset="0" stop-color="#ffffff"/><stop offset="1" stop-color="#1a1a1a"/></radialGradient></defs><g transform="translate(-14.93879,-18.39086)"><g data-paper-data="{&quot;isPaintingLayer&quot;:true}" fill-rule="nonzero" stroke="none" stroke-width="0" stroke-linecap="butt" stroke-linejoin="miter" stroke-miterlimit="10" stroke-dasharray="" stroke-dashoffset="0" style="mix-blend-mode: normal"><path d="M49.5,41.1c0,-1.43594 1.16406,-2.6 2.6,-2.6c1.43594,0 2.6,1.16406 2.6,2.6c0,1.43594 -1.16406,2.6 -2.6,2.6c-1.43594,0 -2.6,-1.16406 -2.6,-2.6z" fill="url(#color-1)"/><path d="M121.97649,36.44472c-1.29495,-0.6205 -1.84171,-2.17328 -1.22121,-3.46823c0.6205,-1.29495 2.17328,-1.84171 3.46823,-1.22121c1.29495,0.6205 1.84171,2.17328 1.22121,3.46823c-0.6205,1.29495 -2.17328,1.84171 -3.46823,1.22121z" fill="url(#color-2)"/><path d="M41.97649,76.44472c-1.29496,-0.6205 -1.84171,-2.17327 -1.22121,-3.46823c0.6205,-1.29496 2.17328,-1.84171 3.46823,-1.22121c1.29495,0.6205 1.84171,2.17327 1.22121,3.46823c-0.6205,1.29495 -2.17328,1.84171 -3.46823,1.22121z" fill="url(#color-3)"/><path d="M85.5,26.1c0,-1.43594 1.16406,-2.6 2.6,-2.6c1.43594,0 2.6,1.16406 2.6,2.6c0,1.43594 -1.16406,2.6 -2.6,2.6c-1.43594,0 -2.6,-1.16406 -2.6,-2.6z" fill="url(#color-4)"/><path d="M160.97649,67.44472c-1.29496,-0.6205 -1.84171,-2.17327 -1.22121,-3.46823c0.6205,-1.29496 2.17328,-1.84171 3.46823,-1.22121c1.29495,0.6205 1.84171,2.17327 1.22121,3.46823c-0.6205,1.29495 -2.17328,1.84171 -3.46823,1.22121z" fill="url(#color-5)"/><path d="M120.97649,103.44472c-1.29496,-0.6205 -1.84171,-2.17328 -1.22121,-3.46823c0.6205,-1.29496 2.17328,-1.84171 3.46823,-1.22121c1.29495,0.6205 1.84171,2.17328 1.22121,3.46823c-0.6205,1.29496 -2.17328,1.84171 -3.46823,1.22121z" fill="url(#color-6)"/><path d="M105.97649,69.44472c-1.29496,-0.6205 -1.84171,-2.17327 -1.22121,-3.46823c0.6205,-1.29496 2.17328,-1.84171 3.46823,-1.22121c1.29495,0.6205 1.84171,2.17327 1.22121,3.46823c-0.6205,1.29495 -2.17328,1.84171 -3.46823,1.22121z" fill="url(#color-7)"/><path d="M87.63958,203.05754c-1.27226,0.66579 -2.84336,0.17414 -3.50915,-1.09812c-0.66579,-1.27226 -0.17414,-2.84336 1.09812,-3.50915c1.27226,-0.66579 2.84336,-0.17414 3.50915,1.09812c0.66579,1.27226 0.17414,2.84336 -1.09812,3.50915z" fill="url(#color-8)"/><path d="M131.44383,189.33559c0.05065,1.43505 -1.07163,2.63944 -2.50668,2.69008c-1.43505,0.05065 -2.63944,-1.07163 -2.69008,-2.50668c-0.05065,-1.43505 1.07163,-2.63944 2.50668,-2.69008c1.43505,-0.05065 2.63944,1.07163 2.69008,2.50668z" fill="url(#color-9)"/><path d="M31.29435,113.07285c0.05065,1.43505 -1.07163,2.63944 -2.50668,2.69008c-1.43505,0.05065 -2.63944,-1.07163 -2.69008,-2.50668c-0.05065,-1.43505 1.07163,-2.63944 2.50668,-2.69008c1.43505,-0.05065 2.63944,1.07163 2.69008,2.50668z" fill="url(#color-10)"/><path d="M81.73719,131.82171c0.05065,1.43505 -1.07163,2.63944 -2.50668,2.69008c-1.43505,0.05065 -2.63944,-1.07163 -2.69008,-2.50668c-0.05065,-1.43505 1.07163,-2.63944 2.50668,-2.69008c1.43505,-0.05065 2.63944,1.07163 2.69008,2.50668z" fill="url(#color-11)"/><path d="M58.56759,160.87631c0.05065,1.43505 -1.07163,2.63944 -2.50668,2.69008c-1.43505,0.05065 -2.63944,-1.07163 -2.69008,-2.50668c-0.05065,-1.43505 1.07163,-2.63944 2.50668,-2.69008c1.43505,-0.05065 2.63944,1.07163 2.69008,2.50668z" fill="url(#color-12)"/><path d="M56.18259,339.56522c-1.28973,0.63128 -2.84702,0.09749 -3.4783,-1.19224c-0.63128,-1.28973 -0.09749,-2.84702 1.19224,-3.4783c1.28973,-0.63128 2.84702,-0.09749 3.4783,1.19224c0.63128,1.28973 0.09749,2.84702 -1.19224,3.4783z" fill="url(#color-13)"/><path d="M20.1387,276.51483c0.01198,1.43589 -1.14233,2.60962 -2.57822,2.62159c-1.43589,0.01198 -2.60962,-1.14233 -2.62159,-2.57822c-0.01198,-1.43589 1.14233,-2.60962 2.57822,-2.62159c1.43589,-0.01198 2.60962,1.14233 2.62159,2.57822z" fill="url(#color-14)"/><path d="M91.23607,330.7842c0.01198,1.43589 -1.14233,2.60962 -2.57822,2.62159c-1.43589,0.01198 -2.60962,-1.14233 -2.62159,-2.57822c-0.01198,-1.43589 1.14233,-2.60962 2.57822,-2.62159c1.43589,-0.01198 2.60962,1.14233 2.62159,2.57822z" fill="url(#color-15)"/><path d="M26.88332,313.82512c-1.28973,0.63128 -2.84702,0.09749 -3.4783,-1.19224c-0.63128,-1.28973 -0.09749,-2.84702 1.19224,-3.4783c1.28973,-0.63128 2.84702,-0.09749 3.4783,1.19224c0.63128,1.28973 0.09749,2.84702 -1.19224,3.4783z" fill="url(#color-16)"/><path d="M30.83685,227.85736c0.01198,1.43589 -1.14233,2.60962 -2.57822,2.62159c-1.43589,0.01198 -2.60962,-1.14233 -2.62159,-2.57822c-0.01198,-1.43589 1.14233,-2.60962 2.57822,-2.62159c1.43589,-0.01198 2.60962,1.14233 2.62159,2.57822z" fill="url(#color-17)"/><path d="M80.75642,247.95801c0.01198,1.43589 -1.14233,2.60962 -2.57822,2.62159c-1.43589,0.01198 -2.60962,-1.14233 -2.62159,-2.57822c-0.01198,-1.43589 1.14233,-2.60962 2.57822,-2.62159c1.43589,-0.01198 2.60962,1.14233 2.62159,2.57822z" fill="url(#color-18)"/><path d="M56.81268,276.37803c0.01198,1.43589 -1.14233,2.60962 -2.57822,2.62159c-1.43589,0.01198 -2.60962,-1.14233 -2.62159,-2.57822c-0.01198,-1.43589 1.14233,-2.60962 2.57822,-2.62159c1.43589,-0.01198 2.60962,1.14233 2.62159,2.57822z" fill="url(#color-19)"/><path d="M216.05386,250.025c1.15732,0.85003 1.40643,2.47729 0.5564,3.63461c-0.85003,1.15732 -2.4773,1.40643 -3.63462,0.5564c-1.15732,-0.85003 -1.40643,-2.47729 -0.5564,-3.63461c0.85003,-1.15732 2.4773,-1.40643 3.63462,-0.5564z" fill="url(#color-20)"/><path d="M192.02091,223.03852c1.26667,-0.67637 2.84181,-0.19785 3.51819,1.06882c0.67637,1.26667 0.19785,2.84181 -1.06882,3.51818c-1.26667,0.67637 -2.8418,0.19785 -3.51818,-1.06882c-0.67637,-1.26667 -0.19786,-2.84181 1.06881,-3.51818z" fill="url(#color-21)"/><path d="M128.8309,324.27598c1.26667,-0.67637 2.8418,-0.19785 3.51818,1.06882c0.67637,1.26667 0.19786,2.84181 -1.06881,3.51818c-1.26667,0.67637 -2.84181,0.19785 -3.51819,-1.06882c-0.67637,-1.26667 -0.19785,-2.84181 1.06882,-3.51818z" fill="url(#color-22)"/><path d="M123.49473,270.7267c1.26667,-0.67637 2.8418,-0.19785 3.51818,1.06882c0.67637,1.26667 0.19786,2.84181 -1.06881,3.51818c-1.26667,0.67637 -2.8418,0.19785 -3.51818,-1.06882c-0.67637,-1.26667 -0.19786,-2.84181 1.06881,-3.51818z" fill="url(#color-23)"/><path d="M159.77698,278.764c1.26667,-0.67637 2.84181,-0.19786 3.51818,1.06881c0.67637,1.26667 0.19786,2.84181 -1.06881,3.51818c-1.26667,0.67637 -2.84181,0.19786 -3.51818,-1.06881c-0.67637,-1.26667 -0.19786,-2.84181 1.06881,-3.51818z" fill="url(#color-24)"/><path d="M351.61734,228.95639c1.31873,-0.56823 2.84841,0.04018 3.41663,1.35891c0.56823,1.31873 -0.04018,2.84841 -1.35891,3.41663c-1.31873,0.56823 -2.84841,-0.04018 -3.41663,-1.35891c-0.56823,-1.31873 0.04018,-2.84841 1.35891,-3.41663z" fill="url(#color-25)"/><path d="M384.57274,293.67466c0.05742,-1.43479 1.26708,-2.55137 2.70188,-2.49396c1.43479,0.05742 2.55138,1.26708 2.49396,2.70188c-0.05742,1.43479 -1.26708,2.55137 -2.70188,2.49396c-1.43479,-0.05742 -2.55138,-1.26708 -2.49396,-2.70188z" fill="url(#color-26)"/><path d="M292.18054,255.03348c0.05742,-1.43479 1.26708,-2.55138 2.70188,-2.49396c1.43479,0.05742 2.55138,1.26708 2.49396,2.70188c-0.05742,1.43479 -1.26708,2.55138 -2.70188,2.49396c-1.43479,-0.05742 -2.55138,-1.26708 -2.49396,-2.70188z" fill="url(#color-27)"/><path d="M379.63872,256.08207c1.31873,-0.56823 2.84841,0.04018 3.41663,1.35891c0.56823,1.31873 -0.04018,2.8484 -1.35891,3.41663c-1.31873,0.56823 -2.84841,-0.04018 -3.41663,-1.35891c-0.56823,-1.31873 0.04018,-2.8484 1.35891,-3.41663z" fill="url(#color-28)"/><path d="M371.53611,341.75841c0.05742,-1.43479 1.26708,-2.55138 2.70188,-2.49396c1.43479,0.05742 2.55137,1.26708 2.49396,2.70188c-0.05742,1.43479 -1.26708,2.55138 -2.70188,2.49396c-1.43479,-0.05742 -2.55137,-1.26708 -2.49396,-2.70188z" fill="url(#color-29)"/><path d="M322.64604,319.26927c0.05742,-1.43479 1.26708,-2.55138 2.70188,-2.49396c1.43479,0.05742 2.55138,1.26708 2.49396,2.70188c-0.05742,1.43479 -1.26708,2.55138 -2.70188,2.49396c-1.43479,-0.05742 -2.55138,-1.26708 -2.49396,-2.70188z" fill="url(#color-30)"/><path d="M347.93498,292.03933c0.05742,-1.43479 1.26708,-2.55138 2.70188,-2.49396c1.43479,0.05742 2.55138,1.26708 2.49396,2.70188c-0.05742,1.43479 -1.26708,2.55138 -2.70188,2.49396c-1.43479,-0.05742 -2.55138,-1.26708 -2.49396,-2.70188z" fill="url(#color-31)"/><path d="M187.60649,310.66755c-1.11489,-0.90495 -1.28509,-2.54236 -0.38014,-3.65725c0.90495,-1.11489 2.54236,-1.28509 3.65725,-0.38014c1.11489,0.90495 1.28509,2.54236 0.38014,3.65725c-0.90495,1.11489 -2.54236,1.28509 -3.65725,0.38014z" fill="url(#color-32)"/><path d="M210.30747,338.78371c-1.29787,0.61438 -2.84805,0.06032 -3.46243,-1.23755c-0.61438,-1.29787 -0.06031,-2.84805 1.23756,-3.46243c1.29787,-0.61438 2.84805,-0.06032 3.46243,1.23755c0.61438,1.29787 0.06032,2.84805 -1.23755,3.46243z" fill="url(#color-33)"/><path d="M353.31515,192.71764c-1.29787,0.61438 -2.84805,0.06032 -3.46243,-1.23755c-0.61438,-1.29787 -0.06032,-2.84805 1.23755,-3.46243c1.29787,-0.61438 2.84805,-0.06031 3.46243,1.23756c0.61438,1.29787 0.06031,2.84805 -1.23756,3.46243z" fill="url(#color-34)"/><path d="M281.05776,294.4622c-1.29787,0.61438 -2.84805,0.06032 -3.46243,-1.23755c-0.61438,-1.29787 -0.06032,-2.84805 1.23755,-3.46243c1.29787,-0.61438 2.84804,-0.06032 3.46242,1.23755c0.61438,1.29787 0.06032,2.84805 -1.23755,3.46243z" fill="url(#color-35)"/><path d="M245.20623,284.68124c-1.29787,0.61438 -2.84805,0.06032 -3.46243,-1.23755c-0.61438,-1.29787 -0.06032,-2.84805 1.23755,-3.46243c1.29787,-0.61438 2.84805,-0.06032 3.46243,1.23755c0.61438,1.29787 0.06032,2.84805 -1.23755,3.46243z" fill="url(#color-36)"/><path d="M276.52854,317.97946c0.7885,-1.20008 2.40056,-1.53373 3.60064,-0.74522c1.20008,0.7885 1.53373,2.40057 0.74522,3.60065c-0.7885,1.20008 -2.40056,1.53373 -3.60064,0.74522c-1.20008,-0.7885 -1.53373,-2.40057 -0.74522,-3.60065z" fill="url(#color-37)"/><path d="M250.83236,343.38731c-0.74152,-1.22967 -0.34581,-2.82762 0.88385,-3.56915c1.22967,-0.74152 2.82762,-0.34581 3.56914,0.88386c0.74152,1.22967 0.34581,2.82762 -0.88385,3.56914c-1.22967,0.74152 -2.82762,0.34581 -3.56914,-0.88385z" fill="url(#color-38)"/><path d="M384.28828,120.37105c-1.3634,-0.45062 -2.10335,-1.92118 -1.65273,-3.28458c0.45062,-1.3634 1.92118,-2.10335 3.28458,-1.65273c1.3634,0.45062 2.10335,1.92118 1.65273,3.28458c-0.45062,1.3634 -1.92118,2.10335 -3.28458,1.65273z" fill="url(#color-39)"/><path d="M415.48649,138.6063c-0.99554,1.03482 -2.64145,1.06666 -3.67627,0.07113c-1.03482,-0.99554 -1.06666,-2.64145 -0.07112,-3.67626c0.99554,-1.03482 2.64145,-1.06666 3.67626,-0.07113c1.03482,0.99554 1.06666,2.64145 0.07113,3.67626z" fill="url(#color-40)"/><path d="M444.28545,22.79343c-0.99554,1.03482 -2.64145,1.06666 -3.67626,0.07113c-1.03482,-0.99554 -1.06666,-2.64145 -0.07113,-3.67627c0.99554,-1.03482 2.64145,-1.06666 3.67627,-0.07112c1.03482,0.99554 1.06666,2.64145 0.07112,3.67626z" fill="url(#color-41)"/><path d="M465.91414,72.0702c-0.99554,1.03482 -2.64145,1.06666 -3.67626,0.07113c-1.03482,-0.99554 -1.06666,-2.64145 -0.07113,-3.67626c0.99554,-1.03482 2.64144,-1.06666 3.67626,-0.07112c1.03482,0.99554 1.06667,2.64144 0.07113,3.67626z" fill="url(#color-42)"/><path d="M428.92444,75.64265c-0.99554,1.03482 -2.64145,1.06666 -3.67627,0.07113c-1.03482,-0.99554 -1.06666,-2.64145 -0.07113,-3.67627c0.99554,-1.03482 2.64145,-1.06666 3.67626,-0.07113c1.03482,0.99554 1.06667,2.64145 0.07113,3.67626z" fill="url(#color-43)"/><path d="M261.87791,182.31494c-1.07848,0.94806 -2.72131,0.84233 -3.66937,-0.23615c-0.94806,-1.07848 -0.84233,-2.72131 0.23615,-3.66937c1.07848,-0.94806 2.72131,-0.84233 3.66936,0.23615c0.94806,1.07848 0.84233,2.72131 -0.23615,3.66936z" fill="url(#color-44)"/><path d="M158.53011,152.9543c0.38894,1.38226 -0.41631,2.8181 -1.79857,3.20704c-1.38226,0.38894 -2.8181,-0.41631 -3.20704,-1.79857c-0.38894,-1.38226 0.41631,-2.8181 1.79857,-3.20704c1.38226,-0.38894 2.8181,0.41631 3.20704,1.79857z" fill="url(#color-45)"/><path d="M293.3912,164.62979c0.38894,1.38226 -0.41631,2.8181 -1.79857,3.20704c-1.38226,0.38894 -2.81811,-0.4163 -3.20705,-1.79856c-0.38894,-1.38226 0.41631,-2.8181 1.79857,-3.20704c1.38226,-0.38894 2.81811,0.4163 3.20705,1.79856z" fill="url(#color-46)"/><path d="M226.8436,165.18027c-1.07848,0.94806 -2.72131,0.84233 -3.66937,-0.23615c-0.94806,-1.07848 -0.84233,-2.72131 0.23615,-3.66936c1.07848,-0.94806 2.72131,-0.84233 3.66936,0.23615c0.94806,1.07848 0.84233,2.7213 -0.23615,3.66936z" fill="url(#color-47)"/><path d="M206.06387,57.1957c0.38894,1.38226 -0.41631,2.8181 -1.79857,3.20704c-1.38226,0.38894 -2.8181,-0.41631 -3.20704,-1.79857c-0.38894,-1.38226 0.41631,-2.8181 1.79857,-3.20704c1.38226,-0.38894 2.8181,0.41631 3.20704,1.79857z" fill="url(#color-48)"/><path d="M261.51139,87.46971c0.38894,1.38226 -0.41631,2.8181 -1.79857,3.20704c-1.38226,0.38894 -2.8181,-0.41631 -3.20704,-1.79857c-0.38894,-1.38226 0.4163,-2.81811 1.79856,-3.20705c1.38226,-0.38894 2.81811,0.41631 3.20704,1.79857z" fill="url(#color-49)"/><path d="M245.87884,121.18356c0.38894,1.38226 -0.41631,2.8181 -1.79857,3.20704c-1.38226,0.38894 -2.8181,-0.41631 -3.20704,-1.79857c-0.38894,-1.38226 0.41631,-2.8181 1.79857,-3.20704c1.38226,-0.38894 2.8181,0.41631 3.20704,1.79857z" fill="url(#color-50)"/><path d="M392.59559,53.90482c1.34004,0.51597 2.00807,2.02056 1.49209,3.3606c-0.51597,1.34004 -2.02057,2.00807 -3.3606,1.4921c-1.34004,-0.51597 -2.00807,-2.02056 -1.49209,-3.3606c0.51597,-1.34004 2.02057,-2.00807 3.3606,-1.4921z" fill="url(#color-51)"/><path d="M362.31489,34.18347c1.04437,-0.98551 2.6899,-0.93779 3.67541,0.10658c0.98551,1.04437 0.93779,2.6899 -0.10658,3.67541c-1.04437,0.98551 -2.6899,0.93779 -3.67541,-0.10658c-0.98551,-1.04437 -0.93779,-2.6899 0.10658,-3.67541z" fill="url(#color-52)"/><path d="M327.95385,148.4696c1.04437,-0.98551 2.6899,-0.93779 3.67541,0.10658c0.98551,1.04437 0.93779,2.6899 -0.10658,3.67541c-1.04437,0.98551 -2.6899,0.93778 -3.67541,-0.10659c-0.98551,-1.04437 -0.93779,-2.6899 0.10658,-3.67541z" fill="url(#color-53)"/><path d="M308.73132,98.20536c1.04437,-0.98551 2.6899,-0.93779 3.67541,0.10658c0.98551,1.04437 0.93779,2.6899 -0.10658,3.67541c-1.04437,0.98551 -2.68989,0.93779 -3.6754,-0.10659c-0.98551,-1.04437 -0.93779,-2.6899 0.10658,-3.6754z" fill="url(#color-54)"/><path d="M345.85042,96.4243c1.04437,-0.98551 2.6899,-0.93779 3.67541,0.10658c0.98551,1.04437 0.93779,2.6899 -0.10658,3.67541c-1.04437,0.98551 -2.6899,0.93779 -3.67541,-0.10658c-0.98551,-1.04437 -0.93779,-2.6899 0.10658,-3.67541z" fill="url(#color-55)"/><path d="M192.76872,116.43987c-0.37889,1.38505 -1.80886,2.2007 -3.1939,1.8218c-1.38505,-0.37889 -2.2007,-1.80886 -1.8218,-3.19391c0.37889,-1.38505 1.80886,-2.2007 3.1939,-1.8218c1.38505,0.37889 2.2007,1.80886 1.8218,3.19391z" fill="url(#color-56)"/><path d="M322.35183,42.33297c1.08534,0.9402 1.20299,2.58222 0.26279,3.66755c-0.9402,1.08534 -2.58221,1.20298 -3.66755,0.26278c-1.08534,-0.9402 -1.20299,-2.58221 -0.26278,-3.66755c0.9402,-1.08534 2.58221,-1.20299 3.66755,-0.26278z" fill="url(#color-57)"/><path d="M434.57274,335.67466c0.05741,-1.43479 1.26708,-2.55137 2.70187,-2.49396c1.43479,0.05741 2.55138,1.26709 2.49396,2.70188c-0.05741,1.43479 -1.26708,2.55137 -2.70187,2.49395c-1.43479,-0.05741 -2.55138,-1.26708 -2.49396,-2.70187z" fill="url(#color-58)"/><path d="M447.63872,279.08207c1.31873,-0.56823 2.84841,0.04018 3.41663,1.35891c0.56822,1.31873 -0.04018,2.84841 -1.35891,3.41663c-1.31873,0.56822 -2.84841,-0.04018 -3.41663,-1.35891c-0.56822,-1.31873 0.04017,-2.8484 1.3589,-3.41663z" fill="url(#color-59)"/><path d="M441.90501,206.0818c-1.31833,-0.56916 -1.92566,-2.09926 -1.3565,-3.41759c0.56916,-1.31833 2.09926,-1.92565 3.41759,-1.3565c1.31833,0.56916 1.92565,2.09926 1.3565,3.41759c-0.56916,1.31833 -2.09926,1.92565 -3.41759,1.3565z" fill="url(#color-60)"/><path d="M442.40269,167.08497c-1.31833,-0.56916 -1.92566,-2.09926 -1.3565,-3.41759c0.56916,-1.31833 2.09926,-1.92565 3.41759,-1.3565c1.31833,0.56916 1.92565,2.09926 1.3565,3.41759c-0.56916,1.31833 -2.09925,1.92565 -3.41758,1.3565z" fill="url(#color-61)"/><path d="M414.38284,229.71779c1.33759,0.5223 1.9985,2.03003 1.47619,3.36761c-0.5223,1.33759 -2.03003,1.9985 -3.36762,1.47619c-1.33759,-0.5223 -1.99849,-2.03003 -1.47619,-3.36762c0.5223,-1.33759 2.03003,-1.9985 3.36761,-1.47619z" fill="url(#color-62)"/><path d="M280.18242,37.15172c0.92111,1.10158 0.77482,2.74129 -0.32676,3.6624c-1.10158,0.92111 -2.74129,0.77482 -3.6624,-0.32676c-0.92111,-1.10158 -0.77482,-2.74129 0.32676,-3.6624c1.10158,-0.92111 2.74129,-0.77482 3.6624,0.32676z" fill="url(#color-63)"/><path d="M234.90385,27.78341c0.2192,-1.41911 1.54732,-2.39182 2.96643,-2.17262c1.41911,0.2192 2.39182,1.54732 2.17261,2.96643c-0.2192,1.41911 -1.54731,2.39182 -2.96642,2.17262c-1.41911,-0.2192 -2.39182,-1.54731 -2.17262,-2.96642z" fill="url(#color-64)"/></g></g></svg>