<svg version="1.1" xmlns="http://www.w3.org/2000/svg" xmlns:xlink="http://www.w3.org/1999/xlink" width="432.02393" height="51.20085" viewBox="0,0,432.02393,51.20085"><g transform="translate(-23.4,-155.39915)"><g data-paper-data="{&quot;isPaintingLayer&quot;:true}" fill="#ffffff" fill-rule="nonzero" stroke="none" stroke-width="none" stroke-linecap="butt" stroke-linejoin="miter" stroke-miterlimit="10" stroke-dasharray="" stroke-dashoffset="0" font-family="none" font-weight="none" font-size="none" text-anchor="none" style="mix-blend-mode: normal"><path d="M23.4,155.5h5.24702c-1.04106,1.5779 -1.64702,3.46818 -1.64702,5.5c0,0.29168 0.01249,0.58043 0.03696,0.86577c-0.23202,0.37984 -0.34651,1.09649 -0.41855,2.33423c-0.12222,2.5 -0.28518,2.8 -1.5481,2.8h-1.42588l-0.12222,-5.8z" data-paper-data="{&quot;origPos&quot;:null}" stroke-width="1"/><path d="M31.95261,173.32361c-1.07019,0.15745 -2.12839,0.36134 -3.17008,0.62334l-0.02674,-7.28552c0.83571,1.21464 1.9329,2.23541 3.21033,2.98107z" data-paper-data="{&quot;origPos&quot;:null}" stroke-width="1"/><path d="M31.79231,206h-2.85176l-0.06594,-12.03063c1.16523,0.07409 2.21528,-0.03938 2.98459,-0.17484z" data-paper-data="{&quot;origPos&quot;:null}" stroke-width="1"/><path d="" data-paper-data="{&quot;origPos&quot;:null}" stroke-width="1"/><path d="M91.88285,174.74289c-0.81936,0.28871 -1.63362,0.59018 -2.42985,0.9366c-0.22839,0.09937 -0.54503,0.18685 -0.8293,0.29723v-11.6535c1.22092,-0.47488 2.32549,-1.18267 3.25915,-2.06879z" data-paper-data="{&quot;origPos&quot;:null}" stroke-width="1"/><path d="M94.28647,161.5l-1.68688,0c0.95715,-1.11801 1.67187,-2.44971 2.06274,-3.91367c0.45702,1.18919 1.13468,2.26896 1.98284,3.18917c-0.54541,0.46674 -1.34121,0.7245 -2.35869,0.7245z" data-paper-data="{&quot;origPos&quot;:null}" stroke-width="1"/><path d="" data-paper-data="{&quot;origPos&quot;:null}" stroke-width="1"/><path d="M115.49224,189.02864c-0.0952,0.42838 1.01821,-0.02864 1.50776,-0.02864c0.02819,0 0.05638,0 0.08457,0l0.00322,1c-2.02926,0 -4.05853,0 -6.08779,0c1.51459,-0.23033 3.00433,-0.60515 4.49224,-0.97136z" data-paper-data="{&quot;origPos&quot;:null}" stroke-width="1"/><path d="M110.01185,168.7c0.05207,0.29423 0.10339,0.58451 0.15399,0.87084c-0.46309,0.03638 -0.91246,0.10828 -0.83596,0.41546c-2.21062,0.06916 -3.4835,0.54388 -5.98812,1.56735l-0.02449,-7.57659c0.22561,0.01521 0.45327,0.02294 0.68273,0.02294c1.79568,0 3.48082,-0.4733 4.93747,-1.30195z" data-paper-data="{&quot;origPos&quot;:null}" stroke-width="1"/><path d="" data-paper-data="{&quot;origPos&quot;:null}" stroke-width="1"/><path d="M114.08579,156l1.37201,0c0.33508,1.06686 0.84414,2.05668 1.49393,2.93619l0.04813,9.96258c-0.50184,0.02642 -1.00193,0.05976 -1.49986,0.10123c-0.52705,0.04389 -1.05449,0.08778 -1.58145,0.13647z" data-paper-data="{&quot;origPos&quot;:null}" stroke-width="1"/><path d="M136.89982,156v5l-5.1739,0.3l-1.25518,0.07221c1.94295,-1.27219 3.41613,-3.20247 4.10288,-5.47417z" data-paper-data="{&quot;origPos&quot;:null}" stroke-width="1"/><path d="M126.51128,168.92398c-1.06985,-0.02863 -2.14311,-0.05957 -3.21601,-0.0817l-0.01936,-5.99035c0.56009,0.09733 1.13617,0.14807 1.72409,0.14807c0.51373,0 1.01841,-0.03874 1.51128,-0.11345z" data-paper-data="{&quot;origPos&quot;:null}" stroke-width="1"/><path d="M123.3737,189c1.02851,0 2.05703,0 3.08554,0l-0.00892,1c-1.02393,0 -2.04786,0 -3.07179,0z" data-paper-data="{&quot;origPos&quot;:null}" stroke-width="1"/><path d="M148.51054,187.70512c0.20168,-0.0677 0.41742,-0.14018 0.65174,-0.21829c0.44236,-0.14745 0.88471,-0.2949 1.32707,-0.44236c-0.05462,0.35267 0.75735,0.17378 1.28034,0.02453v0.7484c-0.90096,0.45019 -1.77893,0.91511 -2.62265,1.39437c-0.21233,0.02199 -0.42451,0.04515 -0.6365,0.06978z" data-paper-data="{&quot;origPos&quot;:null}" stroke-width="1"/><path d="M150.05863,155.5c5.29612,0 6.59977,0.3 7.00717,1.5c0.937,2.7 -0.2037,4.5 -2.89249,4.5h-2.40362l0,4.55981c-0.77732,0.18786 -1.55021,0.39267 -2.31669,0.61969c-0.22907,0.06784 -0.60732,0.22794 -0.94246,0.40093v-5.58043h-2.44436c-2.56658,0 -3.21841,-1.1 -2.6888,-4.5c0.16296,-1.2 1.30366,-1.5 6.68125,-1.5z" data-paper-data="{&quot;origPos&quot;:null}" stroke-width="1"/><path d="M177.02809,206.6l-4.15542,-0.6l-0.76039,-4.30727c1.64614,-0.48247 3.26272,-1.06772 4.89486,-1.59888z" data-paper-data="{&quot;origPos&quot;:null}" stroke-width="1"/><path d="M166.23215,206h-2.85176l-0.0061,-1.26311c0.98003,-0.36075 1.93891,-0.7802 2.88762,-1.22043z" data-paper-data="{&quot;origPos&quot;:null}" stroke-width="1"/><path d="M163.1767,155.5h4.35911l1.24285,6.94304c-0.73776,0.06853 -1.47394,0.17302 -2.20401,0.35554c-1.11717,0.28778 -2.24377,0.52697 -3.37189,0.75919z" data-paper-data="{&quot;origPos&quot;:null}" stroke-width="1"/><path d="M173.97263,156h2.85176l0.02431,5.0317c-1.05327,0.21536 -2.32284,0.4858 -2.94854,0.66052z" data-paper-data="{&quot;origPos&quot;:null}" stroke-width="1"/><path d="M174,162c-0.03465,0.00649 -0.06931,0.01284 -0.104,0.01904l0.001,-0.0782c0.09604,0.02651 0.16051,0.04838 0.103,0.05916z" data-paper-data="{&quot;origPos&quot;:null}" stroke-width="1"/><path d="M191.69425,200.5h2.40362c2.6888,0 3.8295,1.8 2.89249,4.5c-0.44813,1.3 -1.58883,1.5 -7.08865,1.3l-6.55903,-0.3v-2.5c0,-2.4 0.12222,-2.5 2.56658,-2.8l2.52584,-0.3l0,-1.34659c1.06955,0.04145 2.16098,0.10082 3.25915,0.15511z" data-paper-data="{&quot;origPos&quot;:null}" stroke-width="1"/><path d="M191.69425,178.22226v0.77774c-0.39808,0 -0.79617,0 -1.19425,0c-0.36176,0 -0.72285,-0.00105 -1.08326,-0.00266c0.76275,-0.24764 1.52163,-0.50765 2.27751,-0.77507z" data-paper-data="{&quot;origPos&quot;:null}" stroke-width="1"/><path d="M189.98319,155.5c4.68821,0 6.24789,0.23508 6.82677,1.12144c-1.1492,0.35472 -2.27137,0.74774 -3.23532,1.17714c-0.1433,0.06384 0.58097,0.18152 0.42536,0.20143c-2.82289,0.3611 -5.7065,0.38466 -8.47214,1.05573c-0.72209,0.17521 -2.32336,0.33236 -2.00305,0.99381c-0.08019,0.00502 -0.16037,0.01028 -0.24054,0.01578c-0.21726,-0.70149 -0.19544,-1.6972 0.01767,-3.06532c0.16296,-1.2 1.30366,-1.5 6.68125,-1.5z" data-paper-data="{&quot;origPos&quot;:null}" stroke-width="1"/><path d="M211.45283,206h-2.85176l-0.04933,-9.00058c0.99136,-0.35993 1.97425,-0.75271 2.95686,-1.17477z" data-paper-data="{&quot;origPos&quot;:null}" stroke-width="1"/><path d="M208.44387,174.16801c1.0694,-0.23521 2.14248,-0.35303 3.16701,-0.22792l-0.00258,0.70209c-1.04737,0.34958 -2.10624,0.63856 -3.1592,0.95098z" data-paper-data="{&quot;origPos&quot;:null}" stroke-width="1"/><path d="M231.53733,194.2c-0.12222,11.5 -0.16296,11.8 -1.05922,12.1c-1.83327,0.7 -2.11845,-1.2 -2.11845,-13.3v-3c1.0736,0 2.1472,0 3.22081,0z" data-paper-data="{&quot;origPos&quot;:null}" stroke-width="1"/><path d="M276.758,203.9c-0.12222,2.4 -1.67031,3.4 -2.56658,1.6c-0.28518,-0.6 -0.77405,-3.3 -1.05922,-6.1l-0.52961,-4.9l-3.00301,0c-0.92769,-1.08361 -2.08312,-1.96646 -3.39212,-2.57442c1.69106,-0.32502 3.36576,-0.98705 4.95481,-1.43874c1.40138,-0.39834 2.80295,-0.77846 4.19995,-1.1734c0.82707,7.62694 1.44124,13.80535 1.39578,14.58657z" data-paper-data="{&quot;origPos&quot;:null}" stroke-width="0.5"/><path d="M266.83626,170.61064c0.16074,0.09313 0.32202,0.18533 0.4838,0.2767c-0.17796,0.04241 -0.35599,0.08459 -0.53396,0.127c0.01665,-0.13403 0.03337,-0.26859 0.05016,-0.4037z" data-paper-data="{&quot;origPos&quot;:null}" stroke-width="0.5"/><path d="M290.5279,194c-0.26451,-1.47765 -0.54127,-3.01043 -0.81748,-4.52989c0.04543,0.00482 0.08814,0.01029 0.1273,0.01673c1.22636,0.20163 2.46451,0.32498 3.7034,0.43226c-0.00454,0.00819 -0.00896,0.01658 -0.01326,0.02517c-0.33333,0.66667 1.31394,0.70866 2,1c0.36634,0.15557 0.78069,0.34542 1.22527,0.55405l0.03433,10.66097c-0.57998,-0.10465 -1.17734,-0.1593 -1.78747,-0.1593c-1.03788,0 -2.03883,0.15811 -2.98008,0.45157z" data-paper-data="{&quot;origPos&quot;:null}" stroke-width="1"/><path d="M286.00583,206h-2.85176l-0.08595,-17.79217c1.02542,0.28054 2.08128,0.45157 3.14401,0.57545z" data-paper-data="{&quot;origPos&quot;:null}" stroke-width="1"/><path d="M293.74631,156h2.85176l0.03217,6.65884c-0.9502,-0.46666 -1.92815,-0.9002 -2.95234,-1.28538z" data-paper-data="{&quot;origPos&quot;:null}" stroke-width="1"/><path d="M282.95038,155.5h4.35911l0.40287,2.25062c-1.51024,-0.70388 -3.31391,-1.34335 -4.7609,-1.91547z" data-paper-data="{&quot;origPos&quot;:null}" stroke-width="1"/><path d="M311.87532,205.2c-0.65183,0.9 -2.36288,1.2 -4.88872,1.1c-3.8295,-0.3 -3.87024,-0.3 -3.87024,-2.8c0,-2 0.24444,-2.6 1.1407,-2.8l1.09996,-0.3l0,-5.96243c1.54801,0.18006 3.11303,0.27567 4.64298,0.56243c0.15419,0.0289 -0.56866,0.13759 -0.42536,0.20143c1.59115,0.70878 3.33215,0.65409 5.04691,0.6616c-0.9639,4.55572 -2.04105,8.47148 -2.74624,9.33697z" data-paper-data="{&quot;origPos&quot;:null}" stroke-width="1"/><path d="M346.09637,161.5h2.85175c2.32214,0 3.01471,0.4 3.66654,2c0.34898,0.85663 0.59184,2.01721 0.71689,3.45312c-1.1555,-0.14392 -2.38083,-0.53551 -3.33155,0.04688c-0.36114,0.22122 1.58546,0.49667 1.16228,0.51317c-1.73998,0.06784 -3.37705,-0.76902 -5.06591,-1.25841z" data-paper-data="{&quot;origPos&quot;:null}" stroke-width="0.5"/><path d="M347.72594,206.5h-4.88872v-6.13823c0.23649,0.0296 0.51502,0.03818 0.74622,0.07042c0.0358,0.04172 0.06817,0.08027 0.09605,0.11481c0.70803,0.87681 1.48547,1.69554 2.24944,2.52407c1.0795,1.17073 2.18261,2.30473 3.32045,3.39715c-0.46778,0.02224 -0.97402,0.03178 -1.52344,0.03178z" data-paper-data="{&quot;origPos&quot;:null}" stroke-width="0.5"/><path d="M362.7995,155.5h6.68125c5.41833,0 6.76273,0.3 7.17013,1.5c0.40739,1.2 0.40739,1.8 0,3c-0.40739,1.2 -1.5481,1.5 -5.54055,1.5h-5.05168v6.58742c-0.67309,0.02849 -1.29576,0.06417 -1.71096,0.10736c-0.26449,-0.07377 -0.52446,-0.14209 -0.68541,-0.18161c-0.28742,-0.07058 -0.57497,-0.14104 -0.86278,-0.21064z" data-paper-data="{&quot;origPos&quot;:null}" stroke-width="1"/><path d="" data-paper-data="{&quot;origPos&quot;:null}" stroke-width="1"/><path d="" data-paper-data="{&quot;origPos&quot;:null}" stroke-width="0.5"/><path d="M422.68634,155.5h4.35911l2.36288,13.2c0.13289,0.75093 0.26093,1.47611 0.38432,2.17569c-2.37209,0.09278 -4.72909,0.28038 -7.05458,0.62412z" data-paper-data="{&quot;origPos&quot;:null}" stroke-width="1"/><path d="M433.48227,156h2.85176l0.07156,14.81318c-1.03768,-0.01315 -2.07538,-0.01911 -3.11175,-0.01281z" data-paper-data="{&quot;origPos&quot;:null}" stroke-width="1"/><path d="M436.53773,206.6l-4.15542,-0.6l-0.35432,-2.00704c0.3885,-0.15633 0.76738,-0.32445 1.13429,-0.50612c1.18152,-0.58505 2.29628,-1.2243 3.35928,-1.90714z" data-paper-data="{&quot;origPos&quot;:null}" stroke-width="1"/><path d="M425.74179,206l-1.68812,0c0.55616,-0.10425 1.12204,-0.20948 1.69196,-0.31994z" data-paper-data="{&quot;origPos&quot;:null}" stroke-width="1"/><path d="M451.61128,205.2c-0.65183,0.9 -2.36288,1.2 -4.88872,1.1c-3.8295,-0.3 -3.87024,-0.3 -3.87024,-2.8c0,-2 0.24444,-2.6 1.1407,-2.8l1.09996,-0.3l0,-5.85335c1.22573,-1.17241 2.43845,-2.3672 3.67767,-3.55634c2.33581,-0.03904 4.26417,-0.20797 6.65328,-0.71845c-1.11408,6.54717 -2.82682,13.71822 -3.81265,14.92814z" data-paper-data="{&quot;origPos&quot;:null}" stroke-width="1"/><path d="M451.93719,157.1c0.38839,0.66993 0.87956,2.22948 1.39476,4.2647c-0.14459,0.18203 -0.27965,0.36968 -0.40302,0.56423c-0.07663,0.12085 0.33073,-0.13807 0.48596,-0.23335c0.00092,0.00369 0.00183,0.00737 0.00275,0.01106c-1.08966,0.83515 -2.23064,1.57767 -3.36714,2.32188c-0.38709,0.25347 -0.77365,0.50714 -1.15749,0.76474c-1.32992,0.8925 -2.62716,1.8321 -3.80002,2.97382v-6.26709h-1.01848c-1.09996,0 -1.67031,-2 -1.26292,-4.5c0.32591,-2.2 7.82195,-2.1 9.12561,0.1z" data-paper-data="{&quot;origPos&quot;:null}" stroke-width="1"/></g></g></svg>