<svg version="1.1" xmlns="http://www.w3.org/2000/svg" xmlns:xlink="http://www.w3.org/1999/xlink" width="179.75734" height="194.68508" viewBox="0,0,179.75734,194.68508"><defs><linearGradient x1="269.25734" y1="158.26172" x2="334.25734" y2="158.26172" gradientUnits="userSpaceOnUse" id="color-1"><stop offset="0" stop-color="#000000"/><stop offset="1" stop-color="#ffffff"/></linearGradient><linearGradient x1="301.75734" y1="121.60758" x2="301.75734" y2="194.91585" gradientUnits="userSpaceOnUse" id="color-2"><stop offset="0" stop-color="#ffad84"/><stop offset="1" stop-color="#ffd486"/></linearGradient><linearGradient x1="261.49892" y1="119.01113" x2="259.51576" y2="200.32058" gradientUnits="userSpaceOnUse" id="color-3"><stop offset="0" stop-color="#000000"/><stop offset="1" stop-color="#ffffff"/></linearGradient><linearGradient x1="222.50109" y1="158.73887" x2="298.51361" y2="160.59283" gradientUnits="userSpaceOnUse" id="color-4"><stop offset="0" stop-color="#ffaa83"/><stop offset="1" stop-color="#ffd486"/></linearGradient><linearGradient x1="261.50734" y1="172.81831" x2="261.50734" y2="234.0134" gradientUnits="userSpaceOnUse" id="color-5"><stop offset="0" stop-color="#ffffff" stop-opacity="0"/><stop offset="1" stop-color="#ffffff"/></linearGradient><linearGradient x1="261.50734" y1="172.81831" x2="261.50734" y2="234.0134" gradientUnits="userSpaceOnUse" id="color-6"><stop offset="0" stop-color="#ffaa83"/><stop offset="1" stop-color="#ffd486"/></linearGradient><linearGradient x1="219.25" y1="76" x2="219.25" y2="93" gradientUnits="userSpaceOnUse" id="color-7"><stop offset="0" stop-color="#ffaa83"/><stop offset="1" stop-color="#ffd486"/></linearGradient><linearGradient x1="199.5" y1="143" x2="199.5" y2="168.5" gradientUnits="userSpaceOnUse" id="color-8"><stop offset="0" stop-color="#ffaa83"/><stop offset="1" stop-color="#ffd486"/></linearGradient><linearGradient x1="214.48529" y1="135" x2="214.48529" y2="150" gradientUnits="userSpaceOnUse" id="color-9"><stop offset="0" stop-color="#ffaa83"/><stop offset="1" stop-color="#ffd486"/></linearGradient><linearGradient x1="246.83824" y1="108.23077" x2="246.83824" y2="115" gradientUnits="userSpaceOnUse" id="color-10"><stop offset="0" stop-color="#ffaa83"/><stop offset="1" stop-color="#ffd486"/></linearGradient><linearGradient x1="245.63235" y1="71.23077" x2="245.63235" y2="84" gradientUnits="userSpaceOnUse" id="color-11"><stop offset="0" stop-color="#ffaa83"/><stop offset="1" stop-color="#ffd486"/></linearGradient><linearGradient x1="281.32353" y1="88.73077" x2="281.32353" y2="102" gradientUnits="userSpaceOnUse" id="color-12"><stop offset="0" stop-color="#ffaa83"/><stop offset="1" stop-color="#ffd486"/></linearGradient><linearGradient x1="190.35294" y1="73.5" x2="190.35294" y2="96" gradientUnits="userSpaceOnUse" id="color-13"><stop offset="0" stop-color="#ffaa83"/><stop offset="1" stop-color="#ffd486"/></linearGradient><linearGradient x1="187.05882" y1="103.5" x2="187.05882" y2="120" gradientUnits="userSpaceOnUse" id="color-14"><stop offset="0" stop-color="#ffaa83"/><stop offset="1" stop-color="#ffd486"/></linearGradient></defs><g transform="translate(-175.75,-66.23077)"><g data-paper-data="{&quot;isPaintingLayer&quot;:true}" fill-rule="nonzero" stroke-linejoin="miter" stroke-miterlimit="10" stroke-dasharray="" stroke-dashoffset="0" style="mix-blend-mode: normal"><path d="M278.50734,222.41585c0,-21.26296 17.23704,-38.5 38.5,-38.5c21.26296,0 38.5,17.23704 38.5,38.5c0,21.26296 -17.23704,38.5 -38.5,38.5c-21.26296,0 -38.5,-17.23704 -38.5,-38.5z" fill="#ffd486" stroke="none" stroke-width="0" stroke-linecap="butt"/><path d="M269.25734,121.60758l65,73.30827" fill="url(#color-1)" stroke="url(#color-2)" stroke-width="15" stroke-linecap="round"/><path d="M223.49266,118.08415l74.02937,83.16341" fill="url(#color-3)" stroke="url(#color-4)" stroke-width="15" stroke-linecap="round"/><path d="M233.86493,172.81831l55.28482,61.19509" fill="url(#color-5)" stroke="url(#color-6)" stroke-width="15" stroke-linecap="round"/><path d="M293.50734,221.91585c0,-12.97869 10.52131,-23.5 23.5,-23.5c12.97869,0 23.5,10.52131 23.5,23.5c0,12.97869 -10.52131,23.5 -23.5,23.5c-12.97869,0 -23.5,-10.52131 -23.5,-23.5z" fill="#f5f5f5" stroke="none" stroke-width="0" stroke-linecap="butt"/><path d="M212.75,76l13,17" fill="none" stroke="url(#color-7)" stroke-width="10" stroke-linecap="round"/><path d="M189.75,143l19.5,25.5" fill="none" stroke="url(#color-8)" stroke-width="10" stroke-linecap="round"/><path d="M208.75,135l11.47059,15" fill="none" stroke="url(#color-9)" stroke-width="10" stroke-linecap="round"/><path d="M244.25,108.23077l5.17647,6.76923" fill="none" stroke="url(#color-10)" stroke-width="10" stroke-linecap="round"/><path d="M250.51471,84l-9.76471,-12.76923" fill="none" stroke="url(#color-11)" stroke-width="10" stroke-linecap="round"/><path d="M286.39706,102l-10.14706,-13.26923" fill="none" stroke="url(#color-12)" stroke-width="10" stroke-linecap="round"/><path d="M198.95588,96l-17.20588,-22.5" fill="none" stroke="url(#color-13)" stroke-width="10" stroke-linecap="round"/><path d="M193.36765,120l-12.61765,-16.5" fill="none" stroke="url(#color-14)" stroke-width="10" stroke-linecap="round"/></g></g></svg>