<svg version="1.1" xmlns="http://www.w3.org/2000/svg" xmlns:xlink="http://www.w3.org/1999/xlink" width="470.9353" height="22.35713" viewBox="0,0,470.9353,22.35713"><g transform="translate(-5.05771,-169.19304)"><g data-paper-data="{&quot;isPaintingLayer&quot;:true}" fill="#ffffff" fill-rule="nonzero" stroke="none" stroke-width="1" stroke-linecap="butt" stroke-linejoin="miter" stroke-miterlimit="10" stroke-dasharray="" stroke-dashoffset="0" font-family="none" font-weight="none" font-size="none" text-anchor="none" style="mix-blend-mode: normal"><path d="M7.22839,169.19798c1.29068,0 1.34935,0.11733 1.34935,5.57337v5.57338h-1.76002h-1.76001v-5.16271c0,-2.87469 0.176,-5.39738 0.41067,-5.57337c0.176,-0.23467 0.99733,-0.41067 1.76001,-0.41067z" data-paper-data="{&quot;origPos&quot;:null}"/><path d="M34.39129,169.19798c1.58402,0 1.64268,0.11733 4.51737,10.38408c1.64268,5.74938 2.81602,10.79475 2.64002,11.20542c-0.11733,0.41067 -0.93868,0.704 -1.81868,0.58667c-1.23201,-0.11733 -1.64268,-0.58667 -2.05335,-2.40535c-0.52801,-2.11202 -0.58668,-2.17068 -3.34403,-2.17068c-2.81602,0 -2.81602,0 -3.46136,2.34668c-0.52801,1.93601 -0.88001,2.34669 -2.11202,2.34669c-2.11201,0 -2.22935,-1.17334 -0.64533,-6.57072l1.40801,-4.86937l2.11202,-0.176c2.11201,-0.176 2.17068,-0.176 1.58401,1.34934c-0.88,2.34669 -0.76267,2.64002 1.17334,2.64002c0.99734,0 1.76002,-0.05867 1.76002,-0.176c0,-0.05866 -0.41067,-1.40801 -0.88001,-2.99202c-0.46934,-1.58401 -0.88001,-4.16537 -0.88001,-5.74938c0,-2.40536 -0.176,-2.81603 -1.17334,-2.81603c-1.23201,0 -1.40801,-0.46934 -0.82134,-1.99468c0.23467,-0.52801 1.05601,-0.93867 1.99468,-0.93867z" data-paper-data="{&quot;origPos&quot;:null}"/><path d="M50.64209,169.19798c1.34934,0 1.34934,0.11733 1.34934,6.16005v6.16005h-1.76002h-1.76002v-5.74938c0,-3.16802 0.176,-5.98405 0.41067,-6.16005c0.176,-0.23467 0.99734,-0.41067 1.76002,-0.41067z" data-paper-data="{&quot;origPos&quot;:null}"/><path d="M61.78885,169.31531l1.64268,0.17601v9.85608c0,9.68008 0,9.91475 -1.40801,11.02942c-1.05601,0.88001 -2.28802,1.11468 -6.10138,1.11468c-4.04803,0 -4.92804,-0.176 -6.10138,-1.29067c-1.93601,-1.81868 -1.76001,-3.40269 0.35201,-3.40269c0.93868,0 1.99468,0.41067 2.40535,0.88c0.58667,0.704 1.64269,0.88001 3.7547,0.76268l2.99202,-0.17601l0.176,-8.80007c0.05866,-4.86937 0.23467,-9.15207 0.41067,-9.56275c0.176,-0.46934 0.93867,-0.70401 1.87735,-0.58668z" data-paper-data="{&quot;origPos&quot;:null}"/><path d="M70.17828,169.19798h2.46402h2.52269l1.99469,4.8107c1.11468,2.69869 2.34668,5.80805 2.75735,6.92273c0.64534,1.87735 0.82134,1.99468 3.10936,1.81868l2.40535,-0.176v4.4587v4.4587h-2.58136h-2.58136l-2.87469,-6.80539l-2.81602,-6.86406l-0.11733,5.51471c-0.23467,7.56806 -0.41067,8.27207 -2.40535,8.0374l-1.58401,-0.176l-0.17601,-11.02943z" data-paper-data="{&quot;origPos&quot;:null}"/><path d="M83.67172,169.31531c1.17334,0.11733 1.52535,0.52801 1.64268,2.05335c0.176,1.87735 0.11734,1.93602 -1.87735,1.93602c-1.93601,0 -2.11202,-0.176 -2.11202,-1.64268c0,-0.93867 0.176,-1.87735 0.41067,-2.11202c0.23467,-0.23467 1.11468,-0.35201 1.93602,-0.23467z" data-paper-data="{&quot;origPos&quot;:null}"/><path d="M102.44521,169.37398c3.98937,0.11733 4.40004,0.23467 4.40004,1.29067c0,1.05601 -0.46934,1.17335 -3.69603,1.34934c-3.57869,0.176 -3.69603,0.23467 -4.6347,2.17069c-0.82134,1.76002 -1.29068,2.05335 -2.93336,2.05335c-1.05601,0 -1.93601,-0.11734 -1.93601,-0.29334c0,-0.88001 2.99202,-6.10138 3.63736,-6.33605c0.41067,-0.176 2.75736,-0.29333 5.16271,-0.23467z" data-paper-data="{&quot;origPos&quot;:null}"/><path d="M115.76266,169.19798c0.93868,0 1.34934,0.352 1.34934,1.17334c0,0.93867 -0.41067,1.17334 -1.76001,1.17334c-1.64268,0 -2.34668,-0.99734 -1.34934,-1.93601c0.176,-0.23467 0.99734,-0.41067 1.76001,-0.41067z" data-paper-data="{&quot;origPos&quot;:null}"/><path d="M128.4934,170.13665c0.52801,1.40801 0.41067,19.77083 -0.176,20.65084c-0.23467,0.46934 -1.11468,0.704 -1.87735,0.58667c-1.34934,-0.176 -1.40801,-0.41067 -1.58401,-4.75204l-0.17601,-4.51737h-3.75469h-3.81337v4.75204v4.69338l-1.58401,-0.17601l-1.64268,-0.176l-0.176,-7.5094l-0.17601,-7.45073h1.81869c1.46668,0 1.76001,0.23467 1.76001,1.46668c0,1.40801 0.11734,1.46668 3.81337,1.46668h3.81337v-4.57604c0,-2.52269 0.176,-4.81071 0.41067,-4.98671c0.704,-0.76268 2.99202,-0.41067 3.34402,0.528z" data-paper-data="{&quot;origPos&quot;:null}"/><path d="M159.17632,169.19798c1.34934,0 1.34934,0.11733 1.34934,5.86671v5.86671h-1.76002h-1.76002v-5.45605c0,-3.05069 0.176,-5.69072 0.41067,-5.86671c0.176,-0.23467 0.99734,-0.41067 1.76002,-0.41067z" data-paper-data="{&quot;origPos&quot;:null}"/><path d="M170.49908,169.31531l1.46668,0.17601l0.176,9.26941c0.11733,8.62407 0.05867,9.38674 -1.056,11.02943c-1.23201,1.70135 -1.34935,1.70135 -6.74673,1.70135c-5.51471,0 -5.51471,0 -6.45338,-1.76001c-1.40801,-2.75735 -1.17334,-4.1067 0.82134,-4.1067c1.17335,0 1.76001,0.35201 1.99468,1.17335c0.41067,1.46668 1.40801,1.52534 1.87735,0.05866c0.176,-0.64534 0.93867,-1.23201 1.64268,-1.34934c0.93867,-0.11733 1.34934,-0.64534 1.46668,-1.76002c0.176,-1.29067 -0.11733,-1.76001 -1.29067,-2.22935c-1.29067,-0.46934 -1.52535,-0.93867 -1.52535,-2.93336c0,-2.28802 0.05867,-2.40535 1.64269,-2.22935c1.58401,0.176 1.58401,0.17601 1.87735,5.69072c0.176,3.69603 0.528,5.63205 1.05601,5.80804c0.52801,0.176 0.704,-1.87735 0.704,-8.85874c0,-4.92804 0.176,-9.21074 0.41067,-9.44541c0.23467,-0.23467 1.11468,-0.35201 1.93601,-0.23467z" data-paper-data="{&quot;origPos&quot;:null}"/><path d="M184.28588,169.19798c4.92804,0 4.98671,-0.00001 4.98671,1.46667c0,0.82134 -0.23467,1.46668 -0.58667,1.46668c-0.352,0 -0.58667,3.10936 -0.58667,8.15474v8.2134l2.81602,0.176c2.28802,0.176 2.75736,0.352 2.75736,1.34934c0,1.11468 -0.41067,1.17335 -7.33339,1.17335c-6.92272,0 -7.33339,-0.05867 -7.33339,-1.17335c0,-0.99734 0.46933,-1.17335 2.81602,-1.34934l2.75736,-0.176v-8.2134v-8.15474h-2.58136c-2.69869,0 -3.63736,-0.64534 -3.05069,-2.05335c0.23467,-0.704 1.46669,-0.88 5.33872,-0.88z" data-paper-data="{&quot;origPos&quot;:null}"/><path d="M192.38196,169.31531c0.82134,0.11733 1.29068,0.58667 1.29068,1.34934c0,0.76268 -0.46934,1.23201 -1.29068,1.34934c-1.11468,0.176 -1.34934,-0.05867 -1.34934,-1.34934c0,-1.29067 0.23467,-1.52534 1.34934,-1.34934z" data-paper-data="{&quot;origPos&quot;:null}"/><path d="M200.41936,169.19798h2.46402h2.52269l2.93336,7.15739l2.93336,7.1574l0.29334,-7.04006l0.29333,-6.98139h1.76002h1.76001l0.176,9.21074l0.176,9.26941h-3.40269h-3.40269l-2.05335,-5.16271l-2.05335,-5.10404l-0.11734,5.57338c-0.23467,7.62673 -0.41066,8.33074 -2.40535,8.09607l-1.58401,-0.176l-0.176,-11.02943z" data-paper-data="{&quot;origPos&quot;:null}"/><path d="M226.81955,169.19798c4.86937,0 6.04271,0.46933 7.04005,2.93335c0.64534,1.58401 0.64534,1.87735 -0.352,2.64002c-1.58401,1.17335 -1.87735,1.11468 -2.87469,-0.88001c-0.52801,-0.99734 -1.17334,-1.76002 -1.46668,-1.76002c-0.352,0 -0.58667,3.28536 -0.58667,8.2134c0,4.51737 0.23467,8.2134 0.46934,8.2134c0.23467,0 1.29067,-1.76002 2.34668,-3.87203c1.34934,-2.75735 1.81869,-4.34137 1.58402,-5.45605c-0.23467,-1.17335 0,-1.87734 0.82134,-2.64002c1.46668,-1.29067 2.22935,-0.88 2.93336,1.76002c0.64534,2.28802 0.23467,3.98936 -1.87735,8.15473c-2.28802,4.6347 -3.05069,5.04537 -8.09607,4.86937c-3.87203,-0.176 -4.34137,-0.29334 -4.34137,-1.34934c0,-0.76268 0.46934,-1.23201 1.34934,-1.34934c1.29067,-0.176 1.29068,-0.352 1.29068,-8.3894c0,-7.68539 -0.05866,-8.15474 -1.11467,-8.15474c-1.34934,0 -2.05335,-0.88 -1.58402,-2.05335c0.23467,-0.64534 1.40802,-0.88 4.45871,-0.88z" data-paper-data="{&quot;origPos&quot;:null}"/><path d="M251.75311,169.31531c2.05335,0.176 2.46401,0.46934 3.63736,2.58136l1.29068,2.34669l-1.64268,0.99734c-1.70135,0.99734 -1.70135,0.99734 -2.40536,-0.76268c-0.41067,-0.99734 -0.93867,-1.76001 -1.23201,-1.76001c-0.82134,0 -3.46136,5.69071 -3.46136,7.45073c0.05866,0.88001 0.82134,3.10936 1.70135,4.86937l1.70135,3.16803l1.87734,-3.69603c1.23201,-2.46402 1.76002,-4.2827 1.58402,-5.28005c-0.176,-0.93867 0.05867,-1.76001 0.64534,-2.22935c1.64268,-1.23201 2.40535,-0.88001 3.10936,1.52534c0.64534,2.17068 0.528,2.64002 -1.58401,7.09873c-1.23201,2.64002 -2.69869,5.04537 -3.2267,5.33871c-1.64268,0.88001 -4.40004,0.58667 -5.33871,-0.528c-1.70135,-1.87735 -4.57604,-8.27207 -4.57604,-10.09075c0,-1.81868 3.69603,-9.91475 4.92804,-10.73609c0.352,-0.23467 1.70135,-0.352 2.99202,-0.29334z" data-paper-data="{&quot;origPos&quot;:null}"/><path d="M267.71056,169.19798h1.34934v8.68273c0,8.33074 -0.05867,8.74141 -1.34934,9.97342c-0.76268,0.704 -1.58402,1.11468 -1.76002,0.88001c-0.52801,-0.46934 -0.52801,-18.65616 0,-19.12549c0.176,-0.23467 0.99734,-0.41067 1.76002,-0.41067z" data-paper-data="{&quot;origPos&quot;:null}"/><path d="M279.03333,169.31531l1.46667,0.17601l0.17601,9.38675c0.11734,8.97608 0.05867,9.4454 -1.17334,11.02942c-1.34935,1.58401 -1.46668,1.64268 -6.92273,1.46668l-5.57338,-0.176l2.22935,-2.28802l2.17068,-2.28802v-5.22137v-5.22137l1.64268,0.176c1.58402,0.176 1.58401,0.17601 1.87735,5.69072c0.176,3.69603 0.528,5.63205 1.05601,5.80804c0.52801,0.176 0.70401,-1.87735 0.70401,-8.85874c0,-4.92804 0.176,-9.21074 0.41067,-9.44541c0.23467,-0.23467 1.11467,-0.35201 1.93601,-0.23467z" data-paper-data="{&quot;origPos&quot;:null}"/><path d="M290.23875,169.19798c0.88,0 1.11467,0.41066 1.11467,1.87734c0,1.52534 1.11468,3.34403 5.28005,8.5654c2.87469,3.69603 5.39738,7.21606 5.57338,7.80273c0.23467,0.64534 0,1.81868 -0.52801,2.58136c-0.93867,1.40801 -1.29068,1.46668 -6.51205,1.46668c-6.16005,0 -7.92007,-0.82134 -7.92007,-3.81337c0,-1.23201 0.29334,-1.46668 1.70135,-1.46668c1.17334,0 1.76002,0.35201 1.99469,1.17335c0.23467,0.99734 0.82135,1.17334 3.87203,1.17334c1.99469,0 3.57869,-0.11734 3.57869,-0.29334c0,-0.176 -2.52269,-3.52003 -5.57338,-7.39206c-5.69072,-7.21606 -6.45338,-8.97607 -4.6347,-10.73609c0.46934,-0.52801 1.40801,-0.93867 2.05335,-0.93867z" data-paper-data="{&quot;origPos&quot;:null}"/><path d="M297.16148,169.19798c2.46402,0 3.10935,0.23466 4.16536,1.58401c1.58402,2.05335 1.29068,3.34403 -0.76267,3.5787c-1.29068,0.176 -1.76002,-0.05867 -1.99469,-0.99734c-0.23467,-0.93867 -0.76268,-1.23201 -2.28802,-1.23201c-1.76002,0 -1.99468,-0.17601 -1.99468,-1.46668c0,-1.34934 0.176,-1.46667 2.87469,-1.46667z" data-paper-data="{&quot;origPos&quot;:null}"/><path d="M330.60176,169.19798h3.40269h3.40269l1.34934,2.46402c1.29068,2.34669 1.34935,3.10936 1.17335,11.02942c-0.176,8.44807 -0.17601,8.50674 -1.58402,8.68274c-0.76268,0.11733 -1.64268,-0.11733 -1.87735,-0.58667c-0.29334,-0.41067 -0.52801,-4.81071 -0.52801,-9.73875c0,-7.5094 -0.11733,-8.91741 -0.88,-8.91741c-0.46934,0 -0.88001,0.52801 -0.88001,1.23201c0,0.93867 -0.29333,1.17334 -1.58401,0.99734c-1.46668,-0.176 -1.64269,-0.41066 -1.81869,-2.69868z" data-paper-data="{&quot;origPos&quot;:null}"/><path d="M340.80985,169.19798h2.52269c2.46402,0 2.58135,0.05866 2.58135,1.70135c0,4.34137 -2.05335,4.8107 -3.87203,0.93867z" data-paper-data="{&quot;origPos&quot;:null}"/><path d="M360.28735,169.31531c2.22935,0.176 2.46402,0.35201 4.22404,3.69604c3.52003,6.51206 3.57869,7.15739 0.99734,12.61343c-2.34668,5.04538 -3.16802,5.86671 -5.98405,5.86671c-1.93601,0 -2.99203,-0.99734 -4.75204,-4.51737l-1.23201,-2.46402l1.76002,-0.93867l1.70135,-0.88001l1.46668,2.75736l1.40801,2.75735l1.81868,-3.63736c0.99734,-1.99469 1.81868,-3.98937 1.81868,-4.4587c0,-1.23201 -3.0507,-7.39206 -3.69603,-7.39206c-0.23467,0 -1.23201,1.64268 -2.17068,3.63736c-2.17068,4.57604 -5.28004,6.74672 -5.28004,3.69603c0,-1.58401 3.81337,-9.68008 4.92804,-10.44275c0.35201,-0.23467 1.70135,-0.352 2.99202,-0.29334z" data-paper-data="{&quot;origPos&quot;:null}"/><path d="M395.78097,169.19798h2.22935c1.81868,0 2.40535,0.352 3.63736,2.11201l1.40802,2.11202l1.70135,-2.11202c1.40801,-1.76002 2.05335,-2.11201 3.98936,-2.11201h2.28802v10.38408c0,5.74938 -0.23467,10.79475 -0.52801,11.20542c-0.23467,0.46934 -1.11467,0.704 -1.87734,0.58667c-1.40801,-0.176 -1.40801,-0.29333 -1.70135,-8.3894l-0.29334,-8.2134l-1.05601,2.17068c-1.23201,2.75735 -3.69603,3.16803 -4.2827,0.76268c-0.176,-0.76268 -0.70401,-1.70135 -1.17334,-2.11202c-0.64534,-0.52801 -0.82134,-0.41066 -0.82134,0.58668c0,0.99734 -0.35201,1.23201 -1.76002,1.23201h-1.76002v-4.1067z" data-paper-data="{&quot;origPos&quot;:null}"/><path d="M426.69854,169.78465c1.05601,2.40536 5.80805,20.3575 5.57338,21.00284c-0.11734,0.41067 -0.93867,0.704 -1.81868,0.58667c-1.23201,-0.11733 -1.64268,-0.58667 -2.05335,-2.40535c-0.52801,-2.11202 -0.58667,-2.17068 -3.34403,-2.17068c-2.81603,0 -2.81602,0 -3.46136,2.34668c-0.52801,1.93601 -0.88001,2.34669 -2.11202,2.34669c-0.76268,0 -1.58401,-0.41067 -1.76001,-0.88c-0.176,-0.46934 0.99734,-5.28005 2.58135,-10.67742l2.99203,-9.85608l0.11733,5.57338c0.05867,3.05069 0.05867,6.16005 0,6.86406c-0.05867,1.11468 0.176,1.34934 1.52535,1.34934h1.64268l-0.11733,-7.45073c-0.05867,-4.16537 0.05867,-7.09872 0.23467,-6.62938z" data-paper-data="{&quot;origPos&quot;:null}"/><path d="M439.19467,169.19798h3.7547c3.57869,0 3.7547,0.05866 3.7547,1.46667c0,1.23201 -0.29334,1.46668 -1.70135,1.46668c-1.58402,0 -1.70135,0.176 -1.70135,2.05335v2.11202l3.40269,-0.17601c3.16803,-0.176 3.34403,-0.23467 3.52003,-1.81868c0.176,-1.40801 0.46934,-1.58401 2.28802,-1.58401c2.11201,0 2.11201,0 1.76001,2.17068c-0.41067,2.52269 -2.17068,4.2827 -4.2827,4.2827c-0.76268,0 -1.40801,0.11734 -1.40801,0.176c0,0.11733 1.29067,2.52269 2.87469,5.39738c3.05069,5.39738 3.22669,6.92272 0.76267,6.62938c-1.17334,-0.11733 -2.05335,-1.23201 -4.57604,-5.69071c-1.70135,-3.05069 -3.40269,-5.80804 -3.69603,-6.10138c-0.46934,-0.46934 -0.64534,0.99734 -0.64534,4.86937c0,6.21872 -0.352,7.21606 -2.40535,6.92272l-1.40801,-0.176l-0.176,-11.02943z" data-paper-data="{&quot;origPos&quot;:null}"/><path d="M468.23491,169.19798c5.28004,0 5.51471,0.05866 6.74672,1.58401c1.58402,2.05335 1.29068,3.34403 -0.76267,3.5787c-1.29068,0.176 -1.76002,-0.05867 -1.99469,-0.99734c-0.29334,-1.05601 -0.76267,-1.23201 -3.7547,-1.23201c-1.93601,0 -3.46137,0.176 -3.46137,0.41067c0,0.29334 2.40536,3.46136 5.28005,7.09873c2.87469,3.69603 5.39738,7.21606 5.57338,7.80273c0.52801,1.52534 -1.17334,4.04803 -2.64002,4.04803c-0.99734,0 -1.17334,-0.41067 -1.17334,-2.69869c0,-2.05335 -0.23467,-2.75735 -0.99734,-2.99202c-1.58402,-0.41067 -10.14942,-11.7921 -10.14942,-13.37611c0,-0.76268 0.41067,-1.81868 0.93867,-2.28802c0.704,-0.704 2.17068,-0.93867 6.39472,-0.93867z" data-paper-data="{&quot;origPos&quot;:null}"/><path d="M395.72231,180.34474h1.81868h1.76002v5.63205v5.57338l-1.58401,-0.17601l-1.64269,-0.176l-0.176,-5.45605z" data-paper-data="{&quot;origPos&quot;:null}"/><path d="M93.82114,180.93141c1.76001,0 2.05335,0.29334 3.81337,3.81337l1.81868,3.75469l3.69603,0.176c3.2267,0.176 3.69603,0.29334 3.69603,1.34934c0,1.05601 -0.41067,1.17335 -4.40004,1.29068c-2.81602,0.11733 -4.75204,-0.11733 -5.33871,-0.58667c-0.93868,-0.704 -5.22137,-8.38941 -5.22137,-9.32808c0,-0.23467 0.88,-0.46934 1.93601,-0.46934z" data-paper-data="{&quot;origPos&quot;:null}"/><path d="M462.60286,186.21145c1.17334,0 1.76001,0.35201 1.99468,1.17335c0.176,0.704 0.82134,1.17334 1.52535,1.17334c0.93867,0 1.23201,0.352 1.23201,1.46668c0,1.29067 -0.23467,1.46668 -2.05335,1.46668c-2.46402,0 -4.40004,-1.70135 -4.40004,-3.81337c0,-1.23201 0.29334,-1.46668 1.70135,-1.46668z" data-paper-data="{&quot;origPos&quot;:null}"/><path d="M5.05771,188.0888l7.21606,0.29334c3.9307,0.176 7.39205,0.528 7.62673,0.76267c0.23467,0.176 0.29334,0.82134 0.05867,1.34935c-0.29333,0.88001 -1.40801,0.99734 -7.62673,0.99734h-7.27472v-1.70135z" data-paper-data="{&quot;origPos&quot;:null}"/><path d="M212.73943,189.73148c2.22935,0 2.93336,0.23467 2.93336,0.88001c0,0.64534 -0.704,0.88 -2.58136,0.88c-1.76002,0 -2.69869,-0.29333 -2.93336,-0.88c-0.23467,-0.704 0.23467,-0.88001 2.58136,-0.88001z" data-paper-data="{&quot;origPos&quot;:null}"/></g></g></svg>