<svg version="1.1" xmlns="http://www.w3.org/2000/svg" xmlns:xlink="http://www.w3.org/1999/xlink" width="466.51296" height="195.2948" viewBox="0,0,466.51296,195.2948"><g transform="translate(-4.547,-10.32052)"><g data-paper-data="{&quot;isPaintingLayer&quot;:true}" fill="#ffffff" fill-rule="nonzero" stroke="none" stroke-width="1" stroke-linecap="butt" stroke-linejoin="miter" stroke-miterlimit="10" stroke-dasharray="" stroke-dashoffset="0" font-family="none" font-weight="none" font-size="none" text-anchor="none" style="mix-blend-mode: normal"><text transform="translate(5.67897,49.28097) rotate(2.55502) scale(0.77158,0.77158)" font-size="40" xml:space="preserve" data-paper-data="{&quot;origPos&quot;:null}" fill="#ffffff" fill-rule="nonzero" stroke="none" stroke-width="1" stroke-linecap="butt" stroke-linejoin="miter" stroke-miterlimit="10" stroke-dasharray="" stroke-dashoffset="0" font-family="Pixel" font-weight="normal" text-anchor="start" style="mix-blend-mode: normal"><tspan x="0" dy="0">Journey to the unknown pt.1</tspan></text><path d="M56.4,163.4823h5.74397h5.74397l-0.10077,4.69977c-0.10077,4.28751 -0.16795,4.78222 -0.87335,5.02958c-0.94053,0.32981 -1.74671,-1.15433 -1.74671,-3.21563c0,-1.15433 -0.23514,-1.56659 -0.83976,-1.56659h-0.83976l-0.06718,18.30436l-0.10077,18.38682h-1.17567h-1.17567l-0.10077,-18.38682l-0.06718,-18.30436h-0.83976c-0.60463,0 -0.80617,0.49471 -0.90694,2.22621c-0.10077,2.0613 -0.23514,2.30866 -1.27644,2.30866h-1.17567l-0.10077,-4.78222z" data-paper-data="{&quot;origPos&quot;:null}"/><path d="M80.88743,165.29625c1.24285,3.38054 3.42622,15.50099 3.42622,19.21134c0,4.1226 -2.55287,17.64475 -3.72854,19.70605c-0.90694,1.48414 -2.72083,1.73149 -3.69495,0.49471c-0.94053,-1.31923 -3.99726,-16.65532 -3.99726,-20.20076c0,-3.38054 3.02314,-18.79908 3.93008,-20.11831c1.10849,-1.56659 3.29187,-1.07188 4.06444,0.90697zM80.18204,175.52031c-1.10849,-5.68919 -1.51157,-7.00843 -1.7803,-6.18391c-0.43667,1.40169 -2.8216,14.26421 -2.8216,15.25364c0,1.40169 2.8216,15.17118 3.09032,15.17118c0.40308,0 2.95596,-13.52214 2.95596,-15.50099c0,-0.82452 -0.63822,-4.78222 -1.44439,-8.73992z" data-paper-data="{&quot;origPos&quot;:null}"/><path d="M111.45474,163.4823c4.36676,0 5.44165,0.24736 5.77756,1.23678c0.77258,2.22621 -0.16795,3.71034 -2.38492,3.71034h-1.98183v16.07816v16.07816h1.98183c2.21697,0 3.1575,1.48414 2.38492,3.71034c-0.36949,1.07188 -1.31002,1.23678 -5.84474,1.07188l-5.40806,-0.24736v-2.0613c0,-1.97885 0.10077,-2.0613 2.1162,-2.30866l2.08261,-0.24736v-15.99571v-16.07816h-2.01543c-2.1162,0 -2.65365,-0.90697 -2.21697,-3.71034c0.13436,-0.98943 1.07489,-1.23678 5.50883,-1.23678z" data-paper-data="{&quot;origPos&quot;:null}"/><path d="M122.27086,163.4823h1.81388h1.7803l1.94824,10.88368c3.22468,18.22191 2.98955,18.05701 3.19109,2.72092l0.16795,-13.19233h1.17567h1.17567l0.10077,20.86038l0.06718,20.86038l-1.71312,-0.24736l-1.71312,-0.24736l-1.74671,-9.89425c-0.97412,-5.44184 -2.14979,-11.79065 -2.58646,-14.01686l-0.80617,-4.1226l-0.16795,14.01686l-0.16795,14.01686h-1.17567h-1.17567l-0.10077,-20.86038z" data-paper-data="{&quot;origPos&quot;:null}"/><path d="M138.73018,163.4823l5.6096,0.1649l5.64319,0.24736v2.0613v2.0613l-4.26599,0.24736l-4.29958,0.24736v4.45241v4.45241l3.29187,0.24736c3.22468,0.24736 3.25828,0.24736 3.25828,2.30866c0,2.0613 -0.03359,2.0613 -3.25828,2.30866l-3.25828,0.24736l-0.10077,11.29594l-0.10077,11.29594h-1.17567h-1.17567l-0.10077,-20.86038z" data-paper-data="{&quot;origPos&quot;:null}"/><path d="M160.83269,163.4823c4.36676,0 5.44165,0.24736 5.77756,1.23678c0.77258,2.22621 -0.16795,3.71034 -2.38492,3.71034h-1.98183v16.07816v16.07816h1.98183c2.21697,0 3.1575,1.48414 2.38492,3.71034c-0.36949,1.07188 -1.31002,1.23678 -5.84474,1.07188l-5.40806,-0.24736v-2.0613c0,-1.97885 0.10077,-2.0613 2.1162,-2.30866l2.08261,-0.24736v-15.99571v-16.07816h-2.01543c-2.1162,0 -2.65365,-0.90697 -2.21697,-3.71034c0.13436,-0.98943 1.07489,-1.23678 5.50883,-1.23678z" data-paper-data="{&quot;origPos&quot;:null}"/><path d="M171.64881,163.4823h1.81388h1.7803l1.94824,10.88368c3.22468,18.22191 2.98955,18.05701 3.19109,2.72092l0.16795,-13.19233h1.17567h1.17567l0.10077,20.86038l0.06718,20.86038l-1.71312,-0.24736l-1.71312,-0.24736l-1.74671,-9.89425c-0.97412,-5.44184 -2.14979,-11.79065 -2.58646,-14.01686l-0.80617,-4.1226l-0.16795,14.01686l-0.16795,14.01686h-1.17567h-1.17567l-0.10077,-20.86038z" data-paper-data="{&quot;origPos&quot;:null}"/><path d="M193.75132,163.4823c4.36676,0 5.44165,0.24736 5.77756,1.23678c0.77258,2.22621 -0.16795,3.71034 -2.38492,3.71034h-1.98183v16.07816v16.07816h1.98183c2.21697,0 3.1575,1.48414 2.38492,3.71034c-0.36949,1.07188 -1.31002,1.23678 -5.84474,1.07188l-5.40806,-0.24736v-2.0613c0,-1.97885 0.10077,-2.0613 2.1162,-2.30866l2.08261,-0.24736v-15.99571v-16.07816h-2.01543c-2.1162,0 -2.65365,-0.90697 -2.21697,-3.71034c0.13436,-0.98943 1.07489,-1.23678 5.50883,-1.23678z" data-paper-data="{&quot;origPos&quot;:null}"/><path d="M204.53385,163.4823h5.74397h5.74397l-0.10077,4.69977c-0.10077,4.28751 -0.16795,4.78222 -0.87335,5.02958c-0.94053,0.32981 -1.74671,-1.15433 -1.74671,-3.21563c0,-1.15433 -0.23514,-1.56659 -0.83976,-1.56659h-0.83976l-0.06718,18.30436l-0.10077,18.38682h-1.17567h-1.17567l-0.10077,-18.38682l-0.06718,-18.30436h-0.83976c-0.60463,0 -0.80617,0.49471 -0.90694,2.22621c-0.10077,2.0613 -0.23514,2.30866 -1.27644,2.30866h-1.17567l-0.10077,-4.78222z" data-paper-data="{&quot;origPos&quot;:null}"/><path d="M222.53833,163.64721c0.87335,0.24736 1.0413,0.65962 1.17567,3.13318c0.13436,2.63847 2.48569,11.37839 3.09032,11.54329c0.47027,0.08245 2.95596,-8.57502 2.95596,-10.30651c0,-3.29808 0.36949,-4.53486 1.37721,-4.53486c1.07489,0 1.64593,1.8964 1.64593,5.52429c0,1.64904 -0.67181,4.36996 -2.35133,9.48199l-2.31774,7.09088l-0.10077,9.8118c-0.10077,9.48199 -0.13436,9.72935 -0.87335,9.9767c-1.51157,0.57716 -1.74671,-0.98943 -1.74671,-10.96613v-9.31709l-2.18338,-6.67862c-1.94824,-5.8541 -2.18338,-7.00843 -2.18338,-10.22406c0,-1.97885 0.10077,-3.87525 0.23514,-4.20506c0.13436,-0.32981 0.7054,-0.49471 1.27644,-0.32981z" data-paper-data="{&quot;origPos&quot;:null}"/><path d="M259.65577,163.4823c0.60463,0 1.10849,0.57716 1.31002,1.48414c0.60463,2.80337 4.43394,36.69118 4.33317,38.42267c-0.10077,1.97885 -1.37721,2.80337 -2.1162,1.31923c-0.23514,-0.49471 -0.63822,-2.72092 -0.87335,-5.02958l-0.43667,-4.04015h-2.08261h-2.08261l-0.63822,4.69977c-0.53745,3.9577 -0.80617,4.86467 -1.51157,5.02958c-0.43667,0.1649 -1.0413,-0.32981 -1.27644,-1.07188c-0.43667,-1.31923 -0.03359,-5.35939 3.39263,-32.81593c0.97412,-7.7505 1.0413,-7.99785 1.98183,-7.99785zM260.36117,183.68306l-0.60463,-4.94713l-0.7054,5.68919c-0.40308,3.05073 -0.73899,5.77165 -0.73899,5.93655c0,0.1649 0.60463,0.32981 1.34361,0.32981c0.83976,0 1.34361,-0.41226 1.34361,-1.07188c0,-0.49471 -0.30231,-3.21563 -0.63822,-5.93655z" data-paper-data="{&quot;origPos&quot;:null}"/><path d="M270.40471,163.4823h1.81388h1.7803l1.94824,10.88368c3.22468,18.22191 2.98955,18.05701 3.19109,2.72092l0.16795,-13.19233h1.17567h1.17567l0.10077,20.86038l0.06718,20.86038l-1.71312,-0.24736l-1.71312,-0.24736l-1.74671,-9.89425c-0.97412,-5.44184 -2.14979,-11.79065 -2.58646,-14.01686l-0.80617,-4.1226l-0.16795,14.01686l-0.16795,14.01686h-1.17567h-1.17567l-0.10077,-20.86038z" data-paper-data="{&quot;origPos&quot;:null}"/><path d="M294.52265,164.80154c1.24285,2.14375 3.76213,15.33609 3.76213,19.6236c0,4.78222 -2.75442,18.46927 -4.03085,20.03586c-0.53745,0.74207 -1.94824,0.98943 -4.03085,0.90697c-3.1575,-0.24736 -3.19109,-0.24736 -3.19109,-2.30866c0,-1.64904 0.20155,-2.14375 0.94053,-2.30866l0.90694,-0.24736v-16.07816v-15.99571h-0.83976c-0.90694,0 -1.37721,-1.64904 -1.0413,-3.71034c0.26872,-1.81395 6.44936,-1.73149 7.52426,0.08245zM292.33927,168.59433c-0.3359,-0.24736 -0.43667,3.29808 -0.43667,15.8308c0,10.14161 0.13436,16.16061 0.3359,16.16061c0.47027,0 3.35904,-14.42912 3.35904,-16.65532c-0.03359,-1.07188 -0.67181,-4.86467 -1.44439,-8.41011c-0.77258,-3.62789 -1.61234,-6.76107 -1.81388,-6.92598z" data-paper-data="{&quot;origPos&quot;:null}"/><path d="M319.78266,163.4823h4.2324c4.63548,0 5.6096,0.74207 6.65091,4.94713c0.77258,3.29808 0.7054,10.80122 -0.10077,13.27479c-0.60463,1.81395 -0.60463,1.97885 0,4.36996c0.90694,3.71034 0.87335,11.8731 -0.06718,14.84138c-1.24285,3.87525 -2.28415,4.61732 -6.6845,4.61732h-4.03085v-21.02528zM324.82123,168.42943h-2.35133v6.59617v6.59617h2.14979c2.78801,0 3.89649,-1.8964 3.89649,-6.67862c0,-2.14375 -0.23514,-3.7928 -0.67181,-4.86467c-0.53745,-1.31923 -1.10849,-1.64904 -3.02314,-1.64904zM324.72046,186.56889h-2.25056v7.00843v7.00843h2.18338c1.91465,0 2.31774,-0.24736 3.02314,-2.0613c1.14208,-2.72092 1.14208,-7.66804 0.06718,-10.14161c-0.63822,-1.48414 -1.17567,-1.81395 -3.02314,-1.81395z" data-paper-data="{&quot;origPos&quot;:null}"/><path d="M336.24198,163.4823h5.50883c4.46753,0 5.57601,0.24736 5.91192,1.23678c0.3359,0.98943 0.3359,1.48414 0,2.47356c-0.3359,0.98943 -1.27644,1.23678 -4.5683,1.23678h-4.16522v6.59617v6.59617h1.94824c2.18338,0 2.92237,1.07188 2.38492,3.46299c-0.26872,1.15433 -0.73899,1.48414 -2.31774,1.48414h-2.01543v7.00843v7.00843h4.16522c3.29187,0 4.2324,0.24736 4.5683,1.23678c0.3359,0.98943 0.3359,1.48414 0,2.47356c-0.3359,0.98943 -1.44439,1.23678 -5.91192,1.23678h-5.50883v-21.02528z" data-paper-data="{&quot;origPos&quot;:null}"/><path d="M354.21287,163.64721c0.87335,0.24736 1.0413,0.65962 1.17567,3.13318c0.13436,2.63847 2.48569,11.37839 3.09032,11.54329c0.47027,0.08245 2.95596,-8.57502 2.95596,-10.30651c0,-3.29808 0.36949,-4.53486 1.37721,-4.53486c1.07489,0 1.64593,1.8964 1.64593,5.52429c0,1.64904 -0.67181,4.36996 -2.35133,9.48199l-2.31774,7.09088l-0.10077,9.8118c-0.10077,9.48199 -0.13436,9.72935 -0.87335,9.9767c-1.51157,0.57716 -1.74671,-0.98943 -1.74671,-10.96613v-9.31709l-2.18338,-6.67862c-1.94824,-5.8541 -2.18338,-7.00843 -2.18338,-10.22406c0,-1.97885 0.10077,-3.87525 0.23514,-4.20506c0.13436,-0.32981 0.7054,-0.49471 1.27644,-0.32981z" data-paper-data="{&quot;origPos&quot;:null}"/><path d="M377.15514,165.29625c1.24285,3.38054 3.42622,15.50099 3.42622,19.21134c0,4.1226 -2.55287,17.64475 -3.72854,19.70605c-0.90694,1.48414 -2.72083,1.73149 -3.69495,0.49471c-0.94053,-1.31923 -3.99726,-16.65532 -3.99726,-20.20076c0,-3.38054 3.02314,-18.79908 3.93008,-20.11831c1.10849,-1.56659 3.29187,-1.07188 4.06444,0.90697zM376.44974,175.52031c-1.10849,-5.68919 -1.51157,-7.00843 -1.7803,-6.18391c-0.43667,1.40169 -2.8216,14.26421 -2.8216,15.25364c0,1.40169 2.8216,15.17118 3.09032,15.17118c0.40308,0 2.95596,-13.52214 2.95596,-15.50099c0,-0.82452 -0.63822,-4.78222 -1.44439,-8.73992z" data-paper-data="{&quot;origPos&quot;:null}"/><path d="M385.61993,163.4823h1.81388h1.7803l1.94824,10.88368c3.22468,18.22191 2.98955,18.05701 3.19109,2.72092l0.16795,-13.19233h1.17567h1.17567l0.10077,20.86038l0.06718,20.86038l-1.71312,-0.24736l-1.71312,-0.24736l-1.74671,-9.89425c-0.97412,-5.44184 -2.14979,-11.79065 -2.58646,-14.01686l-0.80617,-4.1226l-0.16795,14.01686l-0.16795,14.01686h-1.17567h-1.17567l-0.10077,-20.86038z" data-paper-data="{&quot;origPos&quot;:null}"/><path d="M409.73787,164.80154c1.24285,2.14375 3.76213,15.33609 3.76213,19.6236c0,4.78222 -2.75442,18.46927 -4.03085,20.03586c-0.53745,0.74207 -1.94824,0.98943 -4.03085,0.90697c-3.1575,-0.24736 -3.19109,-0.24736 -3.19109,-2.30866c0,-1.64904 0.20155,-2.14375 0.94053,-2.30866l0.90694,-0.24736v-16.07816v-15.99571h-0.83976c-0.90694,0 -1.37721,-1.64904 -1.0413,-3.71034c0.26872,-1.81395 6.44936,-1.73149 7.52426,0.08245zM407.5545,168.59433c-0.3359,-0.24736 -0.43667,3.29808 -0.43667,15.8308c0,10.14161 0.13436,16.16061 0.3359,16.16061c0.47027,0 3.35904,-14.42912 3.35904,-16.65532c-0.03359,-1.07188 -0.67181,-4.86467 -1.44439,-8.41011c-0.77258,-3.62789 -1.61234,-6.76107 -1.81388,-6.92598z" data-paper-data="{&quot;origPos&quot;:null}"/></g></g></svg>