<svg version="1.1" xmlns="http://www.w3.org/2000/svg" xmlns:xlink="http://www.w3.org/1999/xlink" width="470.93528" height="22.35219"><g transform="translate(-2.55772,-169.03353)"><g data-paper-data="{&quot;isPaintingLayer&quot;:true}" fill="#ffffff" fill-rule="nonzero" stroke="none" stroke-width="1" stroke-linecap="butt" stroke-linejoin="miter" stroke-miterlimit="10" stroke-dasharray="" stroke-dashoffset="0" font-family="none" font-weight="none" font-size="none" text-anchor="none" style="mix-blend-mode: normal"><path d="M4.72839,169.03353h1.34935v9.68008v9.68008h5.51471c5.63205,0 6.51206,0.29334 5.86672,1.99469c-0.29333,0.76268 -1.52535,0.93867 -7.62673,0.93867h-7.27472v-10.73609c0,-5.92538 0.176,-10.97076 0.41067,-11.14676c0.176,-0.23467 0.99733,-0.41067 1.76001,-0.41067z" data-paper-data="{&quot;origPos&quot;:null}"/><path d="M31.83263,169.03353c1.64268,0 1.70135,0.05866 4.57604,10.38408c1.64268,5.74938 2.81602,10.79476 2.64002,11.20543c-0.11733,0.41067 -0.93868,0.70401 -1.81868,0.58667c-1.23201,-0.11734 -1.64268,-0.58668 -2.05335,-2.40535c-0.52801,-2.11201 -0.58668,-2.17068 -3.34403,-2.17068c-2.81602,0 -2.81602,0 -3.46136,2.34668c-0.52801,1.93601 -0.88001,2.34669 -2.11202,2.34669c-0.76268,0 -1.58401,-0.41067 -1.76001,-0.82134c-0.176,-0.46934 0.76267,-4.6347 2.11201,-9.26941c1.40801,-4.6347 2.75736,-9.26941 3.05069,-10.32542c0.41067,-1.52535 0.82134,-1.87735 2.17068,-1.87735zM31.06996,179.47628c-0.176,0.88 -0.46934,2.17069 -0.70401,2.87469c-0.352,1.23201 -0.176,1.34934 1.52535,1.34934c1.58402,0 1.81869,-0.17601 1.46668,-1.05601c-0.176,-0.52801 -0.52801,-1.70135 -0.70401,-2.64002c-0.46934,-2.22935 -1.11467,-2.46402 -1.58401,-0.528z" data-paper-data="{&quot;origPos&quot;:null}"/><path d="M48.14209,169.03353h1.34934v9.03474c0,10.32542 0.05866,10.50142 4.51737,10.20808l2.81602,-0.176l0.29333,-9.38675l0.29333,-9.38674h1.76002h1.76002v9.85608c0,9.68008 0,9.91475 -1.40801,11.02943c-1.05601,0.88 -2.28802,1.11468 -6.10138,1.11468c-4.04803,0 -4.92804,-0.17601 -6.10138,-1.29068c-1.29068,-1.23201 -1.34934,-1.58401 -1.34934,-10.73609c0,-5.22138 0.176,-9.68008 0.41067,-9.85608c0.176,-0.23467 0.99734,-0.41067 1.76002,-0.41067z" data-paper-data="{&quot;origPos&quot;:null}"/><path d="M67.67827,169.03353h2.46402h2.52269l2.93336,7.1574l2.93336,7.15739l0.29333,-7.04006l0.29333,-6.98139h1.76001h1.76002l0.176,10.97076l0.11733,11.02943h-2.58136h-2.58136l-2.87469,-6.80539l-2.81602,-6.86406l-0.11733,5.51471c-0.23467,7.56806 -0.41067,8.27207 -2.40535,8.0374l-1.58401,-0.176l-0.17601,-11.02943z" data-paper-data="{&quot;origPos&quot;:null}"/><path d="M99.9452,169.20953c3.98937,0.11734 4.40004,0.23467 4.40004,1.29068c0,1.05601 -0.46934,1.17335 -3.69603,1.34935l-3.63736,0.176l-1.76001,3.46136c-0.99734,1.93601 -1.76001,4.04804 -1.76001,4.69338c0,0.64534 0.76268,2.75736 1.76001,4.69337l1.76001,3.46137l3.63736,0.176c3.2267,0.176 3.69603,0.29334 3.69603,1.34935c0,1.05601 -0.41067,1.17334 -4.40004,1.29067c-2.81602,0.11734 -4.75204,-0.11733 -5.33871,-0.58667c-1.34934,-1.05601 -5.22137,-8.5654 -5.22137,-10.20808c0,-1.70135 4.34136,-10.50142 5.39737,-10.91209c0.41067,-0.176 2.75736,-0.29334 5.16271,-0.23467z" data-paper-data="{&quot;origPos&quot;:null}"/><path d="M113.14531,169.03353c1.46668,0 1.46668,0.05867 1.46668,4.98671v4.9867h3.81337h3.75469l0.17601,-4.86937c0.176,-4.57604 0.23467,-4.8107 1.58401,-4.9867c0.76267,-0.11734 1.64268,0.11733 1.87735,0.58667c0.64534,0.99734 0.64534,19.88817 0,20.88551c-0.23467,0.46934 -1.11468,0.70401 -1.87735,0.58667c-1.34934,-0.176 -1.40801,-0.41067 -1.58401,-4.75204l-0.17601,-4.51737h-3.75469h-3.81337v4.75204v4.69337l-1.58401,-0.176l-1.64268,-0.176l-0.176,-10.26675c-0.05867,-5.63205 0,-10.56009 0.11733,-10.97075c0.176,-0.41067 0.99734,-0.76268 1.81868,-0.76268z" data-paper-data="{&quot;origPos&quot;:null}"/><path d="M156.67632,169.03353h1.34934v9.03474c0,6.04271 0.23467,9.21074 0.64534,9.50408c1.17335,0.704 1.70135,-1.17334 1.70135,-6.39472v-5.16271l1.64269,0.17601c1.58401,0.176 1.58401,0.176 1.87735,5.69071c0.176,3.63736 0.52801,5.63205 0.99734,5.74938c0.52801,0.23467 0.76267,-1.99468 0.88,-9.03474l0.176,-9.26941h1.76001h1.76002l0.176,9.26941c0.11733,8.62407 0.05867,9.38675 -1.056,11.02943c-1.23201,1.70135 -1.34935,1.70135 -6.74673,1.70135c-5.51471,0 -5.51471,0 -6.45338,-1.76002c-0.64534,-1.29068 -0.88001,-3.81336 -0.88001,-10.73609c0,-4.92804 0.176,-9.21075 0.41067,-9.38675c0.176,-0.23467 0.99734,-0.41067 1.76002,-0.41067z" data-paper-data="{&quot;origPos&quot;:null}"/><path d="M183.95655,169.15086c6.74672,0.176 7.21606,0.23467 7.21606,1.34934c0,0.99734 -0.46934,1.17335 -2.75736,1.34935l-2.81602,0.176v8.15473v8.15474l2.81602,0.176c2.28802,0.176 2.75736,0.35201 2.75736,1.34935c0,1.11467 -0.41067,1.17334 -7.33339,1.17334c-6.92272,0 -7.33339,-0.05867 -7.33339,-1.17334c0,-0.99734 0.46933,-1.17335 2.81602,-1.34935l2.75736,-0.176v-8.2134v-8.15473h-2.58136c-2.75735,0 -3.63736,-0.64534 -3.05069,-2.11202c0.29334,-0.704 1.58402,-0.82134 7.5094,-0.704z" data-paper-data="{&quot;origPos&quot;:null}"/><path d="M197.91935,169.03353h2.46402h2.52269l2.93336,7.1574l2.93336,7.15739l0.29334,-7.04006l0.29333,-6.98139h1.76002h1.76001l0.176,10.97076l0.11733,11.02943h-2.58136h-2.58136l-2.87469,-6.80539l-2.81602,-6.86406l-0.11734,5.51471c-0.23467,7.56806 -0.41066,8.27207 -2.40535,8.0374l-1.58401,-0.176l-0.176,-11.02943z" data-paper-data="{&quot;origPos&quot;:null}"/><path d="M224.2609,169.03353c2.22935,0 4.51737,0.17601 5.04538,0.35201c1.40801,0.58667 5.16271,8.3894 5.16271,10.79475c0,2.28802 -2.93336,8.50674 -4.75204,10.14942c-0.93867,0.88 -1.99469,0.99734 -5.45605,0.88001c-3.87203,-0.176 -4.34137,-0.29333 -4.34137,-1.34934c0,-0.76268 0.46934,-1.23201 1.34934,-1.34935c1.29067,-0.176 1.29068,-0.352 1.29068,-8.3894c0,-7.68539 -0.05866,-8.15473 -1.11467,-8.15473c-1.34934,0 -2.05335,-0.88001 -1.58402,-2.05336c0.23467,-0.64534 1.34934,-0.88 4.40004,-0.88zM226.66625,171.96689c-0.352,0 -0.58667,2.93336 -0.58667,8.2134c0,4.51737 0.23467,8.2134 0.46934,8.2134c0.52801,0 4.22403,-7.33339 4.22403,-8.38941c0,-0.35201 -0.76268,-2.34668 -1.76002,-4.40004c-0.93867,-1.99469 -1.99468,-3.63736 -2.34668,-3.63736z" data-paper-data="{&quot;origPos&quot;:null}"/><path d="M249.25311,169.15086c2.22935,0.176 2.46402,0.352 4.22404,3.69603c3.52003,6.51205 3.57869,7.1574 0.99734,12.61344c-1.23201,2.64002 -2.69869,5.04537 -3.2267,5.33871c-1.64268,0.88 -4.40004,0.58667 -5.33871,-0.52801c-1.70135,-1.87735 -4.57604,-8.27207 -4.57604,-10.09075c0,-1.81868 3.69603,-9.91475 4.92804,-10.73609c0.352,-0.23467 1.70135,-0.352 2.99202,-0.29333zM248.84244,172.55356c-0.82134,0 -3.4027,5.74938 -3.4027,7.45072c0.05866,0.88 0.82134,3.10936 1.70135,4.86937l1.70135,3.16803l1.81868,-3.63736c0.99734,-1.99469 1.81868,-3.98937 1.81868,-4.45871c0,-0.52801 -0.704,-2.34669 -1.58401,-4.16537c-0.88001,-1.76002 -1.81868,-3.22669 -2.05335,-3.22669z" data-paper-data="{&quot;origPos&quot;:null}"/><path d="M265.21056,169.03353h1.34934v9.03474c0,6.04271 0.23467,9.21074 0.64534,9.50408c1.17334,0.704 1.70135,-1.17334 1.70135,-6.39472v-5.16271l1.64268,0.17601c1.58402,0.176 1.58401,0.176 1.87735,5.69071c0.176,3.63736 0.52801,5.63205 0.99734,5.74938c0.52801,0.23467 0.76267,-1.99468 0.88001,-9.03474l0.176,-9.26941h1.76002h1.76001l0.17601,9.26941c0.11734,8.62407 0.05866,9.38675 -1.05601,11.02943c-1.23201,1.70135 -1.34934,1.70135 -6.74672,1.70135c-5.51471,0 -5.51472,0 -6.45339,-1.76002c-0.64534,-1.29068 -0.88,-3.81336 -0.88,-10.73609c0,-4.92804 0.176,-9.21075 0.41067,-9.38675c0.176,-0.23467 0.99734,-0.41067 1.76002,-0.41067z" data-paper-data="{&quot;origPos&quot;:null}"/><path d="M292.08011,169.03353c5.28004,0 5.51471,0.05867 6.74672,1.58402c1.58402,2.05335 1.29068,3.34402 -0.76267,3.57869c-1.29068,0.176 -1.76002,-0.05867 -1.99469,-0.99734c-0.29334,-1.05601 -0.76267,-1.23201 -3.7547,-1.23201c-1.93601,0 -3.46137,0.176 -3.46137,0.41067c0,0.29334 2.40536,3.46136 5.28005,7.09873c2.87469,3.69603 5.39738,7.21606 5.57338,7.80273c0.23467,0.64534 0,1.81868 -0.52801,2.58136c-0.93867,1.40801 -1.29068,1.46668 -6.51205,1.46668c-6.16005,0 -7.92007,-0.82134 -7.92007,-3.81336c0,-1.23201 0.29334,-1.46668 1.70135,-1.46668c1.17334,0 1.76002,0.352 1.99469,1.17334c0.23467,0.99734 0.82135,1.17334 3.87203,1.17334c1.99469,0 3.57869,-0.11734 3.57869,-0.29334c0,-0.176 -2.52269,-3.52003 -5.57338,-7.39206c-5.69072,-7.21606 -6.45338,-8.97607 -4.6347,-10.73609c0.704,-0.704 2.17068,-0.93867 6.39472,-0.93867z" data-paper-data="{&quot;origPos&quot;:null}"/><path d="M328.10175,169.03353h7.62673h7.68539v1.70135c0,2.64002 -0.58666,3.5787 -2.17068,3.5787c-0.93867,0 -1.58402,-0.41067 -1.76002,-1.17334c-0.176,-0.64534 -0.64534,-1.17334 -1.11468,-1.17334c-0.64534,0 -0.82133,1.99468 -0.93867,9.50408l-0.17601,9.56275l-1.40801,0.176c-0.76268,0.11734 -1.64268,-0.11734 -1.87735,-0.58667c-0.29334,-0.41067 -0.52801,-4.8107 -0.52801,-9.73874c0,-7.50939 -0.11733,-8.91741 -0.88,-8.91741c-0.46934,0 -0.88001,0.52801 -0.88001,1.23201c0,0.93867 -0.29333,1.17334 -1.58401,0.99734c-1.46668,-0.176 -1.64269,-0.41067 -1.81869,-2.69869z" data-paper-data="{&quot;origPos&quot;:null}"/><path d="M357.78734,169.15086c2.22935,0.176 2.46402,0.352 4.22404,3.69603c3.52003,6.51205 3.57869,7.1574 0.99734,12.61344c-1.23201,2.64002 -2.69869,5.04537 -3.22669,5.33871c-1.64268,0.88 -4.40004,0.58667 -5.33871,-0.52801c-1.70135,-1.87735 -4.57603,-8.27207 -4.57603,-10.09075c0,-1.81868 3.69603,-9.91475 4.92804,-10.73609c0.35201,-0.23467 1.70135,-0.352 2.99202,-0.29333zM357.37667,172.55356c-0.82134,0 -3.40269,5.74938 -3.40269,7.45072c0.05867,0.88 0.82134,3.10936 1.70135,4.86937l1.70135,3.16803l1.81868,-3.63736c0.99734,-1.99469 1.81868,-3.98937 1.81868,-4.45871c0,-0.52801 -0.70401,-2.34669 -1.58401,-4.16537c-0.88,-1.76002 -1.81868,-3.22669 -2.05335,-3.22669z" data-paper-data="{&quot;origPos&quot;:null}"/><path d="M393.28096,169.03353h2.17068c1.87735,0 2.46402,0.352 3.69603,2.11201l1.40802,2.11202l1.70135,-2.11202c1.40801,-1.76002 2.05335,-2.11201 3.98936,-2.11201h2.28802v10.38408c0,5.74938 -0.23467,10.79476 -0.52801,11.20543c-0.23467,0.46934 -1.11467,0.70401 -1.87734,0.58667c-1.40801,-0.176 -1.40801,-0.29334 -1.70135,-8.3894l-0.29334,-8.2134l-1.05601,2.17068c-1.23201,2.75736 -3.69603,3.16803 -4.2827,0.76267c-0.176,-0.76268 -0.70401,-1.70135 -1.17334,-2.11201c-0.704,-0.58667 -0.82134,0.58667 -0.82134,7.62673v8.33074l-1.58401,-0.176l-1.64269,-0.176l-0.176,-11.02943z" data-paper-data="{&quot;origPos&quot;:null}"/><path d="M422.55587,169.03353c1.64268,0 1.70135,0.05866 4.57604,10.38408c1.64268,5.74938 2.81602,10.79476 2.64002,11.20543c-0.11734,0.41067 -0.93867,0.70401 -1.81868,0.58667c-1.23201,-0.11734 -1.64268,-0.58668 -2.05335,-2.40535c-0.52801,-2.11201 -0.58667,-2.17068 -3.34403,-2.17068c-2.81603,0 -2.81602,0 -3.46136,2.34668c-0.52801,1.93601 -0.88001,2.34669 -2.11202,2.34669c-0.76268,0 -1.58401,-0.41067 -1.76001,-0.82134c-0.176,-0.46934 0.76267,-4.6347 2.11202,-9.26941c1.40801,-4.6347 2.75736,-9.26941 3.05069,-10.32542c0.41067,-1.52535 0.82134,-1.87735 2.17068,-1.87735zM421.7932,179.47628c-0.176,0.88 -0.46934,2.17069 -0.70401,2.87469c-0.35201,1.23201 -0.176,1.34934 1.52535,1.34934c1.58402,0 1.81868,-0.17601 1.46667,-1.05601c-0.176,-0.52801 -0.52801,-1.70135 -0.704,-2.64002c-0.46934,-2.22935 -1.11467,-2.46402 -1.58401,-0.528z" data-paper-data="{&quot;origPos&quot;:null}"/><path d="M436.69466,169.03353h6.39472c6.33605,0 6.45338,0 7.68539,1.58402c2.46402,3.16803 0.41067,8.3894 -3.28536,8.3894c-0.76268,0 -1.40801,0.11733 -1.40801,0.176c0,0.11734 1.29067,2.52269 2.87469,5.39738c3.05069,5.39738 3.22669,6.92273 0.76267,6.62939c-1.17334,-0.11734 -2.05335,-1.23201 -4.57604,-5.69071c-1.70135,-3.05069 -3.40269,-5.80805 -3.69603,-6.10139c-0.46934,-0.46934 -0.64534,0.99734 -0.64534,4.92804c0,6.16005 -0.352,7.1574 -2.40535,6.86406l-1.40801,-0.176l-0.176,-11.02943zM444.20405,172.08421l-3.40269,-0.176v2.11202v2.11201l3.40269,-0.176c3.28536,-0.176 3.34403,-0.176 3.34403,-1.93601c0,-1.76002 -0.05867,-1.76002 -3.34403,-1.93602z" data-paper-data="{&quot;origPos&quot;:null}"/><path d="M465.7349,169.03353c5.28004,0 5.51471,0.05867 6.74672,1.58402c1.58402,2.05335 1.29068,3.34402 -0.76267,3.57869c-1.29068,0.176 -1.76002,-0.05867 -1.99469,-0.99734c-0.29334,-1.05601 -0.76267,-1.23201 -3.7547,-1.23201c-1.93601,0 -3.46137,0.176 -3.46137,0.41067c0,0.29334 2.40536,3.46136 5.28005,7.09873c2.87469,3.69603 5.39738,7.21606 5.57338,7.80273c0.23467,0.64534 0,1.81868 -0.52801,2.58136c-0.93867,1.40801 -1.29068,1.46668 -6.51205,1.46668c-6.16005,0 -7.92007,-0.82134 -7.92007,-3.81336c0,-1.23201 0.29334,-1.46668 1.70135,-1.46668c1.17334,0 1.76001,0.352 1.99468,1.17334c0.23467,0.99734 0.82135,1.17334 3.87203,1.17334c1.99469,0 3.5787,-0.11734 3.5787,-0.29334c0,-0.176 -2.52269,-3.52003 -5.57338,-7.39206c-5.69072,-7.21606 -6.45338,-8.97607 -4.6347,-10.73609c0.704,-0.704 2.17068,-0.93867 6.39472,-0.93867z" data-paper-data="{&quot;origPos&quot;:null}"/></g></g></svg>