<svg version="1.1" xmlns="http://www.w3.org/2000/svg" xmlns:xlink="http://www.w3.org/1999/xlink" width="465.95887" height="22.60325" viewBox="0,0,465.95887,22.60325"><g transform="translate(-6.22104,-168.59174)"><g data-paper-data="{&quot;isPaintingLayer&quot;:true}" fill="#ffffff" fill-rule="nonzero" stroke="none" stroke-width="1" stroke-linecap="butt" stroke-linejoin="miter" stroke-miterlimit="10" stroke-dasharray="" stroke-dashoffset="0" font-family="none" font-weight="none" font-size="none" text-anchor="none" style="mix-blend-mode: normal"><path d="M8.36868,168.60813h1.33502v8.91741c0,4.92804 0.17413,9.97341 0.34827,11.14676l0.40631,2.22935h-2.14764h-2.0896v-10.73609c0,-5.92538 0.17413,-10.97076 0.40631,-11.14676c0.17413,-0.23467 0.98675,-0.41067 1.74133,-0.41067z" data-paper-data="{&quot;origPos&quot;:null}"/><path d="M35.24318,168.60813c0.98675,0 1.74133,0.176 1.74133,0.41067c0,0.29334 0.17413,1.05601 0.34826,1.76001c0.29022,1.11468 0.11609,1.34934 -1.10284,1.34934c-1.39306,0 -1.45111,0.176 -1.74133,4.22404c-0.17413,2.34669 -0.46435,4.86937 -0.69653,5.57338c-0.40631,1.23201 -0.23218,1.34934 1.39306,1.34934c2.03155,0 2.03155,0.05867 1.21893,-1.99469c-0.5224,-1.46668 -0.46436,-1.52534 1.45111,-1.52534c1.9735,0 1.9735,0.05867 3.1344,3.9307c1.85742,6.51205 1.79937,7.39206 -0.34826,7.09873c-1.33501,-0.11734 -1.74133,-0.58668 -2.14764,-2.40535c-0.5224,-2.11201 -0.58044,-2.17068 -3.30853,-2.17068c-2.78612,0 -2.78612,0 -3.42461,2.34668c-0.5224,1.93601 -0.87067,2.34669 -2.0896,2.34669c-0.75458,0 -1.5672,-0.41067 -1.74132,-0.82134c-0.17413,-0.46934 0.75457,-4.6347 2.0896,-9.26941c1.39306,-4.6347 2.72809,-9.26941 3.0183,-10.32542c0.40631,-1.58401 0.81262,-1.87735 2.20568,-1.87735z" data-paper-data="{&quot;origPos&quot;:null}"/><path d="M51.32147,168.60813h1.33501v9.03474c0,10.32542 0.05804,10.50142 4.46941,10.20808l2.78612,-0.176l0.17414,-3.69603l0.17413,-3.63736h2.08959h2.03156l-0.23218,4.16537c-0.29022,5.69072 -1.16089,6.39472 -7.60381,6.39472c-4.00505,0 -4.87572,-0.17601 -6.0366,-1.29068c-1.27698,-1.23201 -1.33501,-1.58401 -1.33501,-10.73609c0,-5.22137 0.17413,-9.68008 0.40631,-9.85608c0.17413,-0.23467 0.98675,-0.41067 1.74132,-0.41067z" data-paper-data="{&quot;origPos&quot;:null}"/><path d="M62.52404,168.72546c1.27698,0.176 1.45111,0.46934 1.62524,2.64002l0.17413,2.52269h-2.03155c-2.03155,0 -2.08959,-0.05867 -2.08959,-2.22935c0,-1.23201 0.17413,-2.46402 0.40631,-2.69869c0.23218,-0.23467 1.10284,-0.352 1.91546,-0.23467z" data-paper-data="{&quot;origPos&quot;:null}"/><path d="M83.82629,168.72546l1.62524,0.176l0.17413,10.97076l0.11609,11.02943h-2.55395h-2.55395l-2.84417,-6.80539l-2.78612,-6.86406l-0.11608,5.51471c-0.23218,7.56806 -0.40631,8.27207 -2.37981,8.0374l-1.56719,-0.176l-0.17413,-7.5094l-0.17413,-7.45073h3.94702h3.94701l1.45111,3.63736l1.45111,3.69603l0.17413,-6.45339c0.05805,-3.5787 0.23218,-6.80539 0.40631,-7.21606c0.17413,-0.46934 0.92871,-0.704 1.85742,-0.58667z" data-paper-data="{&quot;origPos&quot;:null}"/><path d="M102.5746,168.78413c3.94702,0.11733 4.35333,0.23467 4.35333,1.29068c0,1.05601 -0.46436,1.17335 -3.65679,1.34934l-3.59875,0.176l-1.74132,3.46136c-2.03155,3.98936 -2.08959,5.04538 -0.75457,7.8614c0.92871,1.99469 0.92871,2.17068 -0.11608,3.28536c-0.58044,0.64534 -1.21893,1.17334 -1.45111,1.17334c-0.63849,0 -3.48266,-6.10138 -3.48266,-7.50939c0,-1.64268 4.35333,-10.44275 5.34008,-10.85342c0.40631,-0.176 2.72809,-0.29334 5.1079,-0.23467z" data-paper-data="{&quot;origPos&quot;:null}"/><path d="M115.63457,168.60813c1.45111,0 1.4511,0.05867 1.4511,4.98671v4.98671h3.77288c3.65679,0 3.77288,-0.05866 3.77288,-1.46667c0,-1.29067 0.23218,-1.46668 2.03155,-1.46668h2.03155v6.86405c0,3.81336 -0.23217,7.27473 -0.52239,7.6854c-0.23218,0.46934 -1.10285,0.704 -1.85742,0.58667c-1.33501,-0.176 -1.39306,-0.41067 -1.56719,-4.75204l-0.17413,-4.51737h-3.71484h-3.77288v4.75204v4.69337l-1.56719,-0.176l-1.62524,-0.176l-0.17414,-10.26675c-0.05805,-5.63205 0,-10.56008 0.11608,-10.97075c0.17413,-0.41067 0.98675,-0.76268 1.79937,-0.76268z" data-paper-data="{&quot;origPos&quot;:null}"/><path d="M128.1141,168.8428c0,0.11733 0.17414,0.64533 0.34826,1.17334c0.29023,0.76268 -0.05805,0.93868 -1.74132,0.93868c-1.97351,0 -2.72809,-0.88001 -1.68329,-1.93601c0.40631,-0.46934 3.07635,-0.58667 3.07635,-0.176z" data-paper-data="{&quot;origPos&quot;:null}"/><path d="M158.70343,168.60813h1.33501v9.03474c0,6.04271 0.23218,9.21074 0.63849,9.50408c1.16089,0.704 1.68329,-1.17334 1.68329,-6.39472v-5.16271l1.62524,0.17601c1.62524,0.176 1.74133,0.704 1.27698,6.04271c0,0.29334 0.17413,1.64268 0.40631,2.87469c0.58044,2.87469 1.91546,3.57869 1.91546,0.99734c0,-1.70135 0.17413,-1.81868 2.03155,-1.81868c1.85742,0 2.03155,0.11733 2.03155,1.81868c0,0.99734 -0.5224,2.58136 -1.21893,3.52003c-1.16089,1.64268 -1.27698,1.70135 -6.61706,1.70135c-5.45616,0 -5.45616,0 -6.38487,-1.76002c-0.63849,-1.29068 -0.87067,-3.81336 -0.87067,-10.73609c0,-4.92804 0.17413,-9.21075 0.40631,-9.38674c0.17413,-0.23467 0.98675,-0.41067 1.74133,-0.41067z" data-paper-data="{&quot;origPos&quot;:null}"/><path d="M169.90598,168.72546c1.39306,0.176 1.45111,0.29334 1.62524,5.28005l0.17413,5.16271h-2.0896h-2.03155v-4.86937c0,-2.69869 0.17413,-5.10404 0.40631,-5.33871c0.23218,-0.23467 1.10285,-0.352 1.91546,-0.23467z" data-paper-data="{&quot;origPos&quot;:null}"/><path d="M185.69402,168.72546c6.67509,0.176 7.13945,0.23467 7.13945,1.34934c0,0.99734 -0.46436,1.17335 -2.72809,1.34934l-2.78612,0.176v3.81336v3.7547h-1.74133h-1.74132v-3.81337v-3.81337h-2.55395c-2.72808,0 -3.59874,-0.64534 -3.0183,-2.11202c0.29023,-0.704 1.56719,-0.82134 7.42967,-0.704z" data-paper-data="{&quot;origPos&quot;:null}"/><path d="M212.68465,168.72546l1.62524,0.176l0.17414,10.97076l0.11608,11.02943h-2.55395h-2.55395l-2.84417,-6.80539l-2.78612,-6.86406l-0.11609,5.51471c-0.23218,7.56806 -0.40631,8.27207 -2.37981,8.0374l-1.56719,-0.176l-0.17414,-9.26941l-0.17413,-9.26941l3.30853,0.176l3.25048,0.176l2.08959,5.28005l2.14764,5.22138l0.17413,-6.39472c0.05804,-3.5787 0.23218,-6.80539 0.40631,-7.21606c0.17413,-0.46934 0.9287,-0.704 1.85741,-0.58667z" data-paper-data="{&quot;origPos&quot;:null}"/><path d="M225.57048,168.60813c2.20568,0 4.46941,0.17601 4.99182,0.352c1.39306,0.58667 5.1079,8.3894 5.1079,10.79476c0,2.28802 -2.90222,8.50674 -4.70159,10.14942c-0.9287,0.88 -1.97351,0.99734 -5.39813,0.88001c-3.83092,-0.176 -4.29528,-0.29333 -4.29528,-1.34934c0,-0.76268 0.46436,-1.23201 1.33501,-1.34935c0.81262,-0.11734 1.27697,-0.58667 1.27697,-1.34934c0,-0.82134 0.40631,-1.11467 1.74132,-1.11467c1.33501,0 1.74133,0.23467 1.74133,1.17334c0,0.64534 0.23218,1.17334 0.46436,1.17334c0.5224,0 4.17919,-7.33339 4.17919,-8.3894c0,-1.23201 -3.42461,-8.0374 -4.0631,-8.0374c-0.34826,0 -0.58045,2.28802 -0.58045,6.16005v6.16005h-1.74133h-1.74132v-6.16005c0,-5.69072 -0.05805,-6.16005 -1.10285,-6.16005c-1.33501,0 -2.03155,-0.88 -1.56719,-2.05335c0.23218,-0.64534 1.33501,-0.88001 4.35333,-0.88001z" data-paper-data="{&quot;origPos&quot;:null}"/><path d="M250.29735,168.72546c2.20568,0.176 2.43786,0.352 4.17919,3.69603c3.48266,6.51206 3.54071,7.1574 0.98675,12.61344c-1.21893,2.64002 -2.67004,5.04537 -3.19243,5.33871c-1.62524,0.88 -4.35333,0.58667 -5.28203,-0.52801c-1.0448,-1.17334 -4.52746,-8.0374 -4.52746,-8.9174c0,-0.29334 0.87067,-0.58668 1.91546,-0.58668c1.74133,0 2.03155,0.29333 3.65679,3.63736l1.79937,3.69603l1.85742,-3.63736c0.98675,-1.99469 1.79937,-4.04803 1.79937,-4.51737c0,-1.23201 -3.0183,-7.39206 -3.59874,-7.39206c-0.29023,0 -1.16088,1.46668 -2.03155,3.2267c-1.45111,2.93336 -1.74132,3.22669 -3.48266,3.22669c-1.0448,0 -1.91546,-0.11733 -1.91546,-0.29333c0,-0.76268 4.29528,-8.85874 4.87572,-9.26941c0.34826,-0.23467 1.68329,-0.352 2.96026,-0.29334z" data-paper-data="{&quot;origPos&quot;:null}"/><path d="M266.08539,168.60813h1.33502v9.03474c0,6.04271 0.23218,9.21074 0.63849,9.50408c1.16088,0.704 1.68329,-1.17334 1.68329,-6.39472v-5.16271l1.62524,0.17601c1.5672,0.176 1.56719,0.176 1.85742,5.69071c0.17413,3.63737 0.5224,5.63205 0.98675,5.74938c0.5224,0.23467 0.75457,-1.99469 0.87066,-9.03474l0.17413,-9.26941h1.74133h1.74133l0.17413,6.62939l0.17414,6.68805l-2.49591,4.34137l-2.49591,4.34137h-4.17919c-4.0631,0 -4.23723,-0.05867 -5.1079,-1.76002c-0.63849,-1.29068 -0.87067,-3.81336 -0.87067,-10.73609c0,-4.92804 0.17413,-9.21075 0.40631,-9.38674c0.17413,-0.23467 0.98675,-0.41067 1.74133,-0.41067z" data-paper-data="{&quot;origPos&quot;:null}"/><path d="M292.66968,168.60813c5.22398,0 5.45617,0.05867 6.6751,1.58401c1.5672,2.05335 1.27698,3.34403 -0.75458,3.5787c-1.27698,0.176 -1.74132,-0.05867 -1.9735,-0.99734c-0.29023,-1.05601 -0.75458,-1.23201 -3.71484,-1.23201c-1.91546,0 -3.42461,0.176 -3.42461,0.41067c0,0.176 1.04479,1.76001 2.37981,3.46136c2.08959,2.75735 2.32177,3.34402 2.14763,5.86671l-0.17413,2.75736l-4.17919,-5.39738c-4.35333,-5.57338 -4.99181,-7.39207 -3.30852,-9.09341c0.69653,-0.704 2.14763,-0.93867 6.32682,-0.93867z" data-paper-data="{&quot;origPos&quot;:null}"/><path d="M328.30891,168.60813h7.54576h7.60381v1.70135c0,2.64002 -0.58044,3.5787 -2.14764,3.5787c-0.9287,0 -1.56719,-0.41067 -1.74132,-1.17335c-0.5224,-2.11202 -1.91546,-1.34934 -1.91546,0.99735v2.17068l-2.20568,-2.17068c-2.49591,-2.46402 -3.59874,-2.75736 -3.59874,-0.93868c0,0.93867 -0.29023,1.17334 -1.5672,0.99734c-1.45111,-0.176 -1.62524,-0.41067 -1.79937,-2.69869z" data-paper-data="{&quot;origPos&quot;:null}"/><path d="M357.67933,168.72546c2.26373,0.176 2.37981,0.352 4.46941,4.2827c1.21893,2.22935 2.20568,4.2827 2.20568,4.51737c0,0.29334 -0.87066,0.46934 -1.91546,0.46934c-1.74133,0 -2.0896,-0.29334 -3.30853,-2.93336c-0.75458,-1.64268 -1.56719,-2.93336 -1.85741,-2.93336c-0.75458,0 -3.36656,5.74939 -3.36656,7.45073c0.05805,0.88001 0.81262,3.10935 1.68328,4.86937l1.68329,3.2267l1.62524,-3.40269c1.50916,-3.05069 1.79937,-3.34402 3.5407,-3.34402c1.0448,0 1.91546,0.29333 1.91546,0.58667c0,1.29067 -4.0631,8.68273 -4.93376,9.03474c-1.79937,0.64534 -4.17919,0.35201 -5.04985,-0.704c-1.68329,-1.87735 -4.52746,-8.27207 -4.52746,-10.09075c0,-1.81868 3.65679,-9.91475 4.87572,-10.73609c0.34827,-0.23467 1.68329,-0.352 2.96026,-0.29334z" data-paper-data="{&quot;origPos&quot;:null}"/><path d="M392.79612,168.60813h2.14763c1.85742,0 2.43786,0.352 3.71483,2.22935c1.50916,2.17068 2.84418,5.45604 2.84418,6.92272c0,0.46934 -0.63849,0.82134 -1.45111,0.82134c-1.0448,0 -1.50916,-0.41066 -1.79937,-1.46667c-0.17413,-0.76268 -0.69653,-1.70135 -1.16088,-2.11202c-0.69653,-0.58667 -0.81262,0.58667 -0.81262,7.62673v8.33074l-1.56719,-0.176l-1.62524,-0.176l-0.17413,-11.02942z" data-paper-data="{&quot;origPos&quot;:null}"/><path d="M405.62391,168.60813h2.26373v10.38408c0,5.74938 -0.23218,10.79476 -0.52239,11.20543c-0.23218,0.46934 -1.10285,0.704 -1.85742,0.58667c-1.39306,-0.176 -1.39306,-0.23467 -1.45111,-7.80273c-0.05805,-5.39738 -0.40631,-8.3894 -1.0448,-10.20808c-0.69653,-1.93601 -0.75457,-2.75736 -0.29023,-3.34403c0.34827,-0.46934 1.68329,-0.82134 2.90222,-0.82134z" data-paper-data="{&quot;origPos&quot;:null}"/><path d="M421.76023,168.60813c1.62524,0 1.68329,0.05866 4.52745,10.38408c1.62524,5.74938 2.78613,10.79476 2.612,11.20543c-0.11609,0.41067 -0.92871,0.704 -1.79937,0.58667c-1.21893,-0.11734 -1.62524,-0.58668 -2.03155,-2.40535c-0.5224,-2.11201 -0.58044,-2.17068 -3.30852,-2.17068c-2.78613,0 -2.78613,0 -3.42462,2.34668c-0.5224,1.93601 -0.87066,2.34669 -2.08959,2.34669c-1.85742,0 -2.20568,-1.05601 -1.39306,-4.1067c1.45111,-5.39738 1.45111,-5.39738 3.83092,-4.40004c2.96026,1.23201 5.1079,1.17335 4.5855,-0.176c-0.17413,-0.52801 -0.5224,-1.70135 -0.69653,-2.64002c-0.40631,-1.93601 -1.33502,-2.69869 -1.33502,-1.05601c0,1.34934 -0.40631,1.46668 -2.55394,0.64534c-1.45111,-0.52801 -1.45111,-0.52801 -0.63849,-3.34403c0.46436,-1.52534 1.16088,-3.81337 1.45111,-5.04538c0.5224,-1.87735 0.87067,-2.17068 2.26373,-2.17068z" data-paper-data="{&quot;origPos&quot;:null}"/><path d="M435.74891,168.60813h6.32683c6.26878,0 6.38488,0 7.60381,1.58401c2.49591,3.16803 0.40631,8.3894 -3.30853,8.3894c-1.0448,0 -1.39306,0.23467 -1.16088,0.82134c0.58044,1.46668 -3.1344,1.46668 -4.35333,0.05867c-0.98675,-1.11468 -0.98675,-0.93867 -1.04479,4.40004c0,3.05069 -0.23218,5.92539 -0.5224,6.33605c-0.23218,0.46934 -1.10285,0.704 -1.85742,0.58667l-1.39306,-0.176l-0.17413,-11.02942zM443.17858,171.65882l-3.36656,-0.176v2.11202v2.11202l3.36656,-0.176c3.25048,-0.176 3.30852,-0.176 3.30852,-1.93602c0,-1.76002 -0.05804,-1.76002 -3.30852,-1.93601z" data-paper-data="{&quot;origPos&quot;:null}"/><path d="M464.48084,168.60813c5.22398,0 5.45616,0.05867 6.67509,1.58401c1.5672,2.05335 1.27698,3.34403 -0.75457,3.5787c-1.27698,0.176 -1.74133,-0.05867 -1.97351,-0.99734c-0.29023,-1.05601 -0.75458,-1.23201 -3.59874,-1.23201c-1.79937,0.05866 -3.88897,0.41067 -4.70159,0.88001c-0.81262,0.46934 -1.79937,0.82135 -2.14764,0.88001c-1.0448,0 -0.9287,-2.69869 0.17414,-3.7547c0.69653,-0.704 2.14763,-0.93867 6.32683,-0.93867z" data-paper-data="{&quot;origPos&quot;:null}"/><path d="M464.24867,176.11752c2.08959,2.40536 7.02337,9.15207 7.54576,10.32542c0.58044,1.17334 0.5224,1.76002 -0.29023,2.99203c-0.9287,1.40801 -1.21893,1.46668 -6.44292,1.46668c-6.09465,0 -7.83598,-0.82134 -7.83598,-3.81336c0,-1.23201 0.29023,-1.46668 1.68329,-1.46668c1.16088,0 1.74133,0.352 1.97351,1.17334c0.23218,0.99734 0.81262,1.17334 3.83092,1.17334c1.97351,0 3.54071,-0.11733 3.54071,-0.352c0,-0.176 -1.45111,-2.17069 -3.30853,-4.51737c-1.79937,-2.34669 -3.48266,-4.51737 -3.77288,-4.92804c-0.34827,-0.46934 0,-0.93867 1.10285,-1.58401c0.87066,-0.46934 1.79937,-0.64534 1.97351,-0.46934z" data-paper-data="{&quot;origPos&quot;:null}"/><path d="M333.59094,176.05886l1.91546,1.46668l1.85742,1.52535v5.74938c0,5.69072 -0.05804,5.80805 -1.39306,5.98405c-0.75458,0.11734 -1.62524,-0.11733 -1.85742,-0.58667c-0.29023,-0.41067 -0.5224,-3.7547 -0.5224,-7.45073z" data-paper-data="{&quot;origPos&quot;:null}"/><path d="M185.57796,180.92823c1.74133,0 1.74133,0 1.74133,3.46136v3.52003l2.78612,0.176c2.26373,0.176 2.72809,0.35201 2.72809,1.34935c0,1.11467 -0.40631,1.17334 -7.25554,1.17334c-6.84922,0 -7.25553,-0.05867 -7.25553,-1.17334c0,-0.99734 0.46435,-1.17335 2.78612,-1.34935l2.72809,-0.176v-3.52003c0,-3.46136 0,-3.46136 1.74132,-3.46136z" data-paper-data="{&quot;origPos&quot;:null}"/><path d="M298.12587,183.50958c0.63849,0.58667 1.4511,1.81869 1.79937,2.75736c0.58044,1.40801 0.58045,1.93601 -0.23218,3.16803c-0.9287,1.40801 -1.21893,1.46668 -6.44291,1.46668c-6.09465,0 -7.83599,-0.82134 -7.83599,-3.81336c0,-1.23201 0.29023,-1.46668 1.68329,-1.46668c1.16088,0 1.74133,0.352 1.97351,1.17334c0.23218,0.99734 0.81262,1.17334 3.77288,1.17334c3.77287,0 4.17919,-0.352 4.17919,-3.63736c0,-1.76002 0.05805,-1.76002 1.10285,-0.82134z" data-paper-data="{&quot;origPos&quot;:null}"/><path d="M446.48711,185.03493c1.74133,0 2.14763,0.29334 3.07635,2.17068c1.33502,2.64002 1.10284,3.69603 -0.75458,3.69603c-1.0448,0 -1.79937,-0.70401 -2.90222,-2.52269c-0.81262,-1.40801 -1.45111,-2.75736 -1.45111,-2.93336c0,-0.23467 0.92871,-0.41067 2.03155,-0.41067z" data-paper-data="{&quot;origPos&quot;:null}"/><path d="M278.85515,186.20827c0.63849,0 -0.05805,1.76002 -1.33501,3.2267l-1.45111,1.76002l1.27698,-2.52269c0.75458,-1.34935 1.39306,-2.46402 1.50915,-2.46402z" data-paper-data="{&quot;origPos&quot;:null}"/><path d="M18.06207,187.96829c2.78613,0 3.48266,0.46934 2.90222,1.99469c-0.23218,0.64534 -1.10285,0.93867 -2.90222,0.93867c-2.32178,0 -2.55394,-0.11733 -2.55394,-1.46668c0,-1.34935 0.23218,-1.46668 2.55394,-1.46668z" data-paper-data="{&quot;origPos&quot;:null}"/><path d="M104.31594,188.08562c2.14764,0.176 2.61199,0.35201 2.61199,1.34935c0,1.05601 -0.46436,1.17334 -4.0631,1.34934l-4.00505,0.176l1.39306,-1.52535c1.16088,-1.29068 1.85742,-1.46668 4.0631,-1.34935z" data-paper-data="{&quot;origPos&quot;:null}"/></g></g></svg>