<svg version="1.1" xmlns="http://www.w3.org/2000/svg" xmlns:xlink="http://www.w3.org/1999/xlink" width="433.1" height="51.20085" viewBox="0,0,433.1,51.20085"><g transform="translate(-23.4,-155.39915)"><g data-paper-data="{&quot;isPaintingLayer&quot;:true}" fill="#ffffff" fill-rule="nonzero" stroke="none" stroke-width="none" stroke-linecap="butt" stroke-linejoin="miter" stroke-miterlimit="10" stroke-dasharray="" stroke-dashoffset="0" font-family="none" font-weight="none" font-size="none" text-anchor="none" style="mix-blend-mode: normal"><path d="M23.4,155.5h13.93286l-0.12222,5.7c-0.12222,5.2 -0.2037,5.8 -1.05922,6.1c-1.1407,0.4 -2.11845,-1.4 -2.11845,-3.9c0,-1.4 -0.28518,-1.9 -1.01848,-1.9h-1.01848l-0.03531,9.62155c-0.86305,-0.23686 -1.84453,-0.37155 -2.9607,-0.37155c-0.07704,0 -0.15343,0.00064 -0.22919,0.00191l-0.03396,-9.25192h-1.01848c-0.73331,0 -0.97774,0.6 -1.09996,2.7c-0.12222,2.5 -0.28518,2.8 -1.5481,2.8h-1.42588l-0.12222,-5.8z" data-paper-data="{&quot;origPos&quot;:null}" stroke-width="1"/><path d="" data-paper-data="{&quot;origPos&quot;:null}" stroke-width="0.5"/><path d="M91.88285,200.5h2.40362c2.6888,0 3.8295,1.8 2.89249,4.5c-0.44813,1.3 -1.58883,1.5 -7.08865,1.3l-6.55903,-0.3v-2.5c0,-2.4 0.12222,-2.5 2.56658,-2.8l2.52584,-0.3l0,-16.43574c1.33858,-0.31486 2.40676,-0.86833 3.25915,-1.55115z" data-paper-data="{&quot;origPos&quot;:null}" stroke-width="1"/><path d="" data-paper-data="{&quot;origPos&quot;:null}" stroke-width="1"/><path d="M117.14125,206.6l-4.15542,-0.6l-2.11845,-12c-0.14556,-0.81318 -0.29484,-1.64305 -0.44569,-2.47822c2.04086,-0.29994 4.20303,-1.43712 6.31428,-2.76544c0.11132,0.13156 0.22763,0.26322 0.34909,0.39493z" data-paper-data="{&quot;origPos&quot;:null}" stroke-width="1"/><path d="M106.34531,206h-2.85176l-0.08414,-17.4163c0.82017,0.66106 1.75621,1.3105 2.95961,2.11276c0.0526,0.03507 0.10542,0.06902 0.15844,0.10187z" data-paper-data="{&quot;origPos&quot;:null}" stroke-width="1"/><path d="M126.30758,206h-2.85176l-0.06551,-13.56102c1.09897,0.05252 2.1271,-0.13594 3.04217,-0.43872z" data-paper-data="{&quot;origPos&quot;:null}" stroke-width="1"/><path d="M150.05863,155.5c5.29612,0 6.59977,0.3 7.00717,1.5c0.937,2.7 -0.2037,4.5 -2.89249,4.5h-2.40362l0,11.55394c-0.89635,-0.22549 -1.9166,-0.33751 -3.07785,-0.2988c-0.06085,0.00203 -0.12128,0.00444 -0.1813,0.00724v-11.26238h-2.44436c-0.10046,0 -0.19798,-0.00169 -0.29261,-0.00513l1.31238,-1.00267c0,0 1.23302,-2.21944 1.2443,-4.97875c0.52095,-0.00929 1.0953,-0.01345 1.72838,-0.01345z" data-paper-data="{&quot;origPos&quot;:null}" stroke-width="1"/><path d="M163.1767,155.5h4.35911l1.29355,7.22628c-0.37679,1.2047 -0.69169,2.48794 -0.99883,3.74961c-0.91466,-0.4903 -1.88322,-0.91047 -2.90542,-1.25121c0,0 -0.67724,-0.22575 -1.71814,-0.36367z" data-paper-data="{&quot;origPos&quot;:null}" stroke-width="1"/><path d="M163.38039,206l-0.00053,-0.11065c0.02504,0.03691 0.05021,0.07379 0.07553,0.11065z" data-paper-data="{&quot;origPos&quot;:null}" stroke-width="1"/><path d="M191.69425,200.5h2.40362c2.6888,0 3.8295,1.8 2.89249,4.5c-0.44813,1.3 -1.58883,1.5 -7.08865,1.3l-6.55903,-0.3v-2.5c0,-2.4 0.12222,-2.5 2.56658,-2.8l2.52584,-0.3v-7.31515c0.86565,0.14552 2.01885,0.24369 3.25915,0.08535z" data-paper-data="{&quot;origPos&quot;:null}" stroke-width="1"/><path d="M211.45283,206h-2.85176l-0.1019,-18.59253c0.79653,0.61734 1.8292,1.25619 3.04649,1.65477z" data-paper-data="{&quot;origPos&quot;:null}" stroke-width="1"/><path d="M204.73083,167h-1.42588l-0.01108,-0.52573c0.43329,-0.11132 0.86797,-0.22427 1.20613,-0.22427c0.46823,0 1.00234,-0.03313 1.57154,-0.07723c-0.18772,0.70873 -0.54696,0.82723 -1.34071,0.82723z" data-paper-data="{&quot;origPos&quot;:null}" stroke-width="1"/><path d="M210.97417,166.09189c-0.05169,-0.02835 -0.10364,-0.05609 -0.15586,-0.08312c0.28919,0.03054 0.56453,0.07521 0.82117,0.13749l-0.00013,0.03596c-0.2093,-0.04225 -0.45967,-0.08418 -0.66518,-0.09033z" data-paper-data="{&quot;origPos&quot;:null}" stroke-width="1"/><path d="M231.53733,194.2c-0.12222,11.5 -0.16296,11.8 -1.05922,12.1c-1.83327,0.7 -2.11845,-1.2 -2.11845,-13.3v-7.895c0.53238,0.09527 1.08055,0.145 1.64034,0.145c0.55642,0 1.10136,-0.04913 1.63072,-0.14328z" data-paper-data="{&quot;origPos&quot;:null}" stroke-width="1"/><path d="M266.77686,200.2c-0.65183,4.8 -0.97774,5.9 -1.83327,6.1c-0.52961,0.2 -1.26292,-0.4 -1.5481,-1.3c-0.32631,-0.98581 -0.26599,-3.22434 0.80032,-12.58628c0.8118,0.96415 1.89141,1.84442 3.31608,2.37355z" data-paper-data="{&quot;origPos&quot;:null}" stroke-width="0.5"/><path d="M273.1322,199.4l-0.46492,-4.3015c0.00282,-0.00052 0.00565,-0.00104 0.00847,-0.00156c0.37621,-0.0693 0.734,-0.1513 1.07425,-0.24482c0,2.71596 0,5.43192 0,8.14788l0.00474,0.78221c-0.22304,-1.16662 -0.45708,-2.75758 -0.62254,-4.38221z" data-paper-data="{&quot;origPos&quot;:null}" stroke-width="0.5"/><path d="M289.67237,168.7c3.91098,22.1 3.6258,21.9 3.87024,3.3l0.2037,-16h2.85176l0.11418,23.63584c-0.35914,0.51343 -0.68086,0.97667 -0.96225,1.36416c-0.5876,0.80915 0,2 0,3c0,2.33333 0,4.66667 0,7c0,1 0,2 0,3c0,1.1691 0.21689,2.28755 0.61263,3.3173c0.11471,0.33761 0.25089,0.68535 0.41258,1.03518l0.02656,8.24752l-4.15542,-0.6l-0.40381,-2.28738l0.00746,-0.71262c0,-5.5 0,-11 0,-16.5c-1.03472,-2.31021 -1.92851,-4.69066 -3,-6.98254c0,-2.17249 0,-4.34497 0,-6.51746c0,-2.21984 0,-4.43969 0,-6.65953z" data-paper-data="{&quot;origPos&quot;:null}" stroke-width="1"/><path d="" data-paper-data="{&quot;origPos&quot;:null}" stroke-width="0.5"/><path d="M342.83722,155.5h5.13316c5.62203,0 6.80347,0.9 8.06639,6c0.38992,1.66457 0.60348,4.21232 0.64946,6.83614c-0.67471,0.86999 -1.19762,1.86361 -1.529,2.94111l-0.93255,2.79765l0.13949,0.0465c-0.04854,0.20303 -0.09699,0.40607 -0.14474,0.60925c-0.25321,-0.03053 -0.51767,-0.03343 -0.79432,-0.00596c-0.22758,0.0226 0.43752,0.41874 0.66787,0.55364c-0.00034,0.00151 -0.00068,0.00302 -0.00102,0.00453c-0.43729,-0.23178 -0.86912,-0.45854 -1.29761,-0.67818c-2.22409,-1.14004 -4.35811,-2.08818 -6.69797,-2.55068c-0.988,-0.19529 -2.0127,-0.30399 -3.09637,-0.30399c0,0 -0.05726,0 -0.16278,0.00451z" data-paper-data="{&quot;origPos&quot;:null}" stroke-width="0.5"/><path d="M362.7995,155.5h6.68125c5.41833,0 6.76273,0.3 7.17013,1.5c0.17215,0.50707 0.27155,0.90701 0.29821,1.29036c-0.45783,0.89359 -0.74086,1.79139 -0.91582,2.55992c-0.72543,0.50215 -2.12278,0.64973 -4.92295,0.64973h-5.05168v3.47992c-0.66204,-0.15046 -1.35107,-0.22991 -2.05865,-0.22991c-0.40684,0 -0.80754,0.02626 -1.2005,0.07719z" data-paper-data="{&quot;origPos&quot;:null}" stroke-width="1"/><path d="M391.23557,194.2c-0.12222,11.5 -0.16296,11.8 -1.05922,12.1c-1.83327,0.7 -2.11845,-1.2 -2.11845,-13.3l0,-4.1488c1.36091,-0.38961 2.42272,-1.03552 3.25116,-1.80623z" data-paper-data="{&quot;origPos&quot;:null}" stroke-width="1"/><path d="M394.30582,173.28168c-0.0185,0.05666 -0.03711,0.11357 -0.05582,0.17073c0,-0.05351 0,-0.10703 0,-0.16054c0.01863,-0.0034 0.03723,-0.00679 0.05582,-0.01018z" data-paper-data="{&quot;origPos&quot;:null}" stroke-width="1"/><path d="" data-paper-data="{&quot;origPos&quot;:null}" stroke-width="1"/><path d="M395.02432,155.5c1.30366,0 1.99623,2.3 1.99623,6.7c0,1.86776 -0.71061,4.8693 -2.46362,10.30777c-0.10146,0.01493 -0.20377,0.02999 -0.30693,0.0452c0,-3.18432 0,-6.36864 0,-9.55296c0,0 0,-1.88229 -0.8491,-3.94867c0.14276,-2.5495 0.6246,-3.55134 1.62342,-3.55134z" data-paper-data="{&quot;origPos&quot;:null}" stroke-width="1"/><path d="M406.82288,175.75c0.89762,-5.07765 2.23844,-12.04583 2.58243,-13.15c0.32592,-1 0.81479,0.6 2.15919,7.5h-0.00001c0.40149,1.97104 0.76864,3.94208 1.06195,5.65" data-paper-data="{&quot;origPos&quot;:null}" stroke-width="0.5"/><path d="M411.0849,194.16233c-0.61769,3.02015 -1.16991,5.33767 -1.35368,5.33767c-0.12122,0 -0.6708,-2.31043 -1.31331,-5.30002" data-paper-data="{&quot;origPos&quot;:null}" stroke-width="0.5"/><path d="M436.53773,206.6l-4.15542,-0.6l-2.11845,-12c-0.20177,-1.12718 -0.41067,-2.28644 -0.62102,-3.4474c1.01913,-0.57469 2.02447,-1.17269 3.013,-1.79636l0.9158,0.35927c0,0 1.34147,-0.23129 2.90646,-1.03103z" data-paper-data="{&quot;origPos&quot;:null}" stroke-width="1"/><path d="M422.68634,155.5h4.35911l1.87037,10.44865c-0.61812,-0.13018 -1.25897,-0.19865 -1.91582,-0.19865c-1.54313,0 -2.998,0.37787 -4.27714,1.04612z" data-paper-data="{&quot;origPos&quot;:null}" stroke-width="1"/><path d="M433.48227,156h2.85176l0.07365,15.24653c-0.80466,-0.85565 -1.75466,-1.83568 -1.86695,-1.78727l-1,-1c-0.07036,-0.07036 -0.14186,-0.1396 -0.21445,-0.20768z" data-paper-data="{&quot;origPos&quot;:null}" stroke-width="1"/><path d="M425.74179,206h-2.85176l-0.058,-12.00556c1.03142,-0.46936 2.05604,-0.95575 3.07112,-1.46132z" data-paper-data="{&quot;origPos&quot;:null}" stroke-width="1"/><path d="M451.93719,157.1c1.50736,2.6 4.56281,18.6 4.56281,23.8c0,5.8 -3.34063,22.4 -4.88872,24.3c-0.65183,0.9 -2.36288,1.2 -4.88872,1.1c-3.8295,-0.3 -3.87024,-0.3 -3.87024,-2.8c0,-2 0.24444,-2.6 1.1407,-2.8l1.09996,-0.3v-19.5v-19.4h-1.01848c-1.09996,0 -1.67031,-2 -1.26292,-4.5c0.32591,-2.2 7.82195,-2.1 9.12561,0.1zM449.28914,161.7c-0.40739,-0.3 -0.52961,4 -0.52961,19.2c0,12.3 0.16296,19.6 0.40739,19.6c0.57035,0 4.07393,-17.5 4.07393,-20.2c-0.04074,-1.3 -0.81479,-5.9 -1.75179,-10.2c-0.937,-4.4 -1.95549,-8.2 -2.19992,-8.4z" data-paper-data="{&quot;origPos&quot;:null}" stroke-width="1"/></g></g></svg>