<svg version="1.1" xmlns="http://www.w3.org/2000/svg" xmlns:xlink="http://www.w3.org/1999/xlink" width="84" height="84" viewBox="0,0,84,84"><g transform="translate(-198,-138)"><g data-paper-data="{&quot;isPaintingLayer&quot;:true}" fill-rule="nonzero" stroke-linecap="butt" stroke-linejoin="miter" stroke-miterlimit="10" stroke-dasharray="" stroke-dashoffset="0" style="mix-blend-mode: normal"><path d="M200.5,180c0,-21.81524 17.68476,-39.5 39.5,-39.5c21.81525,0 39.5,17.68476 39.5,39.5c0,21.81525 -17.68475,39.5 -39.5,39.5c-21.81524,0 -39.5,-17.68475 -39.5,-39.5z" fill="#cccccc" stroke="#ffffff" stroke-width="5"/><path d="M218.30959,160.8484l-14.39513,-12.90574l5.92966,-6.61398l14.39513,12.90574z" fill="#ffffff" stroke="none" stroke-width="0"/><path d="M256.58113,155.9011l14.39513,-12.90574l5.92966,6.61398l-14.39512,12.90574z" data-paper-data="{&quot;index&quot;:null}" fill="#ffffff" stroke="none" stroke-width="0"/><path d="M261.84413,199.32869l14.39513,12.90574l-5.92966,6.61398l-14.39513,-12.90574z" data-paper-data="{&quot;index&quot;:null}" fill="#ffffff" stroke="none" stroke-width="0"/><path d="M222.23926,203.94267l-14.39513,12.90574l-5.92966,-6.61398l14.39512,-12.90574z" data-paper-data="{&quot;index&quot;:null}" fill="#ffffff" stroke="none" stroke-width="0"/></g></g></svg>