<svg version="1.1" xmlns="http://www.w3.org/2000/svg" xmlns:xlink="http://www.w3.org/1999/xlink" width="470.93529" height="22.3522"><g transform="translate(-5.20057,-169.02091)"><g data-paper-data="{&quot;isPaintingLayer&quot;:true}" fill="#ffffff" fill-rule="nonzero" stroke="none" stroke-width="1" stroke-linecap="butt" stroke-linejoin="miter" stroke-miterlimit="10" stroke-dasharray="" stroke-dashoffset="0" font-family="none" font-weight="none" font-size="none" text-anchor="none" style="mix-blend-mode: normal"><path d="M7.37125,169.07957c1.23201,0 1.34935,0.23467 1.34935,2.93336c0,2.87469 -0.05867,2.93335 -1.76002,2.93335c-1.70134,0 -1.76001,-0.11733 -1.76001,-2.52268c0,-1.40801 0.176,-2.75736 0.41067,-2.93336c0.176,-0.23467 0.99733,-0.41067 1.76001,-0.41067z" data-paper-data="{&quot;origPos&quot;:null}"/><path d="M34.53415,169.07957c1.58402,0 1.64268,0.11733 4.51737,10.38408c1.64268,5.74938 2.81602,10.79476 2.64002,11.20543c-0.11733,0.41067 -0.93868,0.70401 -1.81868,0.58667c-1.23201,-0.11733 -1.64268,-0.58667 -2.05335,-2.40535c-0.46934,-1.87735 -0.76267,-2.17069 -2.22935,-2.17069c-1.34934,0 -1.64269,-0.23467 -1.64269,-1.46668c0,-1.11468 0.29334,-1.46667 1.23202,-1.46667c0.93868,0 1.17334,-0.23467 0.82134,-1.05601c-0.176,-0.52801 -0.52801,-1.70135 -0.70401,-2.64002c-0.352,-1.76002 -1.34934,-2.75735 -1.34934,-1.34934c0,0.704 -0.58667,0.93867 -2.11201,0.93867c-1.70134,0 -1.99469,-0.176 -1.76001,-1.05601c0.176,-0.52801 0.88001,-2.93336 1.52534,-5.28005c1.17334,-3.9307 1.40801,-4.22404 2.93336,-4.22404z" data-paper-data="{&quot;origPos&quot;:null}"/><path d="M50.78495,169.07957c0.93868,0 1.34934,0.35201 1.34934,1.17335c0,0.93867 -0.41067,1.17334 -1.76002,1.17334c-1.64268,0 -2.34669,-0.99734 -1.34934,-1.93601c0.176,-0.23467 0.99734,-0.41067 1.76002,-0.41067z" data-paper-data="{&quot;origPos&quot;:null}"/><path d="M61.93171,169.1969l1.64268,0.176v9.85609c0,9.68008 0,9.91474 -1.40801,11.02942c-1.05601,0.88001 -2.28802,1.11468 -6.10138,1.11468c-4.04803,0 -4.92804,-0.176 -6.10138,-1.29068c-1.23201,-1.17335 -1.34934,-1.76001 -1.34934,-7.33339v-6.04272h1.76002h1.76002v5.22137c0,6.10138 0.41067,6.68806 4.51737,6.39472l2.81602,-0.176l0.176,-8.80008c0.05866,-4.86937 0.23467,-9.15207 0.41067,-9.56274c0.176,-0.46934 0.93867,-0.70401 1.87735,-0.58667z" data-paper-data="{&quot;origPos&quot;:null}"/><path d="M70.32113,169.07957h2.46402h2.52269l2.93336,7.1574l2.93336,7.15739l0.176,-4.51737l0.17601,-4.51737h1.99468h2.05335v8.50674v8.50674h-2.58136h-2.58136l-2.87469,-6.80539l-2.81602,-6.86406l-0.11733,5.51471c-0.23467,7.56806 -0.41067,8.27207 -2.40535,8.0374l-1.58401,-0.17601l-0.17601,-11.02942z" data-paper-data="{&quot;origPos&quot;:null}"/><path d="M103.93741,169.1969c2.58136,0.176 3.05069,0.352 3.05069,1.34934c0,1.64268 -4.16537,2.05335 -5.33871,0.46934c-0.41067,-0.58667 -0.82134,-1.29067 -0.82134,-1.52534c0,-0.23467 1.40801,-0.41067 3.10936,-0.29334z" data-paper-data="{&quot;origPos&quot;:null}"/><path d="M115.90551,169.07957c1.29067,0 1.34934,0.17601 1.34934,4.98671v4.98671h3.81337h3.75469l0.17601,-4.86937c0.176,-4.57604 0.23467,-4.81071 1.58401,-4.98671c0.76267,-0.11733 1.64268,0.11734 1.87735,0.58667c0.64534,0.99734 0.64534,19.88816 0,20.8855c-0.23467,0.46934 -1.11468,0.70401 -1.87735,0.58667c-1.34934,-0.176 -1.40801,-0.41067 -1.58401,-4.81071l-0.17601,-4.6347l-5.51471,0.352l-5.57338,0.35201v-6.33606c0,-3.46136 0.176,-6.51206 0.41067,-6.68805c0.176,-0.23467 0.99734,-0.41067 1.76001,-0.41067z" data-paper-data="{&quot;origPos&quot;:null}"/><path d="M159.31918,169.07957c1.05601,0 1.34934,0.29333 1.34934,1.46668c0,1.23201 -0.29334,1.46668 -1.76002,1.46668c-1.29067,0 -1.76002,-0.29334 -1.76002,-1.05601c0,-0.58667 0.176,-1.29068 0.41067,-1.46668c0.176,-0.23467 0.99734,-0.41067 1.76002,-0.41067z" data-paper-data="{&quot;origPos&quot;:null}"/><path d="M170.64194,169.1969l1.46668,0.176l0.176,9.26941c0.11733,8.62407 0.05867,9.38674 -1.056,11.02943c-1.23201,1.70135 -1.34935,1.70135 -6.74673,1.70135c-5.51471,0 -5.51471,0 -6.45338,-1.76001c-0.58667,-1.17335 -0.88001,-3.40269 -0.88001,-7.33339v-5.57338h1.76002h1.76002v5.22137c0,3.2267 0.23467,5.39738 0.64534,5.69072c1.17335,0.704 1.70135,-1.11468 1.70135,-6.10138v-4.81071h1.76002h1.70135l0.176,5.39738c0.11733,3.63736 0.41067,5.45605 0.93867,5.63205c0.52801,0.176 0.704,-1.87735 0.704,-8.85874c0,-4.92804 0.176,-9.21074 0.41067,-9.44541c0.23467,-0.23467 1.11468,-0.35201 1.93601,-0.23467z" data-paper-data="{&quot;origPos&quot;:null}"/><path d="M180.61536,169.07957c0.88001,0 1.17334,0.41067 1.17334,1.46668c0,1.05601 -0.29334,1.46668 -1.11468,1.46668c-1.34934,0 -2.05335,-0.88001 -1.58401,-2.05335c0.176,-0.46934 0.88001,-0.88001 1.52535,-0.88001z" data-paper-data="{&quot;origPos&quot;:null}"/><path d="M183.54873,169.02091l5.16271,0.176c4.6347,0.176 5.10404,0.29334 5.10404,1.34934c0,0.99734 -0.46934,1.17335 -2.75736,1.34934l-2.81602,0.176v8.15473v8.15474l2.81602,0.176c2.28802,0.176 2.75736,0.352 2.75736,1.34934c0,1.11468 -0.41067,1.17334 -7.33339,1.17334c-6.92272,0 -7.33339,-0.05866 -7.33339,-1.17334c0,-0.99734 0.46933,-1.17335 2.81602,-1.34934l2.75736,-0.176v-8.2134c0,-5.04538 -0.23467,-8.15473 -0.58667,-8.15473c-0.29334,0 -0.58667,-0.64534 -0.58667,-1.46668z" data-paper-data="{&quot;origPos&quot;:null}"/><path d="M200.56221,169.07957h2.46402h2.52269l2.93336,7.1574l2.93336,7.15739l0.176,-3.05069l0.176,-3.05069h2.05335h1.99469v7.04006v7.04006h-2.58136h-2.58136l-2.87469,-6.80539l-2.81602,-6.86406l-0.11734,5.51471c-0.23467,7.56806 -0.41066,8.27207 -2.40535,8.0374l-1.58401,-0.17601l-0.176,-11.02942z" data-paper-data="{&quot;origPos&quot;:null}"/><path d="M214.05563,169.1969c1.34934,0.176 1.46668,0.46934 1.64268,3.2267l0.176,3.10935h-2.05335h-2.11201v-2.81602c0,-1.58401 0.176,-3.05069 0.41067,-3.28536c0.23467,-0.23467 1.11468,-0.35201 1.93601,-0.23467z" data-paper-data="{&quot;origPos&quot;:null}"/><path d="M224.90906,169.07957h2.05335l-0.93867,1.46668c-1.46668,2.22935 -4.40004,1.70135 -3.52003,-0.58667c0.176,-0.52801 1.11468,-0.88001 2.40536,-0.88001z" data-paper-data="{&quot;origPos&quot;:null}"/><path d="M234.99983,174.00761c2.58136,5.10404 2.64002,7.21606 0.29334,11.7921c-2.64002,5.22137 -3.28537,5.63204 -8.38941,5.45604c-3.87203,-0.176 -4.34137,-0.29334 -4.34137,-1.34934c0,-0.76268 0.46934,-1.23201 1.34934,-1.34934c1.23201,-0.176 1.29068,-0.41067 1.29068,-7.09873v-6.92272l2.05335,-2.75736c3.2267,-4.1067 4.75204,-3.69603 7.74406,2.22935zM229.30911,172.01293c-0.352,0 -0.58667,2.93335 -0.58667,8.2134c0,4.51737 0.23467,8.2134 0.46934,8.2134c0.52801,0 4.22403,-7.33339 4.22403,-8.3894c0,-0.352 -0.76268,-2.34669 -1.76002,-4.40004c-0.93867,-1.99469 -1.99468,-3.63736 -2.34668,-3.63736z" data-paper-data="{&quot;origPos&quot;:null}"/><path d="M250.42928,171.42626c0,1.34934 -0.528,3.4027 -1.17334,4.69338c-1.58401,3.05069 -1.46668,4.92804 0.528,8.80007l1.70135,3.16803l1.81868,-3.63736c0.99734,-1.99469 1.81868,-3.98936 1.81868,-4.51737c0,-0.52801 -0.64534,-2.22935 -1.46668,-3.81337c-1.76002,-3.52003 -1.99468,-7.21606 -0.41067,-6.92273c1.05601,0.176 4.34137,5.80805 5.45605,9.38675c0.64534,1.93601 0.528,2.52269 -1.58401,6.92272c-1.23201,2.64002 -2.69869,5.04538 -3.2267,5.33871c-1.64268,0.88001 -4.40004,0.58667 -5.33871,-0.52801c-1.70135,-1.87735 -4.57604,-8.27207 -4.57604,-10.09075c0,-1.81868 3.69603,-9.91474 4.92804,-10.67742c1.23201,-0.82134 1.52534,-0.46934 1.52534,1.87734z" data-paper-data="{&quot;origPos&quot;:null}"/><path d="M267.85342,169.07957c1.34935,0 1.34934,0.05867 1.34934,6.39472c0,5.98405 -0.11733,6.51206 -1.29068,7.33339c-0.704,0.52801 -1.52535,0.93868 -1.76002,0.93868c-0.58667,0 -0.64534,-13.72812 -0.05867,-14.25612c0.176,-0.23467 0.99734,-0.41067 1.76002,-0.41067z" data-paper-data="{&quot;origPos&quot;:null}"/><path d="M279.17619,169.1969l1.46667,0.176l0.17601,9.26941c0.11734,8.62407 0.05866,9.38674 -1.05601,11.02943c-1.23201,1.70135 -1.34934,1.70135 -6.74672,1.70135c-5.51471,0 -5.51472,0 -6.45339,-1.76001c-1.23201,-2.34669 -1.11467,-3.2267 0.58667,-4.34137c1.87735,-1.23201 2.05335,-1.17335 2.05335,0.46934c0,1.70135 1.11468,2.58136 1.81868,1.46668c0.29334,-0.46934 0.52801,-3.16802 0.52801,-5.98405v-5.16271l1.64268,0.17601c1.58402,0.176 1.58401,0.176 1.87735,5.69071c0.176,3.69603 0.528,5.63205 1.05601,5.80805c0.52801,0.176 0.70401,-1.87735 0.70401,-8.85874c0,-4.92804 0.176,-9.21074 0.41067,-9.44541c0.23467,-0.23467 1.11467,-0.35201 1.93601,-0.23467z" data-paper-data="{&quot;origPos&quot;:null}"/><path d="M293.60831,169.07957c4.22404,0 4.34136,0.05867 4.34136,1.46668c0,1.40801 -0.176,1.46668 -3.22669,1.46668c-1.76002,0 -3.2267,0.176 -3.2267,0.41067c0,0.29334 2.40536,3.46136 5.28005,7.09873c2.87469,3.69603 5.39738,7.21606 5.57338,7.80273c0.23467,0.64534 0,1.81868 -0.52801,2.58136c-0.93867,1.40801 -1.29068,1.46668 -6.51205,1.46668c-6.16005,0 -7.92007,-0.82134 -7.92007,-3.81337c0,-1.23201 0.29334,-1.46668 1.70135,-1.46668c1.17334,0 1.76002,0.352 1.99469,1.17334c0.23467,0.99734 0.82135,1.17334 3.87203,1.17334c1.99469,0 3.57869,-0.11733 3.57869,-0.29333c0,-0.176 -2.52269,-3.52003 -5.57338,-7.39206c-5.69072,-7.21606 -6.45338,-8.97607 -4.6347,-10.73609c0.64534,-0.704 2.11202,-0.93868 5.28005,-0.93868z" data-paper-data="{&quot;origPos&quot;:null}"/><path d="M330.74461,169.07957h6.16005c6.10138,0 6.10138,0 7.62673,1.76002c1.70135,2.05335 1.46668,3.52003 -0.64533,3.52003c-0.93867,0 -1.58402,-0.41067 -1.76002,-1.17334c-0.176,-0.64534 -0.64534,-1.17334 -1.11468,-1.17334c-0.64534,0 -0.82133,1.99468 -0.93867,9.50408l-0.17601,9.56274l-1.40801,0.17601c-0.76268,0.11733 -1.64268,-0.11734 -1.87735,-0.58667c-0.29334,-0.41067 -0.52801,-4.8107 -0.52801,-9.73874c0,-7.5094 -0.11733,-8.91741 -0.88,-8.91741c-0.46934,0 -0.88001,0.52801 -0.88001,1.23201c0,0.93867 -0.29333,1.17334 -1.58401,0.99734c-1.46668,-0.176 -1.64269,-0.41067 -1.81869,-2.69869z" data-paper-data="{&quot;origPos&quot;:null}"/><path d="M360.4302,169.1969c2.22935,0.176 2.46402,0.352 4.22404,3.69603c3.52003,6.51206 3.57869,7.1574 0.99734,12.61344c-2.34668,5.04538 -3.16802,5.86671 -5.98405,5.86671c-2.05335,0 -2.93336,-0.93867 -5.33871,-5.69071c-2.75736,-5.57338 -2.46402,-8.97608 0.82134,-8.97608c1.93601,0 1.93601,0.05867 1.64268,2.22935c-0.23467,1.76002 0.11733,3.05069 1.46668,5.69071l1.76002,3.46137l1.81868,-3.63736c0.99734,-1.99469 1.81868,-3.98937 1.81868,-4.45871c0,-1.17335 -3.05069,-7.39206 -3.5787,-7.39206c-0.29334,0 -0.64534,0.23467 -0.82134,0.58667c-0.176,0.29334 -1.29068,0.58667 -2.40535,0.58667h-2.05335l0.99734,-1.93601c0.52801,-0.99734 1.29068,-2.05335 1.64268,-2.34669c0.35201,-0.23467 1.70135,-0.352 2.99202,-0.29334z" data-paper-data="{&quot;origPos&quot;:null}"/><path d="M395.92382,169.07957h2.22935c1.81868,0 2.40535,0.352 3.63736,2.11202l1.40802,2.11202l1.70135,-2.11202c1.40801,-1.76002 2.05335,-2.11202 3.98936,-2.11202h2.28802v10.38408c0,5.74938 -0.23467,10.79476 -0.52801,11.20543c-0.23467,0.46934 -1.11467,0.70401 -1.87734,0.58667c-1.40801,-0.176 -1.40801,-0.29334 -1.70135,-8.3894l-0.29334,-8.2134l-1.05601,2.17068c-1.23201,2.75735 -3.69603,3.16803 -4.2827,0.76267c-0.176,-0.76268 -0.70401,-1.70135 -1.17334,-2.11202c-0.704,-0.58667 -0.82134,0.05867 -0.82134,4.1067v4.75204h-1.76002h-1.76002v-7.62673z" data-paper-data="{&quot;origPos&quot;:null}"/><path d="M425.19873,169.07957c1.52535,0 1.76002,0.29334 2.69869,3.63737c0.52801,1.99469 1.11467,3.98936 1.29067,4.34137c0.11734,0.41067 -0.528,1.17335 -1.46667,1.64268c-1.64268,0.82134 -1.81868,0.82134 -2.17069,-0.11733c-0.29334,-0.76268 -0.64534,-0.35201 -1.23201,1.64268c-0.41067,1.46668 -0.82134,2.81602 -0.82134,3.05069c0,1.05601 2.99202,0.35201 4.4587,-0.99734c0.88,-0.82134 1.81868,-1.29068 2.05335,-1.05601c0.82134,0.88001 2.75736,8.85874 2.28802,9.56275c-0.23467,0.352 -1.05601,0.58667 -1.81868,0.46934c-1.05601,-0.11733 -1.52535,-0.70401 -1.93601,-2.40535c-0.52801,-2.11202 -0.58667,-2.17069 -3.34403,-2.17069c-2.81603,0 -2.81602,0 -3.46136,2.34669c-0.52801,1.93601 -0.88001,2.34669 -2.11202,2.34669c-0.76268,0 -1.58401,-0.41067 -1.76001,-0.82134c-0.176,-0.46934 0.76267,-4.6347 2.11202,-9.26941c1.40801,-4.6347 2.75736,-9.26941 3.05069,-10.32542c0.41067,-1.52534 0.82134,-1.87735 2.17068,-1.87735z" data-paper-data="{&quot;origPos&quot;:null}"/><path d="M448.95893,169.07957c2.81603,0 3.34403,0.23467 4.4587,1.58402c2.46402,3.16803 0.41067,8.3894 -3.28536,8.3894c-0.76268,0 -1.40801,0.11734 -1.40801,0.17601c0,0.11733 1.29067,2.52268 2.87469,5.39737c3.05069,5.39738 3.22669,6.92273 0.76267,6.62939c-1.17334,-0.11733 -2.05335,-1.23201 -4.57604,-5.69071c-1.70135,-3.05069 -3.40269,-5.80805 -3.69603,-6.10139c-0.46934,-0.46934 -0.64534,0.99735 -0.64534,4.86938c0,6.21872 -0.352,7.21606 -2.40535,6.92272l-1.40801,-0.17601l-0.176,-9.26941l-0.17601,-9.21074h2.11202c1.87735,0 2.05335,0.11733 2.05335,1.76001v1.81868l3.40269,-0.176c3.28536,-0.176 3.34403,-0.176 3.34403,-1.93601c0,-1.58401 -0.176,-1.76002 -2.17068,-1.93602c-1.93601,-0.176 -2.22935,-0.41067 -2.22935,-1.64268c0,-1.29067 0.176,-1.40801 3.16803,-1.40801z" data-paper-data="{&quot;origPos&quot;:null}"/><path d="M468.37776,169.07957c5.28004,0 5.51471,0.05867 6.74672,1.58402c1.58402,2.05335 1.29068,3.34402 -0.76267,3.57869c-1.29068,0.176 -1.76002,-0.05866 -1.99469,-0.99734c-0.29334,-1.05601 -0.76267,-1.23201 -3.7547,-1.23201c-1.93601,0 -3.46137,0.176 -3.46137,0.41067c0,0.29334 2.40536,3.46136 5.28005,7.09873c2.87469,3.69603 5.39738,7.21606 5.57338,7.80273c0.23467,0.64534 0,1.81868 -0.52801,2.58136c-0.88,1.34934 -1.34934,1.46668 -5.04537,1.46668c-3.98937,0 -4.1067,-0.05867 -4.1067,-1.46668c0,-1.34934 0.176,-1.46668 2.93336,-1.46668c1.64268,0 2.93336,-0.11733 2.93336,-0.29333c0,-0.176 -2.52269,-3.52003 -5.57338,-7.39206c-5.69072,-7.21606 -6.45338,-8.97607 -4.6347,-10.73609c0.704,-0.704 2.17068,-0.93868 6.39472,-0.93868z" data-paper-data="{&quot;origPos&quot;:null}"/><path d="M301.8217,171.13292c0.99734,1.29067 0.88001,2.69869 -0.176,3.10936c-0.52801,0.11733 -0.76268,-0.46934 -0.76268,-2.05335c0.05867,-2.11202 0.05867,-2.17068 0.93867,-1.05601z" data-paper-data="{&quot;origPos&quot;:null}"/><path d="M96.13468,171.42626c0.176,0 0.76267,0.70401 1.29067,1.58401c0.88,1.52534 0.88001,1.76002 -0.176,3.69603c-1.46668,2.81602 -1.40801,4.16537 0.64534,8.2134l1.76001,3.46137l3.63736,0.176c3.2267,0.176 3.69603,0.29334 3.69603,1.34934c0,1.05601 -0.41067,1.17334 -4.40004,1.29067c-2.81602,0.11733 -4.75204,-0.11733 -5.33871,-0.58667c-1.34934,-1.05601 -5.22137,-8.5654 -5.22137,-10.14941c0,-0.76268 0.82134,-3.10936 1.87735,-5.22138c1.05601,-2.11202 2.05335,-3.81337 2.22935,-3.81337z" data-paper-data="{&quot;origPos&quot;:null}"/><path d="M5.20057,184.33303h1.76001c1.64268,0 1.76002,0.176 1.76002,2.05335v2.05335h5.51471c5.63205,0 6.51206,0.29334 5.86672,1.99469c-0.29333,0.76268 -1.52535,0.93867 -7.62673,0.93867h-7.27472v-3.52003z" data-paper-data="{&quot;origPos&quot;:null}"/><path d="M115.43617,187.26639c1.70135,0 1.81868,0.176 1.81868,2.11202c0,1.93601 -0.11733,2.05335 -1.58401,1.87735c-1.34934,-0.11733 -1.70135,-0.46934 -1.81868,-2.11202c-0.176,-1.76002 -0.05867,-1.87735 1.58401,-1.87735z" data-paper-data="{&quot;origPos&quot;:null}"/><path d="M397.62517,187.26639c1.70135,0 1.81868,0.176 1.81868,2.11202c0,1.93601 -0.11733,2.05335 -1.58401,1.87735c-1.34935,-0.11733 -1.70135,-0.46934 -1.81869,-2.11202c-0.176,-1.76002 -0.05867,-1.87735 1.58401,-1.87735z" data-paper-data="{&quot;origPos&quot;:null}"/><path d="M28.90211,189.0264c2.17068,0 2.46402,0.29334 1.58402,1.64268c-0.704,1.11468 -3.22669,0.64534 -3.46136,-0.64534c-0.176,-0.82134 0.23466,-0.99734 1.87734,-0.99734z" data-paper-data="{&quot;origPos&quot;:null}"/></g></g></svg>