<svg version="1.1" xmlns="http://www.w3.org/2000/svg" xmlns:xlink="http://www.w3.org/1999/xlink" width="433.1" height="51.20085" viewBox="0,0,433.1,51.20085"><g transform="translate(-23.4,-155.39914)"><g data-paper-data="{&quot;isPaintingLayer&quot;:true}" fill="#ffffff" fill-rule="nonzero" stroke="none" stroke-width="none" stroke-linecap="butt" stroke-linejoin="miter" stroke-miterlimit="10" stroke-dasharray="" stroke-dashoffset="0" font-family="none" font-weight="none" font-size="none" text-anchor="none" style="mix-blend-mode: normal"><path d="M23.4,155.5h12.08304c0.60068,0.56514 1.20552,1.12674 1.81368,1.68547l-0.08608,4.01453c-0.12222,5.2 -0.2037,5.8 -1.05922,6.1c-1.1407,0.4 -2.11845,-1.4 -2.11845,-3.9c0,-1.4 -0.28518,-1.9 -1.01848,-1.9h-1.01848l-0.03395,9.25c-1.06375,0 -2.12751,0 -3.19126,0l-0.03395,-9.25h-1.01848c-0.73331,0 -0.97774,0.6 -1.09996,2.7c-0.12222,2.5 -0.28518,2.8 -1.5481,2.8h-1.42588l-0.12222,-5.8z" data-paper-data="{&quot;origPos&quot;:null}" stroke-width="1"/><path d="M31.79231,206h-2.85176l-0.07064,-12.88806c0.99056,0.75868 1.98494,1.51264 2.98061,2.26561z" data-paper-data="{&quot;origPos&quot;:null}" stroke-width="1"/><path d="M54.67923,198.06803c-3.32868,-2.45441 -6.6485,-4.92484 -9.9642,-7.40975c-0.08606,-0.47555 -0.16961,-0.94688 -0.25009,-1.41123c3.76625,-0.04659 8.13558,-0.6217 11.88898,-0.09925c-0.46947,2.95634 -1.07074,6.15818 -1.67469,8.92023z" data-paper-data="{&quot;origPos&quot;:null}" stroke-width="1"/><path d="M45.52215,167.11082c0.14859,-0.74623 0.29915,-1.48278 0.44957,-2.1989c0.40954,0.36026 0.81882,0.7206 1.22757,1.08119c-0.55842,0.37383 -1.11711,0.74695 -1.67714,1.1177z" data-paper-data="{&quot;origPos&quot;:null}" stroke-width="1"/><path d="M92.16871,206.35881c-0.61285,-0.01032 -1.30221,-0.03058 -2.0784,-0.05881l-6.55903,-0.3v-2.5c0,-2.21203 0.10383,-2.47023 2.03393,-2.73199c1.04115,0.87341 2.08901,1.74207 3.14444,2.6056c1.14648,0.93803 2.2947,1.87902 3.44359,2.82332c0.00428,0.05356 0.00943,0.10752 0.01548,0.16188z" data-paper-data="{&quot;origPos&quot;:null}" stroke-width="1"/><path d="M91.88285,191.05398c-0.31622,-0.2674 -0.63182,-0.53525 -0.94685,-0.80352c0.31574,-0.01425 0.63136,-0.02946 0.94685,-0.04569z" data-paper-data="{&quot;origPos&quot;:null}" stroke-width="1"/><path d="M97.17896,157c0.937,2.7 -0.2037,4.5 -2.89249,4.5h-2.40362v6.56573c-0.72356,0.39389 -1.44277,0.7951 -2.15581,1.20667c-0.37087,0.21407 -0.7385,0.43445 -1.10334,0.66021v-8.4326h-2.44436c-1.21082,0 -1.9955,-0.24482 -2.43101,-0.86046c1.52504,-0.55736 3.05853,-1.10771 4.60062,-1.65846c2.63718,-0.94185 5.25494,-1.94183 7.8634,-2.96948c0.54592,0.2277 0.81683,0.54722 0.96661,0.9884z" data-paper-data="{&quot;origPos&quot;:null}" stroke-width="1"/><path d="M117.08679,189.68995c-2.13127,1.11423 -4.26186,2.22894 -6.39336,3.34018c-0.27539,-1.5327 -0.5607,-3.10753 -0.84222,-4.65124c0.90114,-0.06541 1.80729,-0.11038 2.722,-0.12699c-0.00003,0.00754 0.00053,0.01534 0.00168,0.02342c0.07439,0.52177 0.97892,0.42095 1.5,0.5c0.99758,0.15133 2.00343,0.23594 3.00997,0.31505z" data-paper-data="{&quot;origPos&quot;:null}" stroke-width="1"/><path d="M117.14125,206.6l-4.15542,-0.6l-0.19447,-1.10159c1.4463,-0.75114 2.89185,-1.50477 4.33713,-2.25964z" data-paper-data="{&quot;origPos&quot;:null}" stroke-width="1"/><path d="M106.47445,195.22317c-1.00798,0.52207 -2.01639,1.04279 -3.02541,1.56173l-0.03717,-7.69334c1.04985,-0.13769 2.09487,-0.27346 3.14078,-0.39459z" data-paper-data="{&quot;origPos&quot;:null}" stroke-width="1"/><path d="" data-paper-data="{&quot;origPos&quot;:null}" stroke-width="1"/><path d="M136.89982,156l0,0.8575c-2.27309,1.38508 -4.45043,2.95822 -6.62567,4.52603l-3.76287,0.21648v2.44246c-0.32457,0.22062 -0.65027,0.43872 -0.97738,0.65367c-0.7467,0.49068 -1.4977,0.97561 -2.2473,1.46268l-0.00947,-2.93049c2.41264,-1.52103 4.83819,-3.01959 7.30552,-4.44546c1.74813,-1.01025 3.36699,-1.91948 4.93945,-2.84326z" data-paper-data="{&quot;origPos&quot;:null}" stroke-width="1"/><path d="" data-paper-data="{&quot;origPos&quot;:null}" stroke-width="1"/><path d="" data-paper-data="{&quot;origPos&quot;:null}" stroke-width="1"/><path d="M126.30758,206h-2.85176l-0.03214,-6.65327c0.98541,-0.51523 1.97103,-1.03018 2.95703,-1.54448z" data-paper-data="{&quot;origPos&quot;:null}" stroke-width="1"/><path d="M148.51054,186.59931c1.08448,-0.52306 2.1708,-1.04188 3.25915,-1.55595v9.57439c-1.09364,-0.88691 -2.18002,-1.78112 -3.25915,-2.68318z" data-paper-data="{&quot;origPos&quot;:null}" stroke-width="1"/><path d="M143.41812,206v-2.5c0,-0.3245 0.00223,-0.60695 0.01214,-0.85353c1.46032,1.19808 2.9333,2.38316 4.41908,3.55621z" data-paper-data="{&quot;origPos&quot;:null}" stroke-width="1"/><path d="" data-paper-data="{&quot;origPos&quot;:null}" stroke-width="1"/><path d="M157.0658,157c0.04606,0.13273 0.08711,0.26329 0.12319,0.39157c-0.37934,-0.47569 -0.76623,-0.94577 -1.16231,-1.40904c0.59472,0.22932 0.88285,0.55719 1.03912,1.01747z" data-paper-data="{&quot;origPos&quot;:null}" stroke-width="1"/><path d="" data-paper-data="{&quot;origPos&quot;:null}" stroke-width="1"/><path d="M177.02809,206.6l-4.15542,-0.6l-2.11845,-12c-0.07107,-0.39701 -0.14302,-0.798 -0.21561,-1.20164c0.27194,0.03844 0.54429,0.07349 0.817,0.10567c1.87586,1.96483 3.75866,3.92496 5.64731,5.88028z" data-paper-data="{&quot;origPos&quot;:null}" stroke-width="1"/><path d="M176.91266,174.27066l0.0034,0.70346c-0.08376,0.02192 -0.1675,0.04378 -0.25123,0.06557c-0.17466,-0.10668 -0.35054,-0.21132 -0.5281,-0.31313c-0.05065,-0.02904 -0.10166,-0.05828 -0.15302,-0.0877c0.30961,-0.12284 0.61926,-0.24556 0.92896,-0.3682z" data-paper-data="{&quot;origPos&quot;:null}" stroke-width="1"/><path d="M166.23405,205.84105c-0.94901,-0.74966 -1.90399,-1.49348 -2.86521,-2.23142l-0.07053,-14.60065c0.85732,0.42181 1.71505,0.83952 2.56496,1.26448c0.18985,0.09492 0.37366,0.20419 0.55345,0.32278z" data-paper-data="{&quot;origPos&quot;:null}" stroke-width="1"/><path d="M163.1767,155.5h4.35911l1.69377,9.46206c-1.72204,0.68972 -3.44165,1.38487 -5.15661,2.08973c-0.00034,-0.00035 -0.00068,-0.00071 -0.00102,-0.00106c-0.28903,-0.41212 -0.57603,-0.8257 -0.86191,-1.24005z" data-paper-data="{&quot;origPos&quot;:null}" stroke-width="1"/><path d="M173.97263,156h2.85176l0.02867,5.93383c-0.99017,0.3922 -1.98063,0.78412 -2.97095,1.17656z" data-paper-data="{&quot;origPos&quot;:null}" stroke-width="1"/><path d="M191.69425,196.90783c-0.01734,0.01754 -0.03466,0.03509 -0.05195,0.05268c-1.06915,-1.13274 -2.13774,-2.26666 -3.2072,-3.40097l0,-3.01133c1.08908,-0.39934 2.17391,-0.80714 3.25915,-1.21472z" data-paper-data="{&quot;origPos&quot;:null}" stroke-width="1"/><path d="M188.4351,169.69356c0.12402,-0.0501 0.24801,-0.10023 0.37198,-0.15041c0.96248,-0.38957 1.92484,-0.77982 2.88717,-1.17047v1.6558c-1.08889,0.41686 -2.1696,0.87514 -3.25915,1.31395z" data-paper-data="{&quot;origPos&quot;:null}" stroke-width="1"/><path d="M183.34268,206v-0.69141c0.23587,0.24134 0.47182,0.4826 0.70783,0.72379z" data-paper-data="{&quot;origPos&quot;:null}" stroke-width="1"/><path d="M183.15861,159.42142c-0.03542,-0.34203 -0.03579,-0.73301 -0.00402,-1.17773c0.27379,0.28306 0.54814,0.5656 0.823,0.84767c-0.2729,0.11018 -0.54589,0.2202 -0.81898,0.33006z" data-paper-data="{&quot;origPos&quot;:null}" stroke-width="1"/><path d="M216.87116,161.2c-0.12222,5.2 -0.2037,5.8 -1.05922,6.1c-1.1407,0.4 -2.11845,-1.4 -2.11845,-3.9c0,-1.4 -0.28518,-1.9 -1.01848,-1.9h-1.01848l-0.03249,8.85287c-1.07147,-1.03686 -2.14009,-2.07686 -3.20563,-3.12028l-0.02063,-5.62108c2.84087,-1.1364 5.68576,-2.26233 8.53683,-3.3707z" data-paper-data="{&quot;origPos&quot;:null}" stroke-width="1"/><path d="" data-paper-data="{&quot;origPos&quot;:null}" stroke-width="1"/><path d="M211.45283,206h-2.85176l-0.03451,-6.29654c0.41635,-0.21263 0.82627,-0.43616 1.22589,-0.67706c0.57027,-0.34377 1.13824,-0.69204 1.70433,-1.04396z" data-paper-data="{&quot;origPos&quot;:null}" stroke-width="1"/><path d="M206.27893,164.2c-0.01607,0.3288 -0.03285,0.61955 -0.05275,0.87656c-0.62128,-0.61371 -1.24145,-1.22866 -1.86045,-1.84489c0.71118,-0.2869 1.42255,-0.57336 2.13414,-0.85926c-0.10684,0.41617 -0.17321,1.0075 -0.22094,1.82759z" data-paper-data="{&quot;origPos&quot;:null}" stroke-width="1"/><path d="M224.89681,155.7c1.05922,0.3 1.26292,0.8 1.42588,3.8c0.12182,2.3921 1.74615,8.91937 2.86488,12.14628c-1.31596,0.40323 -2.53834,0.81306 -3.70721,1.25696c-2.15049,-6.50015 -2.41683,-7.9343 -2.41683,-11.70324c0,-2.4 0.12222,-4.7 0.28518,-5.1c0.16296,-0.4 0.85553,-0.6 1.5481,-0.4z" data-paper-data="{&quot;origPos&quot;:null}" stroke-width="1"/><path d="M230.47811,206.3c-1.23202,0.47042 -1.76487,-0.23339 -1.98187,-4.41808c0.93359,0.85203 1.86797,1.70329 2.803,2.55394c-0.13732,1.56323 -0.37163,1.71369 -0.82112,1.86414z" data-paper-data="{&quot;origPos&quot;:null}" stroke-width="1"/><path d="" data-paper-data="{&quot;origPos&quot;:null}" stroke-width="1"/><path d="M233.65577,161c0,-4 0.44813,-5.5 1.67031,-5.5c1.30366,0 1.99623,2.3 1.99623,6.7c0,1.3865 -0.39158,3.39777 -1.31048,6.56688c-0.93722,0.63429 -1.88341,1.25674 -2.83613,1.8705c-0.56222,0.1057 -1.12508,0.20906 -1.68231,0.33289c-0.11331,0.03197 -0.22589,0.06389 -0.33777,0.09576c1.07583,-3.21056 2.50013,-8.6226 2.50013,-10.06604z" data-paper-data="{&quot;origPos&quot;:null}" stroke-width="1"/><path d="M272.60259,194.5h-5.05168l-0.77405,5.7c-0.01504,0.11076 -0.02991,0.21956 -0.04461,0.32642c-1.0683,0.61167 -2.13025,1.23416 -3.18225,1.87358c-0.10425,0.06336 -0.20848,0.12726 -0.31269,0.19168c0.0513,-1.36899 0.22731,-3.45818 0.57992,-6.75943c0.65727,-0.19304 1.31116,-0.39608 1.9612,-0.60921c2.02815,-0.66496 3.22674,-2.81211 5,-4c0.15825,-0.10601 -0.0419,0.57912 0.14668,0.55228c1.04358,-0.14848 2.04088,-0.56274 3,-1c0.51515,-0.23485 1.01736,-0.495 1.51198,-0.77c0.20677,1.91476 0.39892,3.72823 0.5691,5.37561c-1.03806,0.57914 -2.07982,1.15203 -3.12204,1.72418z" data-paper-data="{&quot;origPos&quot;:null}" stroke-width="NaN"/><path d="M267.51016,165.2c0.22838,-1.81709 0.41566,-3.29414 0.57743,-4.4947c0.43929,-0.27539 0.88025,-0.54936 1.323,-0.82182c0.75744,-0.46612 1.51888,-0.95172 2.28444,-1.44893c0.32122,2.12971 0.87823,6.56461 1.50838,11.86695c-0.29841,0.10487 -0.59531,0.21408 -0.89051,0.32802c-1.62291,-1.6121 -3.24378,-3.23611 -4.87541,-4.84719c0.02409,-0.19314 0.04831,-0.38724 0.07265,-0.58233z" data-paper-data="{&quot;origPos&quot;:null}" stroke-width="0.5"/><path d="M282.96815,160.9968c2.079,1.8636 4.18559,3.70352 6.3141,5.52385l0.08636,0.48244c-1.17233,0.02873 -2.39887,0.16978 -3.68268,0.42654c-0.89325,0.17865 -1.79307,0.34782 -2.69531,0.51735z" data-paper-data="{&quot;origPos&quot;:null}" stroke-width="1"/><path d="" data-paper-data="{&quot;origPos&quot;:null}" stroke-width="1"/><path d="M296.59807,156l0.00815,1.68791c-0.65372,-0.56062 -1.30518,-1.12322 -1.95419,-1.68791z" data-paper-data="{&quot;origPos&quot;:null}" stroke-width="1"/><path d="M292.64635,206l-0.12175,-0.68967c0.29335,0.26655 0.58683,0.53296 0.88045,0.79922z" data-paper-data="{&quot;origPos&quot;:null}" stroke-width="1"/><path d="M286.00583,206h-2.85176l-0.007,-1.44943c0.89633,-0.50361 1.78787,-1.01514 2.67193,-1.53901c0.07478,-0.04431 0.14952,-0.08873 0.22423,-0.13326z" data-paper-data="{&quot;origPos&quot;:null}" stroke-width="1"/><path d="M312.20123,157.1c1.02451,1.76714 2.76416,9.72445 3.77355,16.27372c-0.02387,0.01109 -0.04769,0.02215 -0.07146,0.03318c-3.53786,-2.77987 -7.06184,-5.57972 -10.54631,-8.41756v-3.48933h-1.01848c-1.09996,0 -1.67031,-2 -1.26292,-4.5c0.32591,-2.2 7.82195,-2.1 9.12561,0.1z" data-paper-data="{&quot;origPos&quot;:null}" stroke-width="1"/><path d="M311.87532,205.2c-0.26994,0.37271 -0.72154,0.64253 -1.33743,0.82364c-2.02144,-1.78944 -4.03377,-3.58612 -6.03873,-5.38968l0.85785,-0.23397v-3.19244c2.06727,-0.16809 4.12998,-0.39446 6.18373,-0.66681c0.46731,-0.06197 0.5944,-0.75977 1,-1c0.7782,-0.46092 1.58726,-0.86504 2.40467,-1.25383c-1.03787,5.20142 -2.28468,9.94913 -3.0701,10.91308z" data-paper-data="{&quot;origPos&quot;:null}" stroke-width="1"/><path d="M355.83307,200.9c-0.41811,1.30367 -0.81741,2.31498 -1.29006,3.09581c-1.15841,-0.94501 -2.31848,-1.88761 -3.47991,-2.82798c1.83139,-1.76447 3.67581,-3.51402 5.52465,-5.25866c-0.13866,2.05169 -0.39066,3.84203 -0.75467,4.99083z" data-paper-data="{&quot;origPos&quot;:null}" stroke-width="0.5"/><path d="M342.83722,155.5h5.13316c0.71929,0 1.36589,0.01473 1.94927,0.05111c0.67306,0.75051 1.35105,1.49595 2.03489,2.23523l-0.64407,0.42938c-2.70412,1.88244 -5.54513,3.51811 -8.47325,4.99264z" data-paper-data="{&quot;origPos&quot;:null}" stroke-width="0.5"/><path d="M366.05865,200.5h5.05168c3.99246,0 5.13316,0.3 5.54055,1.5c0.40739,1.2 0.40739,1.8 0,3c-0.40739,1.2 -1.75179,1.5 -7.17013,1.5h-6.68125v-16.44381c1.08879,-1.02884 2.17576,-2.05986 3.25915,-3.09512z" data-paper-data="{&quot;origPos&quot;:null}" stroke-width="1"/><path d="M369.48075,155.5c4.23062,0 5.97759,0.18289 6.73411,0.83428c-1.31496,0.93658 -2.58121,1.95059 -3.7556,3.12498c0.08143,-0.01535 0.16293,-0.03427 0.24447,-0.05562c-0.02934,0.03538 -0.01634,0.07587 0.05282,0.12254c0.56543,0.3816 1.18267,0.67107 1.82776,0.90269c-1.11502,0.07283 -2.23126,0.15536 -3.34519,0.2581c-1.85111,-1.70873 -3.6896,-3.42886 -5.48635,-5.18697z" data-paper-data="{&quot;origPos&quot;:null}" stroke-width="1"/><path d="M374.75655,159.02618c0.44284,0.09968 -0.82053,0.11811 -1.5651,0.22992c0.52334,-0.16997 1.04679,-0.3466 1.5651,-0.22992z" data-paper-data="{&quot;origPos&quot;:null}" stroke-width="1"/><path d="" data-paper-data="{&quot;origPos&quot;:null}" stroke-width="1"/><path d="M371.29067,181.79688c-0.23291,0.93263 -0.59414,1.3971 -1.44361,1.58972c0.36148,-0.38997 0.71468,-0.78653 1.05931,-1.18752c0.12826,-0.13368 0.25634,-0.26778 0.3843,-0.4022z" data-paper-data="{&quot;origPos&quot;:null}" stroke-width="1"/><path d="M389.76895,173.5c0.27954,0.04901 1.14626,-2.4483 1.95743,-5.25493c0.71211,-0.42631 1.43747,-0.88014 2.17611,-1.40108c0.96487,-0.6805 1.90194,-1.39884 2.82771,-2.1325c-0.3937,2.02838 -1.20764,4.86799 -2.5614,8.9885l-2.46105,7.52933c-1.87991,-2.1504 -3.78162,-4.27845 -5.71854,-6.37042c-0.08613,-0.09303 -0.17243,-0.1859 -0.2589,-0.27862l-0.32048,-0.98029c-0.08562,-0.25727 -0.16851,-0.50706 -0.24876,-0.74976c0.18372,-0.15492 0.31419,-0.26339 0.37967,-0.30949c0.93291,-0.93291 1.89487,-1.66 2.88585,-2.30942c0.56955,1.85474 1.08569,3.19867 1.34235,3.26867z" data-paper-data="{&quot;origPos&quot;:null}" stroke-width="1"/><path d="" data-paper-data="{&quot;origPos&quot;:null}" stroke-width="1"/><path d="M416.57544,181c0,0.74091 -0.06799,1.73213 -0.18845,2.89135c-1.28543,0.8191 -2.5662,1.64668 -3.84522,2.47774c-1.68875,1.09728 -3.37445,2.20062 -5.06384,3.29851c-1.07777,0.70041 -2.15704,1.39861 -3.23955,2.09159c-0.09569,-0.51312 -0.189,-1.02384 -0.27925,-1.52879c3.07267,-4.39447 6.09265,-8.84475 9.64435,-12.78504c0.78708,-0.8732 1.57724,-1.74386 2.37002,-2.61236c0.36817,2.59241 0.60195,4.82994 0.60195,6.167z" data-paper-data="{&quot;origPos&quot;:null}" stroke-width="0.5"/><path d="M404.39653,170.55464c-0.08941,0.10041 -0.17847,0.20114 -0.26719,0.30219c0.96728,-5.31596 2.21067,-11.04374 2.97332,-13.33427c0.03276,-0.01662 0.06544,-0.03322 0.09802,-0.0498c0.3648,0.00291 0.74375,-0.03819 0.82974,-0.12085c0.09904,0.03821 0.19813,0.07626 0.29728,0.11416c0.63178,2.08422 2.48278,3.31823 2.48278,3.31823c0.51498,0.34332 1.02262,0.69443 1.52328,1.05295c-2.67304,2.88292 -5.32495,5.78382 -7.93723,8.7174z" data-paper-data="{&quot;origPos&quot;:null}" stroke-width="0.5"/><path d="M412.05337,204.9c-0.00955,0.01563 -0.01918,0.03115 -0.0289,0.04655c-0.86488,-0.97059 -1.72415,-1.94692 -2.57907,-2.92769c1.43604,-0.9229 2.86638,-1.85579 4.29513,-2.79111c-0.62865,2.7375 -1.24003,4.8883 -1.68716,5.67225z" data-paper-data="{&quot;origPos&quot;:null}" stroke-width="0.5"/><path d="M426.07691,178.0325c-1.11163,0.62541 -2.21489,1.26548 -3.31152,1.91728l-0.02841,-8.7892c1.1554,1.24738 2.27824,2.52863 3.37632,3.83523z" data-paper-data="{&quot;origPos&quot;:null}" stroke-width="1"/><path d="M427.20569,177.40421c-0.02808,-0.14494 -0.05437,-0.27988 -0.07876,-0.40421l-0.20088,-1.02725c0.29947,0.36352 0.5972,0.72881 0.89336,1.09569c-0.20488,0.11139 -0.40946,0.22332 -0.61373,0.33577z" data-paper-data="{&quot;origPos&quot;:null}" stroke-width="1"/><path d="M436.53773,206.6l-4.15542,-0.6l-1.55524,-8.80968c1.7367,-3.07758 3.50948,-6.13102 5.30523,-9.17685c0.11569,0.15674 0.23138,0.31345 0.34709,0.47013z" data-paper-data="{&quot;origPos&quot;:null}" stroke-width="1"/><path d="M433.48085,156.11142c0.03495,-0.03714 0.06991,-0.07428 0.10486,-0.11142h2.74832l0.04439,9.18788c-0.50232,0.83809 -1.00376,1.67575 -1.50493,2.51233c-0.50118,-0.59911 -1.00678,-1.19384 -1.51747,-1.78356z" data-paper-data="{&quot;origPos&quot;:null}" stroke-width="1"/><path d="" data-paper-data="{&quot;origPos&quot;:null}" stroke-width="1"/><path d="M456.5,180.9c0,2.17258 -0.46873,5.86053 -1.1364,9.72362c-0.49892,0.53675 -0.99575,1.07492 -1.4903,1.61459c-0.75261,-0.91736 -1.49773,-1.842 -2.23431,-2.77501c-2.22759,-2.82162 -4.38876,-5.70443 -6.54601,-8.58833v-1.10212c0.80545,-1.30072 1.25798,-3.15158 0,-5.44814v-1.31034c2.58556,-4.33457 5.17146,-8.72307 7.8706,-13.03655c1.55821,5.56174 3.53642,16.73817 3.53642,20.92227zM451.76974,189.62862c0.80144,-4.13897 1.47111,-8.14821 1.47111,-9.32863c-0.04074,-1.3 -0.81479,-5.9 -1.75179,-10.2c-0.44984,-2.11236 -0.91845,-4.08642 -1.31119,-5.59026M448.84245,166.72689c-0.05976,3.00541 -0.08292,7.55656 -0.08292,14.1731c0,1.71866 0.00318,3.33971 0.00932,4.85686" data-paper-data="{&quot;origPos&quot;:null}" stroke-width="0.5"/><path d="M443.17525,205.56364c-0.31536,-0.37285 -0.32293,-0.98598 -0.32293,-2.06364c0,-2 0.24444,-2.6 1.1407,-2.8l1.09996,-0.3v-0.7357c0.38381,0.46635 0.7695,0.93086 1.15693,1.39367c-1.02156,1.43594 -2.10607,3.17587 -3.07466,4.50567z" data-paper-data="{&quot;origPos&quot;:null}" stroke-width="0.5"/></g></g></svg>