<svg version="1.1" xmlns="http://www.w3.org/2000/svg" xmlns:xlink="http://www.w3.org/1999/xlink" width="416.54142" height="51.20085" viewBox="0,0,416.54142,51.20085"><g transform="translate(-28.78901,-155.39915)"><g data-paper-data="{&quot;isPaintingLayer&quot;:true}" fill="#ffffff" fill-rule="nonzero" stroke="none" stroke-width="none" stroke-linecap="butt" stroke-linejoin="miter" stroke-miterlimit="10" stroke-dasharray="" stroke-dashoffset="0" font-family="none" font-weight="none" font-size="none" text-anchor="none" style="mix-blend-mode: normal"><path d="M31.91453,183.7l-0.12222,22.3h-2.85176l-0.12222,-22.3l-0.02932,-7.98914c0.54004,0.62438 1.10946,1.22394 1.67025,1.82988c0.3202,0.34597 1.24558,0.59762 1,1c-0.23956,0.39253 -1.18956,-1.07328 -1.23458,-0.61563c-0.10321,1.04903 0.48775,2.07875 1,3c0.21769,0.3915 0.45115,0.77343 0.69582,1.14843z" data-paper-data="{&quot;origPos&quot;:null}" stroke-width="1"/><path d="M52.73232,204.9c-1.09996,1.8 -3.29989,2.1 -4.48133,0.6c-0.5394,-0.75658 -1.65268,-5.31436 -2.6765,-10.36392c1.26962,0.70424 2.70455,1.30494 4.11074,1.72003c0.47903,0.1414 0.95473,0.26127 1.41942,0.35635c1.42403,0.29136 2.74467,0.34995 3.74115,0.08238c-0.77082,3.63065 -1.5655,6.64438 -2.11348,7.60516z" data-paper-data="{&quot;origPos&quot;:null}" stroke-width="1"/><path d="M91.88285,200.5h2.40362c2.6888,0 3.8295,1.8 2.89249,4.5c-0.44813,1.3 -1.58883,1.5 -7.08865,1.3l-6.55903,-0.3v-2.5c0,-2.4 0.12222,-2.5 2.56658,-2.8l2.52584,-0.3v-15.77105c1.06762,0.57005 2.15688,1.09988 3.25915,1.60173z" data-paper-data="{&quot;origPos&quot;:null}" stroke-width="1"/><path d="M90.17179,155.5c5.29612,0 6.59977,0.3 7.00717,1.5c0.937,2.7 -0.2037,4.5 -2.89249,4.5h-2.40362l0,0.30138c-1.44737,-1.44737 -2.89474,-2.89474 -4.34211,-4.34211c-0.65133,-0.65133 -1.26844,-1.24604 -1.86989,-1.79311c0.99985,-0.12205 2.43892,-0.16616 4.50095,-0.16616z" data-paper-data="{&quot;origPos&quot;:null}" stroke-width="1"/><path d="M103.28986,155.5h0.91575c0.56504,0.38249 1.12208,0.77726 1.66341,1.19647c0.11553,0.08946 -0.49348,-0.27548 -0.40976,-0.15573c0.71372,1.02089 1.74193,1.73247 2.80555,2.39959l1.74704,9.75967c0.46826,2.64601 0.87636,4.97234 1.23243,6.9857c-0.86972,-0.63257 -1.78859,-1.06335 -2.81917,-0.96102c-0.3028,0.03007 0.9747,0.72142 0.70587,0.57886c-0.72339,-0.38363 -1.35773,-0.91108 -2.00848,-1.41249l-0.36979,-1.89105l-0.01915,1.59785c-0.0639,-0.0468 -0.12814,-0.09305 -0.19283,-0.13859c-1.05563,-0.74313 -2.11272,-1.49089 -3.19989,-2.18843z" data-paper-data="{&quot;origPos&quot;:null}" stroke-width="1"/><path d="M113.88209,172l0.10103,-7.9354c0.56087,0.56087 1.12173,1.12173 1.6826,1.6826c0.15306,0.35433 0.46263,0.88893 0.55896,1.17792c0.16667,0.5 0.33333,1 0.5,1.5c0.00833,0.02498 0.01665,0.04996 0.02497,0.07495c-0.98719,0.15623 0.00035,2.00006 0.00035,2.99994c0,1.7189 -0.2018,3.69744 -0.28344,5.64227c-0.42839,0.01023 -0.7725,0.04989 -0.74437,0.27724c-0.63321,-0.12948 -1.26694,-0.25776 -1.90253,-0.37478c0.01866,-1.49323 0.03787,-3.17613 0.06243,-5.04472z" data-paper-data="{&quot;origPos&quot;:null}" stroke-width="1"/><path d="M117.14125,206.6l-4.15542,-0.6l-1.92588,-10.90916c0.31533,0.05131 0.629,0.10376 0.94005,0.15916c0.10853,0.01933 -0.34537,0.18182 -0.24345,0.22382c0.63536,0.26181 1.31282,0.5 2,0.5c1.16329,0 2.27654,-0.07155 3.34982,-0.20508z" data-paper-data="{&quot;origPos&quot;:null}" stroke-width="1"/><path d="M106.34531,206h-2.85176l-0.06266,-12.97113c0.95564,0.53876 1.98751,0.91295 3.0555,1.197z" data-paper-data="{&quot;origPos&quot;:null}" stroke-width="1"/><path d="M136.89982,156v5l-3.12896,0.18143c-0.77842,-1.98825 -1.74037,-3.7864 -2.84791,-5.44341z" data-paper-data="{&quot;origPos&quot;:null}" stroke-width="1"/><path d="M126.30758,206h-2.85176l-0.04281,-8.86235c0.91303,1.33683 1.89485,2.62655 2.93913,3.86762z" data-paper-data="{&quot;origPos&quot;:null}" stroke-width="1"/><path d="M148.51054,177.72768c0.24526,-0.39844 0.48735,-0.79877 0.72693,-1.20035c0.32355,-0.26758 0.69363,-0.63099 0.89351,-0.83087c0.5678,-0.5678 1.11044,-1.15997 1.63871,-1.76532v24.40354c-0.83105,-0.63999 -1.663,-1.25793 -2.5106,-1.76649c-0.24991,-0.14157 -0.49956,-0.2862 -0.74855,-0.43393z" data-paper-data="{&quot;origPos&quot;:null}" stroke-width="1"/><path d="M156.55,201.6c-0.63016,-0.29634 -1.24652,-0.66561 -1.85451,-1.07577c1.10786,0.10661 1.8991,0.56094 2.3264,1.28253c-0.16126,-0.06598 -0.31872,-0.13473 -0.47189,-0.20676z" data-paper-data="{&quot;origPos&quot;:null}" stroke-width="1"/><path d="M163.27779,184.76244c1.00765,1.25753 2.06341,2.46617 3.16502,3.65617l-0.20316,16.95483c-0.82514,-0.70459 -1.81425,-1.20851 -2.87007,-1.60982z" data-paper-data="{&quot;origPos&quot;:null}" stroke-width="1"/><path d="M172.87267,206l-2.11845,-12c-0.086,-0.48045 -0.1733,-0.96674 -0.26146,-1.45649c1.20415,1.12931 2.36231,2.06954 3.87626,3.15296c1.38501,0.99115 2.11925,1.23534 1.09024,0.84427c0.37557,0.37557 0.75113,0.75113 1.1267,1.1267c0.06661,0.24752 0.24499,0.61924 0.41631,0.91486l0.00438,1.35966c-0.58971,0.8088 -1.16305,1.61697 -1.70311,2.42707c-0.791,1.18893 -1.57418,2.41359 -2.36687,3.64021z" data-paper-data="{&quot;origPos&quot;:null}" stroke-width="1"/><path d="M173.97263,156h2.85176l0.08227,17.02935c-0.0479,0.06065 -0.09278,0.09219 -0.13134,0.04555c-1.24135,-1.50196 -2.04445,-3.31042 -2.95584,-5.04512z" data-paper-data="{&quot;origPos&quot;:null}" stroke-width="1"/><path d="M163.1767,155.5h4.35911l1.36616,7.63193c-1.89157,-1.37807 -3.71666,-2.79632 -5.71359,-4.01784z" data-paper-data="{&quot;origPos&quot;:null}" stroke-width="1"/><path d="M189.98319,155.5c5.29612,0 6.59977,0.3 7.00717,1.5c0.937,2.7 -0.2037,4.5 -2.89249,4.5h-2.40362v10.41968c-1.16612,2.03892 -2.22793,4.17761 -3.25915,6.32465v-16.74433h-2.44436c-2.56658,0 -3.21841,-1.1 -2.6888,-4.5c0.16296,-1.2 1.30366,-1.5 6.68125,-1.5z" data-paper-data="{&quot;origPos&quot;:null}" stroke-width="1"/><path d="" data-paper-data="{&quot;origPos&quot;:null}" stroke-width="1"/><path d="M211.60538,175.43556c-1.1011,1.4859 -2.18416,2.99115 -3.14008,4.57257l-0.00074,-0.20055c0.91388,-1.54062 2.02937,-2.96884 3.14091,-4.39683z" data-paper-data="{&quot;origPos&quot;:null}" stroke-width="1"/><path d="M231.65955,182.3l-0.12222,11.9c-0.12222,11.5 -0.16296,11.8 -1.05922,12.1c-1.83327,0.7 -2.11845,-1.2 -2.11845,-13.3v-9.10743c0.35467,-0.54644 0.70784,-1.09395 1.07215,-1.63348c0.35865,-0.59774 0.70342,-1.20412 1.06418,-1.80056c-0.02258,0.06732 -0.01474,0.10354 0.04475,0.08221c0.88393,-0.31696 1.71244,-1.25399 2.47007,-2.37478z" data-paper-data="{&quot;origPos&quot;:null}" stroke-width="1"/><path d="" data-paper-data="{&quot;origPos&quot;:null}" stroke-width="1"/><path d="" data-paper-data="{&quot;origPos&quot;:null}" stroke-width="0.5"/><path d="M296.72029,181.3l0.03015,9.36172c-1.8874,0.50231 -3.81445,0.86726 -5.75044,1.08828c-0.1719,0.01963 -0.3468,0.02347 -0.52359,0.01668c-0.00086,-0.00338 -0.00172,-0.00675 -0.00259,-0.01013c-0.22908,-0.89485 -0.444,-1.79369 -0.6985,-2.68165c-0.13566,-0.47335 0.00117,-1.30659 -0.40575,-1.47474c-0.06846,-0.37455 -0.13655,-0.74651 -0.20408,-1.11478c-0.00271,-0.09551 -0.00541,-0.19085 -0.00813,-0.28603c0.51861,-0.62129 1.03761,-1.24227 1.56727,-1.85318c-0.14562,0.1969 -0.23021,0.36264 -0.09364,0.35031c0.53093,-0.04793 1.15768,-0.35405 1.81827,-0.77555c0.5617,2.5061 0.78734,2.23486 0.9054,-0.62514c1.22279,-0.89454 2.46505,-1.95542 3.36394,-2.3467z" data-paper-data="{&quot;origPos&quot;:null}" stroke-width="1"/><path d="M282.95038,155.5h4.35911l1.59491,8.9098c-1.286,0.55301 -2.54866,1.15592 -3.77785,1.8146c-0.24492,-0.79564 -0.52296,-1.5841 -0.8531,-2.36113c-0.40282,-0.94808 -0.83973,-1.8768 -1.30505,-2.78928z" data-paper-data="{&quot;origPos&quot;:null}" stroke-width="1"/><path d="M293.74631,156h2.85176l0.02753,5.69824c-0.99112,0.28187 -1.9803,0.5848 -2.96343,0.91119z" data-paper-data="{&quot;origPos&quot;:null}" stroke-width="1"/><path d="M316.76404,180.9c0,0.88776 -0.07826,2.02854 -0.21639,3.3309c-0.51183,0.18695 -1.02708,0.36224 -1.54765,0.5191c-2.19512,0.66146 -4.63631,0.15534 -6.82768,0.82911c-0.9786,0.30088 -1.90699,0.72808 -2.8153,1.20626l0,-8.22357c1.12036,-0.22359 2.35669,-0.45157 3.66835,-0.66414c1.30717,-0.21185 2.68916,-0.4084 4.10574,-0.57007c0.88411,-0.10091 1.78169,-0.18823 2.68296,-0.25721c0.22114,-0.01692 0.44253,-0.02372 0.66411,-0.02307c0.18078,1.55274 0.28585,2.88841 0.28585,3.85269z" data-paper-data="{&quot;origPos&quot;:null}" stroke-width="0.5"/><path d="M311.87532,205.2c-0.64073,0.88468 -2.30492,1.18961 -4.7604,1.10476c1.7386,-0.74012 3.71125,-1.5952 5.36821,-2.33197c-0.22161,0.58261 -0.42694,1.00523 -0.60781,1.22721z" data-paper-data="{&quot;origPos&quot;:null}" stroke-width="0.5"/><path d="M312.20123,157.1c0.23324,0.4023 0.50353,1.12542 0.79384,2.07971c-3.30239,0.17979 -6.5938,0.42701 -9.86034,0.98232c-0.22289,-0.81046 -0.26068,-1.92504 -0.05911,-3.16202c0.32591,-2.2 7.82195,-2.1 9.12561,0.1z" data-paper-data="{&quot;origPos&quot;:null}" stroke-width="0.5"/><path d="M355.91455,177.6c-0.73331,2.2 -0.73331,2.4 0,5.3c1.03227,4.22307 1.05991,13.20196 0.11661,17.26652c-1.47451,0.68868 -2.92804,1.41127 -4.34469,2.18337c-0.00942,-0.05207 -0.01923,-0.10475 -0.02944,-0.15803c-0.40643,-2.12076 -0.74587,-4.26554 -1.38358,-6.32858c-0.11198,-0.36226 -0.22593,-0.73674 -0.35972,-1.10304c0.64093,-0.90043 1.07395,-3.42202 1.36159,-4.33513c0.50646,-1.60771 0.89236,-3.20472 1.18255,-4.80476c0.60204,-3.31951 0.79213,-6.65208 0.79213,-10.12034c0,-0.33146 0.03128,-0.66826 0.06718,-1.00585c0.90292,-0.66023 1.81251,-1.30882 2.8138,-1.79768c0.30354,-0.1482 -0.65712,0.91211 -0.32283,0.96057c0.23781,0.03447 0.48052,0.0582 0.72753,0.07217c-0.12984,1.62067 -0.33787,3.0017 -0.62112,3.8708z" data-paper-data="{&quot;origPos&quot;:null}" stroke-width="0.5"/><path d="M342.83722,155.5h5.13316c1.32,0 2.39521,0.04961 3.28415,0.19156c-1.85862,0.39839 -3.67691,0.8951 -5.38551,1.61198c-1.00754,0.42274 -1.89579,1.06772 -2.77319,1.7329c-0.08721,-0.03197 -0.17346,-0.06451 -0.25861,-0.09775z" data-paper-data="{&quot;origPos&quot;:null}" stroke-width="0.5"/><path d="M366.05865,177.5h2.36288c2.64806,0 3.54432,1.3 2.89249,4.2c-0.32591,1.4 -0.89627,1.8 -2.81101,1.8h-2.44436v12.3811c-1.08072,0.44648 -2.16913,0.89244 -3.25915,1.34385v-24.47243c1.10612,-0.30928 2.20538,-0.65035 3.25915,-0.95987z" data-paper-data="{&quot;origPos&quot;:null}" stroke-width="1"/><path d="M384.5,170.25c0.227,0 0.45449,-0.0009 0.68244,-0.00256c-0.2149,0.24026 -0.42593,0.48329 -0.63306,0.72904c-0.08052,-0.25085 -0.15747,-0.49281 -0.23102,-0.72658c0.06051,0.00007 0.12106,0.0001 0.18164,0.0001z" data-paper-data="{&quot;origPos&quot;:null}" stroke-width="1"/><path d="M402.72406,181c0,-0.33251 0.02412,-0.76104 0.06902,-1.26869c1.23522,-0.68668 2.46155,-1.59208 3.71822,-2.18942c0.07944,-0.03776 0.159,-0.07429 0.2387,-0.10946c0,1.52253 0,3.04505 0,4.56758c0,0.32848 0,0.65695 0,0.98543c-0.13367,0.28396 -0.27118,0.58781 -0.38926,0.79108c-0.01964,0.03381 -0.03874,0.06483 -0.0572,0.09252c-0.66667,1 -1.39246,1.96302 -2,3c-0.23279,0.39734 -0.47411,0.79126 -0.72037,1.18325c-0.51311,-3.09041 -0.8591,-5.73864 -0.8591,-7.05228z" data-paper-data="{&quot;origPos&quot;:null}" stroke-width="0.5"/><path d="M436.45625,181.3l0.02606,8.0907c-2.12613,0.97159 -4.36952,1.79021 -6.56386,2.68678c-1.05459,-5.84946 -2.21051,-12.08542 -2.72698,-14.74657c1.26311,0.09076 2.54167,0.25481 3.82626,0.47658c1.88135,10.52343 2.0512,10.20599 2.18301,0.42871c1.08292,0.23708 2.16632,0.50871 3.2446,0.80565z" data-paper-data="{&quot;origPos&quot;:null}" stroke-width="1"/><path d="M422.822,191.91724c0.95092,-1.83868 1.79156,-3.76605 2.428,-5.91724c0.37827,-1.27855 0,-2.66667 0,-4c0,-1.58296 0,-3.16593 0,-4.74889c0.2777,0.00245 0.55642,0.00895 0.83604,0.01932l-0.19943,16.64401c-0.71197,0.37379 -1.40574,0.77401 -2.07453,1.21009c-0.33267,0.21692 -0.65593,0.44714 -0.97126,0.68818z" data-paper-data="{&quot;origPos&quot;:null}" stroke-width="1"/><path d="M422.68634,155.5h4.35911l0.60472,3.3782c-0.88081,-0.0819 -1.76411,-0.1282 -2.65017,-0.1282c-0.7658,0 -1.5337,-0.00513 -2.3032,-0.01323z" data-paper-data="{&quot;origPos&quot;:null}" stroke-width="1"/><path d="M433.48227,156h2.85176l0.02164,4.47993c-0.97195,-0.2243 -1.94584,-0.44858 -2.92206,-0.65777z" data-paper-data="{&quot;origPos&quot;:null}" stroke-width="1"/><path d="M445.21598,205.7333c0.03379,0.15192 0.07093,0.30265 0.11445,0.45102c-0.31146,-0.02965 -0.58378,-0.06038 -0.82188,-0.09588c0.2455,-0.12298 0.48206,-0.24193 0.70743,-0.35514z" data-paper-data="{&quot;origPos&quot;:null}" stroke-width="0.5"/></g></g></svg>