<svg version="1.1" xmlns="http://www.w3.org/2000/svg" xmlns:xlink="http://www.w3.org/1999/xlink" width="462.29718" height="22.29353"><g transform="translate(-6.34342,-164.57228)"><g data-paper-data="{&quot;isPaintingLayer&quot;:true}" fill="#ffffff" fill-rule="nonzero" stroke="none" stroke-width="1" stroke-linecap="butt" stroke-linejoin="miter" stroke-miterlimit="10" stroke-dasharray="" stroke-dashoffset="0" font-family="none" font-weight="none" font-size="none" text-anchor="none" style="mix-blend-mode: normal"><path d="M51.9278,164.57229c1.23201,0 1.34934,0.23467 1.34934,3.22669c0,3.16803 0,3.22669 -1.76002,3.22669c-1.70135,0 -1.76002,-0.05867 -1.76002,-2.81602c0,-1.58402 0.176,-3.0507 0.41067,-3.2267c0.176,-0.23467 0.99734,-0.41067 1.76002,-0.41067z" data-paper-data="{&quot;origPos&quot;:null}"/><path d="M63.25056,164.68962c1.34935,0.176 1.46668,0.46934 1.64268,3.22669l0.176,3.10936h-2.05335h-2.11201v-2.81602c0,-1.58402 0.176,-3.05069 0.41067,-3.28536c0.23467,-0.23467 1.11467,-0.352 1.93601,-0.23467z" data-paper-data="{&quot;origPos&quot;:null}"/><path d="M187.74226,164.68962c6.74672,0.176 7.21606,0.23467 7.21606,1.34934c0,0.99734 -0.46934,1.17334 -2.75736,1.34934l-2.81602,0.176v2.64003c0,2.46402 -0.05867,2.58136 -1.76002,2.58136c-1.70135,0 -1.76002,-0.11734 -1.76002,-2.64003v-2.64002h-2.58136c-2.75735,0 -3.63736,-0.64534 -3.05069,-2.11202c0.29334,-0.70401 1.58402,-0.82134 7.5094,-0.70401z" data-paper-data="{&quot;origPos&quot;:null}"/><path d="M331.94614,164.57229h7.62672h7.62673v1.46668v1.46668h-7.62673h-7.62672v-1.46668z" data-paper-data="{&quot;origPos&quot;:null}"/><path d="M450.68846,164.57229c2.11201,0 2.81603,0.29334 3.81337,1.52535c1.34935,1.70135 1.52534,3.46136 0.64533,5.74938c-0.64534,1.70135 -1.76002,2.40535 -4.8107,2.93335c-2.17068,0.41067 -2.22935,0.352 -2.22935,-1.34934c0,-1.46668 0.23467,-1.76001 1.64268,-1.93601c1.34935,-0.176 1.58401,-0.46934 1.58401,-1.93601c0,-1.46668 -0.23467,-1.76002 -1.58401,-1.93602c-1.29068,-0.176 -1.64268,-0.52801 -1.64268,-1.64268c0,-1.29068 0.23467,-1.40801 2.58135,-1.40801z" data-paper-data="{&quot;origPos&quot;:null}"/><path d="M466.35259,164.57229c2.05335,0 2.28802,0.176 2.28802,1.46668c0,1.05601 -0.29334,1.46668 -1.17334,1.46668c-1.46668,0 -1.46668,0.46934 0,2.34669c1.40801,1.76002 1.58401,5.28004 0.29333,5.28004c-1.23201,0 -5.57338,-5.69071 -5.57338,-7.33339c0,-0.76268 0.41067,-1.81869 0.93867,-2.28802c0.52801,-0.52801 1.87735,-0.93867 3.2267,-0.93867z" data-paper-data="{&quot;origPos&quot;:null}"/><path d="M201.70507,169.26566h3.46136h3.40269l1.87735,4.40004c0.99734,2.40536 1.81868,4.51738 1.81868,4.69338c0,0.176 -0.88,0.29333 -1.99468,0.29333c-1.76002,0 -2.05335,-0.23467 -3.16802,-2.81602l-1.17335,-2.75736l-0.05867,2.75736c-0.05866,2.81602 -0.05866,2.81602 -2.11201,2.81602h-2.05335v-4.69338z" data-paper-data="{&quot;origPos&quot;:null}"/><path d="M212.85183,169.26566h2.05335h2.05335v4.69337v4.69338h-2.05335h-2.05335v-4.69338z" data-paper-data="{&quot;origPos&quot;:null}"/><path d="M248.40412,171.61235c1.81868,0 1.99468,0.11734 1.40801,1.11468c-0.29334,0.64534 -0.58667,1.87735 -0.58667,2.69869c0,0.82134 0.29333,2.05335 0.58667,2.69869c0.58667,0.99734 0.41067,1.11468 -1.70135,1.11468c-1.52534,0 -2.40535,-0.29333 -2.64002,-0.93868c-0.52801,-1.40801 -0.41067,-4.2827 0.23467,-5.57338c0.46934,-0.76268 1.23201,-1.11468 2.69869,-1.11468z" data-paper-data="{&quot;origPos&quot;:null}"/><path d="M257.08682,171.61235c1.87735,0 2.11202,0.176 2.69869,2.17068c0.46934,1.58401 0.46934,2.69869 0.05867,3.81337c-0.52801,1.40801 -0.93868,1.64268 -2.75736,1.64268c-1.81868,0 -2.05335,-0.17601 -1.64268,-1.05601c0.23467,-0.528 0.46934,-1.81868 0.46934,-2.75736c0,-0.99734 -0.23467,-2.22935 -0.46934,-2.81602c-0.41067,-0.82134 -0.176,-0.99734 1.64268,-0.99734z" data-paper-data="{&quot;origPos&quot;:null}"/><path d="M356.93835,171.61235c1.81868,0 1.99468,0.11734 1.40801,1.11468c-0.88,1.76002 -0.704,3.98936 0.58667,6.51205c0.64534,1.29067 1.17334,2.46402 1.17334,2.64002c0,0.176 -0.93867,0.29334 -2.05335,0.29334c-1.76002,0 -2.17068,-0.29334 -3.2267,-2.34669c-1.29068,-2.52269 -1.52535,-5.33871 -0.58667,-7.09872c0.46934,-0.76268 1.23201,-1.11468 2.69869,-1.11468z" data-paper-data="{&quot;origPos&quot;:null}"/><path d="M422.99757,173.95903c0.88,0 1.056,0.52801 1.056,3.5787c0,1.93601 -0.41067,4.8107 -0.93867,6.45338c-0.82134,2.40536 -1.17334,2.87469 -2.34669,2.87469c-0.82134,0 -1.58401,-0.352 -1.76001,-0.82134c-0.176,-0.46934 0.41067,-3.40269 1.29068,-6.45338c1.29068,-4.4587 1.87735,-5.63205 2.69869,-5.63205z" data-paper-data="{&quot;origPos&quot;:null}"/><path d="M32.39164,176.89239c1.70135,0 1.93601,0.176 1.70134,1.17334c-0.29333,0.99734 0,1.17334 1.58402,1.17334c1.58402,0 1.76002,-0.17601 1.46668,-1.17334c-0.352,-0.99734 -0.11734,-1.17334 1.64268,-1.17334c1.99468,0 1.99468,0.05867 3.16803,4.22404c1.34934,4.98671 1.17334,5.86671 -0.93868,5.63204c-1.23201,-0.11733 -1.64268,-0.58667 -2.05335,-2.40535c-0.52801,-2.11201 -0.58668,-2.17068 -3.34403,-2.17068c-2.81602,0 -2.81602,0 -3.46136,2.34669c-0.52801,1.93601 -0.88001,2.34668 -2.11202,2.34668c-2.11201,0 -2.28801,-1.23201 -0.88,-5.86671c1.23201,-4.04803 1.29068,-4.1067 3.22669,-4.1067z" data-paper-data="{&quot;origPos&quot;:null}"/><path d="M6.34342,177.47906h1.76001c1.76001,0 1.76002,0.05867 1.76002,3.22669c0,3.16803 0,3.22669 1.76001,3.22669c1.46668,0 1.76002,0.23467 1.76002,1.46668c0,1.40801 -0.176,1.46668 -3.52003,1.46668h-3.52003v-4.69337z" data-paper-data="{&quot;origPos&quot;:null}"/><path d="M116.57903,180.99909c1.76001,0 1.81868,0.05867 1.81868,2.99202c0,2.87469 -0.05867,2.93336 -1.58401,2.75736c-1.52535,-0.176 -1.64268,-0.41067 -1.81868,-2.99202c-0.176,-2.69869 -0.176,-2.75736 1.58401,-2.75736z" data-paper-data="{&quot;origPos&quot;:null}"/><path d="M300.20718,180.99909c1.99469,0 2.52268,0.23467 3.10935,1.46668c0.52801,1.11468 0.46934,1.70134 -0.352,2.93335c-0.93867,1.40801 -1.23201,1.46668 -6.51205,1.46668c-6.16005,0 -7.92007,-0.82134 -7.92007,-3.81336c0,-1.23201 0.29334,-1.46668 1.70135,-1.46668c1.17334,0 1.76002,0.35201 1.99469,1.17335c0.23467,0.99734 0.82135,1.17334 3.87203,1.17334c1.99469,0 3.57869,-0.176 3.57869,-0.41067c0,-0.176 -0.41067,-0.88001 -0.99734,-1.46668c-0.88,-0.99734 -0.82133,-1.05601 1.52535,-1.05601z" data-paper-data="{&quot;origPos&quot;:null}"/><path d="M100.3869,183.05244c0.23467,0.58667 1.46667,0.88 4.04803,0.99734c3.2267,0.176 3.69603,0.29333 3.69603,1.34934c0,1.05601 -0.46934,1.17334 -4.1067,1.34934c-2.34668,0.11733 -4.63471,-0.11733 -5.33871,-0.528c-1.05601,-0.528 -2.58136,-2.75736 -2.58136,-3.75469c0,-0.76268 3.98937,-0.17601 4.28271,0.58667z" data-paper-data="{&quot;origPos&quot;:null}"/></g></g></svg>