<svg version="1.1" xmlns="http://www.w3.org/2000/svg" xmlns:xlink="http://www.w3.org/1999/xlink" width="471.013" height="54.50361"><g transform="translate(-6.34342,-167.9)"><g data-paper-data="{&quot;isPaintingLayer&quot;:true}" fill="#ffffff" fill-rule="nonzero" stroke="none" stroke-width="none" stroke-linecap="butt" stroke-linejoin="miter" stroke-miterlimit="10" stroke-dasharray="" stroke-dashoffset="0" font-family="none" font-weight="none" font-size="none" text-anchor="none" style="mix-blend-mode: normal"><path d="M8.5141,167.95867c1.29068,0 1.34935,0.176 1.34935,4.69337v4.69337h-1.76002h-1.76001v-4.2827c0,-2.40535 0.176,-4.51738 0.41067,-4.69337c0.176,-0.23467 0.99733,-0.41067 1.76001,-0.41067z" data-paper-data="{&quot;origPos&quot;:null}" stroke-width="1"/><path d="M84.95742,168.076c1.40801,0.176 1.46668,0.352 1.64268,4.98671l0.176,4.86938h-2.11202h-2.05335v-4.57604c0,-2.52269 0.176,-4.81071 0.41067,-5.04538c0.23467,-0.23467 1.11468,-0.352 1.93602,-0.23467z" data-paper-data="{&quot;origPos&quot;:null}" stroke-width="1"/><path d="M103.73091,168.13467c3.98937,0.11734 4.40004,0.23466 4.40004,1.29068c0,1.05601 -0.46934,1.17335 -3.69603,1.34934c-2.58136,0.11734 -3.81336,0.41067 -4.04803,0.99734c-0.29333,0.82134 -4.28271,1.29068 -4.28271,0.58667c0,-0.82134 1.81868,-3.7547 2.46402,-4.04804c0.41067,-0.11734 2.75736,-0.23466 5.16271,-0.176z" data-paper-data="{&quot;origPos&quot;:null}" stroke-width="1"/><path d="M117.04836,167.95867c1.17334,0 1.34934,0.29334 1.34934,2.34669c0,2.22935 -0.11733,2.34669 -1.76001,2.34669c-1.58401,0 -1.76001,-0.176 -1.76001,-1.93602c0,-1.11468 0.176,-2.17069 0.41067,-2.34669c0.176,-0.23467 0.99734,-0.41067 1.76001,-0.41067z" data-paper-data="{&quot;origPos&quot;:null}" stroke-width="1"/><path d="M128.13644,167.95867c1.34934,0 1.99469,0.99734 1.99469,3.28536c0,1.23201 -0.29333,1.40801 -2.05335,1.40801c-1.93601,0 -2.05335,-0.11734 -2.05335,-1.93602c0,-1.11468 0.176,-2.17069 0.41067,-2.34669c0.176,-0.23467 0.93867,-0.41067 1.70135,-0.41067z" data-paper-data="{&quot;origPos&quot;:null}" stroke-width="1"/><path d="M171.78479,168.076c1.34934,0.176 1.46668,0.46934 1.64268,3.22669l0.176,3.10936h-2.05335h-2.11202v-2.81602c0,-1.58402 0.176,-3.05069 0.41067,-3.28536c0.23467,-0.23467 1.11468,-0.352 1.93601,-0.23467z" data-paper-data="{&quot;origPos&quot;:null}" stroke-width="1"/><path d="M187.03827,167.9l3.98937,0.176c3.46136,0.176 3.9307,0.29333 3.9307,1.34934c0,0.99734 -0.46934,1.17335 -2.75736,1.34934c-2.69869,0.176 -2.81602,0.29334 -2.81602,1.93602c0,1.29068 -0.29334,1.70135 -1.17335,1.70135c-1.05601,0 -1.17335,-0.41067 -1.17335,-3.22669z" data-paper-data="{&quot;origPos&quot;:null}" stroke-width="1"/><path d="M226.93191,167.95867h2.93336v3.22669c0,3.16803 0,3.22669 -1.76002,3.22669c-1.58401,0 -1.76002,-0.176 -1.76002,-1.76001c0,-1.34934 -0.29333,-1.76001 -1.11467,-1.76001c-1.34934,0 -2.05335,-0.88001 -1.58402,-2.05335c0.23467,-0.64534 1.23201,-0.88001 3.28536,-0.88001z" data-paper-data="{&quot;origPos&quot;:null}" stroke-width="1"/><path d="M293.28448,167.95867c2.69869,0 2.87469,0.11734 2.87469,1.46668c0,1.23201 -0.29334,1.46668 -1.76002,1.46668c-0.93867,0 -1.76002,0.176 -1.76002,0.41067c0,0.29333 1.46668,2.28802 3.28536,4.57604c1.81868,2.22935 3.40269,4.2827 3.57869,4.51737c0.11734,0.29333 -0.82134,0.46934 -2.11201,0.46934c-2.22935,0 -2.52269,-0.23466 -5.57338,-4.16537c-3.40269,-4.2827 -3.98937,-6.21872 -2.34669,-7.80273c0.58667,-0.58667 1.93602,-0.93867 3.81337,-0.93867z" data-paper-data="{&quot;origPos&quot;:null}" stroke-width="1"/><path d="M337.22618,174.41206h2.05335h2.11202l-0.176,7.74407c-0.176,7.74406 -0.17601,7.80273 -1.58402,7.97873c-0.76268,0.11733 -1.64268,-0.11733 -1.87735,-0.58667c-0.29334,-0.41067 -0.52801,-3.98937 -0.52801,-7.97873z" data-paper-data="{&quot;origPos&quot;:null}" stroke-width="1"/><path d="M442.53372,177.93209c1.93601,0 2.05335,0.11733 2.05335,2.05335c0,1.93602 -0.11733,2.05335 -2.05335,2.05335c-1.93601,0 -2.05335,-0.11733 -2.05335,-2.05335c0,-1.93602 0.11734,-2.05335 2.05335,-2.05335z" data-paper-data="{&quot;origPos&quot;:null}" stroke-width="1"/><path d="M445.23241,177.93209h2.17068c1.81868,0 2.40535,0.29333 3.22669,1.70135c1.34935,2.28802 1.29068,2.40535 -0.99734,2.40535c-1.64268,0 -2.22935,-0.352 -3.2267,-2.05335z" data-paper-data="{&quot;origPos&quot;:null}" stroke-width="1"/><path d="M60.90387,178.51876h2.05335h2.05335v2.93335v2.93336h-2.05335h-2.05335v-2.93336z" data-paper-data="{&quot;origPos&quot;:null}" stroke-width="1"/><path d="M420.5922,182.21479h5.80805c4.34137,0 5.86671,0.17601 5.86671,0.76268c0,0.41067 0.176,1.11467 0.352,1.64268c0.29334,0.82134 -0.46934,0.93868 -6.39472,0.93868h-6.80539l0.58668,-1.64268z" data-paper-data="{&quot;origPos&quot;:null}" stroke-width="1"/><path d="M160.05136,183.7988c1.34934,0 1.76002,0.29333 1.76002,1.11467c0,0.64534 0.29334,1.34934 0.58667,1.52535c0.352,0.176 0.58667,1.11468 0.58667,2.11202c0,1.40801 -0.23467,1.70134 -1.46668,1.70134c-1.64268,0 -3.2267,-2.46402 -3.2267,-4.98671c0,-1.23201 0.29334,-1.46668 1.76002,-1.46668z" data-paper-data="{&quot;origPos&quot;:null}" stroke-width="1"/><path d="M248.93209,183.7988c1.58401,0 2.17069,0.352 2.8747,1.58401l0.82134,1.64268l0.76267,-1.64268c0.58667,-1.34934 1.05601,-1.58401 2.99202,-1.58401h2.22935l-1.40801,2.87469c-0.82134,1.58402 -1.87735,2.99202 -2.40536,3.22669c-1.81868,0.64534 -4.22403,0.352 -5.10404,-0.70401c-0.93867,-0.99734 -2.81602,-4.4587 -2.81602,-5.10404c0,-0.176 0.93867,-0.29333 2.05335,-0.29333z" data-paper-data="{&quot;origPos&quot;:null}" stroke-width="1"/><path d="M268.52693,183.7988c1.40801,0 1.70134,0.29333 2.05335,1.81868c0.64534,3.4027 0.46934,4.6347 -0.82134,4.6347c-1.34935,0 -2.93336,-2.69869 -2.93336,-4.98671c0,-1.23201 0.29334,-1.46668 1.70135,-1.46668z" data-paper-data="{&quot;origPos&quot;:null}" stroke-width="1"/><path d="M357.46635,183.7988c1.58402,0 2.17069,0.352 2.87469,1.58401l0.82134,1.64268l0.76267,-1.64268c0.58667,-1.34934 1.05601,-1.58401 2.99203,-1.58401h2.22935l-1.40802,2.87469c-0.82134,1.58402 -1.87734,2.99202 -2.40535,3.22669c-1.81868,0.64534 -4.22404,0.352 -5.10404,-0.70401c-0.93867,-0.99734 -2.81602,-4.4587 -2.81602,-5.10404c0,-0.176 0.93867,-0.29333 2.05335,-0.29333z" data-paper-data="{&quot;origPos&quot;:null}" stroke-width="1"/><path d="M463.88856,184.97214c1.17334,0 1.76001,0.352 1.99468,1.17334c0.23467,0.99734 0.82135,1.17334 3.87203,1.17334c3.57869,0 4.16537,-0.352 2.87469,-1.64268c-0.52801,-0.52801 -0.176,-0.704 1.70135,-0.704c2.93336,0 3.81336,1.52534 2.28802,3.81336c-0.93867,1.40801 -1.29068,1.46668 -6.51205,1.46668c-6.16005,0 -7.92007,-0.82134 -7.92007,-3.81336c0,-1.23201 0.29334,-1.46668 1.70135,-1.46668z" data-paper-data="{&quot;origPos&quot;:null}" stroke-width="1"/><path d="M398.76802,186.14549c1.70135,0 1.81868,0.176 1.81868,2.11201c0,1.93601 -0.11733,2.05335 -1.58401,1.87735c-1.34935,-0.11733 -1.70135,-0.46934 -1.81869,-2.11201c-0.176,-1.76002 -0.05867,-1.87735 1.58401,-1.87735z" data-paper-data="{&quot;origPos&quot;:null}" stroke-width="1"/><path d="M410.20812,186.14549c1.81868,0 2.11201,0.176 2.11201,1.29068c0,1.99468 -0.88,2.93336 -2.40535,2.69869c-1.11467,-0.11733 -1.46668,-0.58667 -1.58402,-2.11201c-0.176,-1.81868 -0.11733,-1.87735 1.87735,-1.87735z" data-paper-data="{&quot;origPos&quot;:null}" stroke-width="1"/><path d="M32.15697,187.5535c0,1.76002 -0.76268,2.69869 -2.11202,2.69869c-1.52535,0 -2.34668,-1.17334 -1.76001,-2.64002c0.41067,-1.17334 3.87203,-1.17334 3.87203,-0.05867z" data-paper-data="{&quot;origPos&quot;:null}" stroke-width="1"/><path d="M40.60504,186.73216c1.99468,0 2.81602,1.05601 2.28802,2.75736c-0.46934,1.40801 -3.10936,0.88001 -3.69603,-0.76267c-0.352,-0.82134 -0.58667,-1.58402 -0.58667,-1.76002c0,-0.11733 0.88001,-0.23467 1.99469,-0.23467z" data-paper-data="{&quot;origPos&quot;:null}" stroke-width="1"/><path d="" data-paper-data="{&quot;origPos&quot;:null}" stroke-width="1"/><path d="" data-paper-data="{&quot;origPos&quot;:null}" stroke-width="1"/><path d="" data-paper-data="{&quot;origPos&quot;:null}" stroke-width="1"/><path d="" data-paper-data="{&quot;origPos&quot;:null}" stroke-width="1"/><path d="" data-paper-data="{&quot;origPos&quot;:null}" stroke-width="1"/><path d="" data-paper-data="{&quot;origPos&quot;:null}" stroke-width="1"/><path d="" data-paper-data="{&quot;origPos&quot;:null}" stroke-width="1"/><path d="" data-paper-data="{&quot;origPos&quot;:null}" stroke-width="1"/><path d="" data-paper-data="{&quot;origPos&quot;:null}" stroke-width="1"/><path d="" data-paper-data="{&quot;origPos&quot;:null}" stroke-width="1"/><path d="" data-paper-data="{&quot;origPos&quot;:null}" stroke-width="1"/><path d="" data-paper-data="{&quot;origPos&quot;:null}" stroke-width="1"/><path d="" data-paper-data="{&quot;origPos&quot;:null}" stroke-width="1"/><path d="" data-paper-data="{&quot;origPos&quot;:null}" stroke-width="1"/><path d="" data-paper-data="{&quot;origPos&quot;:null}" stroke-width="1"/><path d="" data-paper-data="{&quot;origPos&quot;:null}" stroke-width="1"/><path d="" data-paper-data="{&quot;origPos&quot;:null}" stroke-width="1"/><path d="" data-paper-data="{&quot;origPos&quot;:null}" stroke-width="1"/><path d="" data-paper-data="{&quot;origPos&quot;:null}" stroke-width="1"/><path d="" data-paper-data="{&quot;origPos&quot;:null}" stroke-width="1"/><path d="" data-paper-data="{&quot;origPos&quot;:null}" stroke-width="1"/><path d="" data-paper-data="{&quot;origPos&quot;:null}" stroke-width="1"/><path d="" data-paper-data="{&quot;origPos&quot;:null}" stroke-width="1"/><path d="" data-paper-data="{&quot;origPos&quot;:null}" stroke-width="1"/><path d="" data-paper-data="{&quot;origPos&quot;:null}" stroke-width="1"/><path d="" data-paper-data="{&quot;origPos&quot;:null}" stroke-width="1"/><path d="" data-paper-data="{&quot;origPos&quot;:null}" stroke-width="1"/><path d="" data-paper-data="{&quot;origPos&quot;:null}" stroke-width="1"/><path d="" data-paper-data="{&quot;origPos&quot;:null}" stroke-width="1"/><path d="" data-paper-data="{&quot;origPos&quot;:null}" stroke-width="1"/><path d="" data-paper-data="{&quot;origPos&quot;:null}" stroke-width="1"/><path d="" data-paper-data="{&quot;origPos&quot;:null}" stroke-width="1"/><path d="" data-paper-data="{&quot;origPos&quot;:null}" stroke-width="1"/><path d="" data-paper-data="{&quot;origPos&quot;:null}" stroke-width="1"/><path d="" data-paper-data="{&quot;origPos&quot;:null}" stroke-width="1"/><path d="" data-paper-data="{&quot;origPos&quot;:null}" stroke-width="1"/><path d="" data-paper-data="{&quot;origPos&quot;:null}" stroke-width="1"/><path d="" data-paper-data="{&quot;origPos&quot;:null}" stroke-width="1"/><path d="" data-paper-data="{&quot;origPos&quot;:null}" stroke-width="1"/><path d="" data-paper-data="{&quot;origPos&quot;:null}" stroke-width="1"/><path d="" data-paper-data="{&quot;origPos&quot;:null}" stroke-width="1"/><path d="" data-paper-data="{&quot;origPos&quot;:null}" stroke-width="1"/><path d="" data-paper-data="{&quot;origPos&quot;:null}" stroke-width="1"/><path d="" data-paper-data="{&quot;origPos&quot;:null}" stroke-width="1"/><path d="" data-paper-data="{&quot;origPos&quot;:null}" stroke-width="1"/><path d="" data-paper-data="{&quot;origPos&quot;:null}" stroke-width="1"/><path d="" data-paper-data="{&quot;origPos&quot;:null}" stroke-width="1"/><path d="" data-paper-data="{&quot;origPos&quot;:null}" stroke-width="1"/><path d="" data-paper-data="{&quot;origPos&quot;:null}" stroke-width="1"/><path d="" data-paper-data="{&quot;origPos&quot;:null}" stroke-width="1"/><path d="" data-paper-data="{&quot;origPos&quot;:null}" stroke-width="1"/><path d="" data-paper-data="{&quot;origPos&quot;:null}" stroke-width="1"/><path d="" data-paper-data="{&quot;origPos&quot;:null}" stroke-width="1"/><path d="" data-paper-data="{&quot;origPos&quot;:null}" stroke-width="1"/><path d="" data-paper-data="{&quot;origPos&quot;:null}" stroke-width="1"/><path d="" data-paper-data="{&quot;origPos&quot;:null}" stroke-width="1"/><path d="" data-paper-data="{&quot;origPos&quot;:null}" stroke-width="0.5"/><path d="" data-paper-data="{&quot;origPos&quot;:null}" stroke-width="1"/><path d="" data-paper-data="{&quot;origPos&quot;:null}" stroke-width="1"/><path d="" data-paper-data="{&quot;origPos&quot;:null}" stroke-width="1"/><path d="" data-paper-data="{&quot;origPos&quot;:null}" stroke-width="1"/><path d="" data-paper-data="{&quot;origPos&quot;:null}" stroke-width="1"/><path d="" data-paper-data="{&quot;origPos&quot;:null}" stroke-width="1"/><path d="" data-paper-data="{&quot;origPos&quot;:null}" stroke-width="1"/><path d="" data-paper-data="{&quot;origPos&quot;:null}" stroke-width="1"/><path d="" data-paper-data="{&quot;origPos&quot;:null}" stroke-width="1"/><path d="" data-paper-data="{&quot;origPos&quot;:null}" stroke-width="1"/><path d="" data-paper-data="{&quot;origPos&quot;:null}" stroke-width="1"/><path d="" data-paper-data="{&quot;origPos&quot;:null}" stroke-width="1"/><path d="" data-paper-data="{&quot;origPos&quot;:null}" stroke-width="1"/><path d="" data-paper-data="{&quot;origPos&quot;:null}" stroke-width="1"/><path d="" data-paper-data="{&quot;origPos&quot;:null}" stroke-width="1"/><path d="" data-paper-data="{&quot;origPos&quot;:null}" stroke-width="1"/><path d="" data-paper-data="{&quot;origPos&quot;:null}" stroke-width="1"/><path d="" data-paper-data="{&quot;origPos&quot;:null}" stroke-width="1"/><path d="" data-paper-data="{&quot;origPos&quot;:null}" stroke-width="1"/><path d="" data-paper-data="{&quot;origPos&quot;:null}" stroke-width="1"/><path d="" data-paper-data="{&quot;origPos&quot;:null}" stroke-width="1"/><path d="" data-paper-data="{&quot;origPos&quot;:null}" stroke-width="1"/><path d="" data-paper-data="{&quot;origPos&quot;:null}" stroke-width="1"/><path d="" data-paper-data="{&quot;origPos&quot;:null}" stroke-width="1"/><path d="" data-paper-data="{&quot;origPos&quot;:null}" stroke-width="1"/><path d="" data-paper-data="{&quot;origPos&quot;:null}" stroke-width="1"/><path d="" data-paper-data="{&quot;origPos&quot;:null}" stroke-width="1"/><path d="" data-paper-data="{&quot;origPos&quot;:null}" stroke-width="1"/><path d="" data-paper-data="{&quot;origPos&quot;:null}" stroke-width="1"/><path d="" data-paper-data="{&quot;origPos&quot;:null}" stroke-width="1"/><path d="" data-paper-data="{&quot;origPos&quot;:null}" stroke-width="1"/><path d="" data-paper-data="{&quot;origPos&quot;:null}" stroke-width="1"/><path d="" data-paper-data="{&quot;origPos&quot;:null}" stroke-width="1"/><path d="" data-paper-data="{&quot;origPos&quot;:null}" stroke-width="1"/><path d="" data-paper-data="{&quot;origPos&quot;:null}" stroke-width="1"/><path d="" data-paper-data="{&quot;origPos&quot;:null}" stroke-width="1"/><path d="" data-paper-data="{&quot;origPos&quot;:null}" stroke-width="1"/><path d="" data-paper-data="{&quot;origPos&quot;:null}" stroke-width="1"/><path d="" data-paper-data="{&quot;origPos&quot;:null}" stroke-width="1"/><path d="" data-paper-data="{&quot;origPos&quot;:null}" stroke-width="1"/><path d="" data-paper-data="{&quot;origPos&quot;:null}" stroke-width="1"/><path d="" data-paper-data="{&quot;origPos&quot;:null}" stroke-width="1"/><path d="" data-paper-data="{&quot;origPos&quot;:null}" stroke-width="1"/><path d="" data-paper-data="{&quot;origPos&quot;:null}" stroke-width="1"/><path d="" data-paper-data="{&quot;origPos&quot;:null}" stroke-width="1"/><path d="" data-paper-data="{&quot;origPos&quot;:null}" stroke-width="1"/><path d="" data-paper-data="{&quot;origPos&quot;:null}" stroke-width="1"/><path d="" data-paper-data="{&quot;origPos&quot;:null}" stroke-width="1"/><path d="" data-paper-data="{&quot;origPos&quot;:null}" stroke-width="1"/><path d="" data-paper-data="{&quot;origPos&quot;:null}" stroke-width="1"/><path d="" data-paper-data="{&quot;origPos&quot;:null}" stroke-width="1"/><path d="" data-paper-data="{&quot;origPos&quot;:null}" stroke-width="1"/><path d="" data-paper-data="{&quot;origPos&quot;:null}" stroke-width="1"/><path d="" data-paper-data="{&quot;origPos&quot;:null}" stroke-width="1"/><path d="" data-paper-data="{&quot;origPos&quot;:null}" stroke-width="1"/><path d="" data-paper-data="{&quot;origPos&quot;:null}" stroke-width="1"/><path d="" data-paper-data="{&quot;origPos&quot;:null}" stroke-width="1"/><path d="" data-paper-data="{&quot;origPos&quot;:null}" stroke-width="1"/><path d="" data-paper-data="{&quot;origPos&quot;:null}" stroke-width="1"/><path d="" data-paper-data="{&quot;origPos&quot;:null}" stroke-width="1"/><path d="" data-paper-data="{&quot;origPos&quot;:null}" stroke-width="1"/><path d="" data-paper-data="{&quot;origPos&quot;:null}" stroke-width="1"/><path d="" data-paper-data="{&quot;origPos&quot;:null}" stroke-width="1"/><path d="" data-paper-data="{&quot;origPos&quot;:null}" stroke-width="1"/><path d="" data-paper-data="{&quot;origPos&quot;:null}" stroke-width="1"/><path d="" data-paper-data="{&quot;origPos&quot;:null}" stroke-width="1"/><path d="" data-paper-data="{&quot;origPos&quot;:null}" stroke-width="1"/><path d="" data-paper-data="{&quot;origPos&quot;:null}" stroke-width="1"/><path d="" data-paper-data="{&quot;origPos&quot;:null}" stroke-width="1"/><path d="" data-paper-data="{&quot;origPos&quot;:null}" stroke-width="1"/><path d="" data-paper-data="{&quot;origPos&quot;:null}" stroke-width="1"/><path d="" data-paper-data="{&quot;origPos&quot;:null}" stroke-width="1"/><path d="" data-paper-data="{&quot;origPos&quot;:null}" stroke-width="0.5"/><path d="" data-paper-data="{&quot;origPos&quot;:null}" stroke-width="1"/><path d="" data-paper-data="{&quot;origPos&quot;:null}" stroke-width="1"/><path d="" data-paper-data="{&quot;origPos&quot;:null}" stroke-width="1"/><path d="" data-paper-data="{&quot;origPos&quot;:null}" stroke-width="1"/><path d="M477.30933,221.5058c0.05061,0.3233 0.01209,0.59531 -0.11739,0.89781c0.03863,-0.29926 0.07779,-0.59853 0.11739,-0.89781z" data-paper-data="{&quot;origPos&quot;:null}" stroke-width="1"/><path d="" data-paper-data="{&quot;origPos&quot;:null}" stroke-width="1"/><path d="" data-paper-data="{&quot;origPos&quot;:null}" stroke-width="1"/><path d="" data-paper-data="{&quot;origPos&quot;:null}" stroke-width="1"/><path d="" data-paper-data="{&quot;origPos&quot;:null}" stroke-width="1"/><path d="" data-paper-data="{&quot;origPos&quot;:null}" stroke-width="1"/><path d="" data-paper-data="{&quot;origPos&quot;:null}" stroke-width="1"/><path d="" data-paper-data="{&quot;origPos&quot;:null}" stroke-width="1"/><path d="" data-paper-data="{&quot;origPos&quot;:null}" stroke-width="1"/><path d="" data-paper-data="{&quot;origPos&quot;:null}" stroke-width="1"/><path d="" data-paper-data="{&quot;origPos&quot;:null}" stroke-width="1"/><path d="" data-paper-data="{&quot;origPos&quot;:null}" stroke-width="1"/><path d="" data-paper-data="{&quot;origPos&quot;:null}" stroke-width="1"/><path d="" data-paper-data="{&quot;origPos&quot;:null}" stroke-width="1"/><path d="" data-paper-data="{&quot;origPos&quot;:null}" stroke-width="1"/><path d="" data-paper-data="{&quot;origPos&quot;:null}" stroke-width="1"/><path d="" data-paper-data="{&quot;origPos&quot;:null}" stroke-width="1"/><path d="" data-paper-data="{&quot;origPos&quot;:null}" stroke-width="1"/><path d="" data-paper-data="{&quot;origPos&quot;:null}" stroke-width="1"/><path d="" data-paper-data="{&quot;origPos&quot;:null}" stroke-width="1"/><path d="" data-paper-data="{&quot;origPos&quot;:null}" stroke-width="1"/><path d="" data-paper-data="{&quot;origPos&quot;:null}" stroke-width="1"/><path d="" data-paper-data="{&quot;origPos&quot;:null}" stroke-width="1"/><path d="" data-paper-data="{&quot;origPos&quot;:null}" stroke-width="0.5"/><path d="" data-paper-data="{&quot;origPos&quot;:null}" stroke-width="1"/><path d="" data-paper-data="{&quot;origPos&quot;:null}" stroke-width="1"/><path d="" data-paper-data="{&quot;origPos&quot;:null}" stroke-width="1"/><path d="" data-paper-data="{&quot;origPos&quot;:null}" stroke-width="1"/><path d="" data-paper-data="{&quot;origPos&quot;:null}" stroke-width="1"/><path d="" data-paper-data="{&quot;origPos&quot;:null}" stroke-width="1"/><path d="" data-paper-data="{&quot;origPos&quot;:null}" stroke-width="1"/><path d="" data-paper-data="{&quot;origPos&quot;:null}" stroke-width="1"/><path d="" data-paper-data="{&quot;origPos&quot;:null}" stroke-width="1"/><path d="" data-paper-data="{&quot;origPos&quot;:null}" stroke-width="1"/><path d="" data-paper-data="{&quot;origPos&quot;:null}" stroke-width="1"/><path d="" data-paper-data="{&quot;origPos&quot;:null}" stroke-width="1"/><path d="" data-paper-data="{&quot;origPos&quot;:null}" stroke-width="1"/><path d="" data-paper-data="{&quot;origPos&quot;:null}" stroke-width="1"/><path d="" data-paper-data="{&quot;origPos&quot;:null}" stroke-width="1"/><path d="" data-paper-data="{&quot;origPos&quot;:null}" stroke-width="1"/><path d="" data-paper-data="{&quot;origPos&quot;:null}" stroke-width="1"/><path d="" data-paper-data="{&quot;origPos&quot;:null}" stroke-width="1"/><path d="" data-paper-data="{&quot;origPos&quot;:null}" stroke-width="1"/><path d="" data-paper-data="{&quot;origPos&quot;:null}" stroke-width="1"/><path d="" data-paper-data="{&quot;origPos&quot;:null}" stroke-width="1"/><path d="" data-paper-data="{&quot;origPos&quot;:null}" stroke-width="1"/><path d="" data-paper-data="{&quot;origPos&quot;:null}" stroke-width="1"/><path d="" data-paper-data="{&quot;origPos&quot;:null}" stroke-width="1"/><path d="" data-paper-data="{&quot;origPos&quot;:null}" stroke-width="1"/><path d="" data-paper-data="{&quot;origPos&quot;:null}" stroke-width="1"/><path d="" data-paper-data="{&quot;origPos&quot;:null}" stroke-width="1"/><path d="" data-paper-data="{&quot;origPos&quot;:null}" stroke-width="1"/><path d="" data-paper-data="{&quot;origPos&quot;:null}" stroke-width="0.5"/><path d="" data-paper-data="{&quot;origPos&quot;:null}" stroke-width="1"/><path d="" data-paper-data="{&quot;origPos&quot;:null}" stroke-width="1"/><path d="" data-paper-data="{&quot;origPos&quot;:null}" stroke-width="1"/><path d="" data-paper-data="{&quot;origPos&quot;:null}" stroke-width="1"/><path d="" data-paper-data="{&quot;origPos&quot;:null}" stroke-width="1"/><path d="" data-paper-data="{&quot;origPos&quot;:null}" stroke-width="1"/><path d="" data-paper-data="{&quot;origPos&quot;:null}" stroke-width="1"/><path d="" data-paper-data="{&quot;origPos&quot;:null}" stroke-width="1"/><path d="" data-paper-data="{&quot;origPos&quot;:null}" stroke-width="1"/><path d="" data-paper-data="{&quot;origPos&quot;:null}" stroke-width="1"/><path d="" data-paper-data="{&quot;origPos&quot;:null}" stroke-width="1"/><path d="" data-paper-data="{&quot;origPos&quot;:null}" stroke-width="1"/><path d="" data-paper-data="{&quot;origPos&quot;:null}" stroke-width="1"/><path d="" data-paper-data="{&quot;origPos&quot;:null}" stroke-width="1"/><path d="" data-paper-data="{&quot;origPos&quot;:null}" stroke-width="1"/><path d="" data-paper-data="{&quot;origPos&quot;:null}" stroke-width="0.5"/><path d="" data-paper-data="{&quot;origPos&quot;:null}" stroke-width="1"/><path d="" data-paper-data="{&quot;origPos&quot;:null}" stroke-width="1"/><path d="" data-paper-data="{&quot;origPos&quot;:null}" stroke-width="1"/><path d="" data-paper-data="{&quot;origPos&quot;:null}" stroke-width="1"/><path d="" data-paper-data="{&quot;origPos&quot;:null}" stroke-width="1"/><path d="" data-paper-data="{&quot;origPos&quot;:null}" stroke-width="1"/><path d="" data-paper-data="{&quot;origPos&quot;:null}" stroke-width="1"/><path d="" data-paper-data="{&quot;origPos&quot;:null}" stroke-width="0.5"/><path d="" data-paper-data="{&quot;origPos&quot;:null}" stroke-width="0.5"/><path d="" data-paper-data="{&quot;origPos&quot;:null}" stroke-width="1"/><path d="" data-paper-data="{&quot;origPos&quot;:null}" stroke-width="1"/><path d="" data-paper-data="{&quot;origPos&quot;:null}" stroke-width="1"/><path d="" data-paper-data="{&quot;origPos&quot;:null}" stroke-width="0.5"/><path d="" data-paper-data="{&quot;origPos&quot;:null}" stroke-width="1"/><path d="" data-paper-data="{&quot;origPos&quot;:null}" stroke-width="0.5"/><path d="" data-paper-data="{&quot;origPos&quot;:null}" stroke-width="0.5"/><path d="" data-paper-data="{&quot;origPos&quot;:null}" stroke-width="1"/></g></g></svg>