<svg version="1.1" xmlns="http://www.w3.org/2000/svg" xmlns:xlink="http://www.w3.org/1999/xlink" width="189.75734" height="200.68508" viewBox="0,0,189.75734,200.68508"><defs><linearGradient x1="269.25734" y1="158.26172" x2="334.25734" y2="158.26172" gradientUnits="userSpaceOnUse" id="color-1"><stop offset="0" stop-color="#000000"/><stop offset="1" stop-color="#ffffff"/></linearGradient><linearGradient x1="301.75734" y1="121.60758" x2="301.75734" y2="194.91585" gradientUnits="userSpaceOnUse" id="color-2"><stop offset="0" stop-color="#ffad84"/><stop offset="1" stop-color="#ffd486"/></linearGradient><linearGradient x1="261.49892" y1="119.01113" x2="259.51576" y2="200.32058" gradientUnits="userSpaceOnUse" id="color-3"><stop offset="0" stop-color="#000000"/><stop offset="1" stop-color="#ffffff"/></linearGradient><linearGradient x1="222.50109" y1="158.73887" x2="298.51361" y2="160.59283" gradientUnits="userSpaceOnUse" id="color-4"><stop offset="0" stop-color="#ffaa83"/><stop offset="1" stop-color="#ffd486"/></linearGradient><linearGradient x1="261.50734" y1="172.81831" x2="261.50734" y2="234.0134" gradientUnits="userSpaceOnUse" id="color-5"><stop offset="0" stop-color="#ffffff" stop-opacity="0"/><stop offset="1" stop-color="#ffffff"/></linearGradient><linearGradient x1="261.50734" y1="172.81831" x2="261.50734" y2="234.0134" gradientUnits="userSpaceOnUse" id="color-6"><stop offset="0" stop-color="#ffaa83"/><stop offset="1" stop-color="#ffd486"/></linearGradient><linearGradient x1="273.75" y1="75" x2="273.75" y2="92" gradientUnits="userSpaceOnUse" id="color-7"><stop offset="0" stop-color="#ffaa83"/><stop offset="1" stop-color="#ffd486"/></linearGradient><linearGradient x1="209.5" y1="124.5" x2="209.5" y2="150" gradientUnits="userSpaceOnUse" id="color-8"><stop offset="0" stop-color="#ffaa83"/><stop offset="1" stop-color="#ffd486"/></linearGradient><linearGradient x1="202.48529" y1="92.5" x2="202.48529" y2="107.5" gradientUnits="userSpaceOnUse" id="color-9"><stop offset="0" stop-color="#ffaa83"/><stop offset="1" stop-color="#ffd486"/></linearGradient><linearGradient x1="243.83824" y1="65.23077" x2="243.83824" y2="72" gradientUnits="userSpaceOnUse" id="color-10"><stop offset="0" stop-color="#ffaa83"/><stop offset="1" stop-color="#ffd486"/></linearGradient><linearGradient x1="250.13235" y1="91.23077" x2="250.13235" y2="104" gradientUnits="userSpaceOnUse" id="color-11"><stop offset="0" stop-color="#ffaa83"/><stop offset="1" stop-color="#ffd486"/></linearGradient><linearGradient x1="175.82353" y1="124.23077" x2="175.82353" y2="137.5" gradientUnits="userSpaceOnUse" id="color-12"><stop offset="0" stop-color="#ffaa83"/><stop offset="1" stop-color="#ffd486"/></linearGradient><linearGradient x1="220.35294" y1="69.5" x2="220.35294" y2="92" gradientUnits="userSpaceOnUse" id="color-13"><stop offset="0" stop-color="#ffaa83"/><stop offset="1" stop-color="#ffd486"/></linearGradient><linearGradient x1="205.55882" y1="151.5" x2="205.55882" y2="168" gradientUnits="userSpaceOnUse" id="color-14"><stop offset="0" stop-color="#ffaa83"/><stop offset="1" stop-color="#ffd486"/></linearGradient></defs><g transform="translate(-165.75,-60.23077)"><g data-paper-data="{&quot;isPaintingLayer&quot;:true}" fill-rule="nonzero" stroke-linejoin="miter" stroke-miterlimit="10" stroke-dasharray="" stroke-dashoffset="0" style="mix-blend-mode: normal"><path d="M278.50734,222.41585c0,-21.26296 17.23704,-38.5 38.5,-38.5c21.26296,0 38.5,17.23704 38.5,38.5c0,21.26296 -17.23704,38.5 -38.5,38.5c-21.26296,0 -38.5,-17.23704 -38.5,-38.5z" fill="#ffd486" stroke="none" stroke-width="0" stroke-linecap="butt"/><path d="M334.25734,194.91585l-65,-73.30827" fill="url(#color-1)" stroke="url(#color-2)" stroke-width="15" stroke-linecap="round"/><path d="M297.52203,201.24756l-74.02937,-83.16341" fill="url(#color-3)" stroke="url(#color-4)" stroke-width="15" stroke-linecap="round"/><path d="M289.14975,234.0134l-55.28482,-61.19509" fill="url(#color-5)" stroke="url(#color-6)" stroke-width="15" stroke-linecap="round"/><path d="M293.50734,221.91585c0,-12.97869 10.52131,-23.5 23.5,-23.5c12.97869,0 23.5,10.52131 23.5,23.5c0,12.97869 -10.52131,23.5 -23.5,23.5c-12.97869,0 -23.5,-10.52131 -23.5,-23.5z" fill="#f5f5f5" stroke="none" stroke-width="0" stroke-linecap="butt"/><path d="M267.25,75l13,17" fill="none" stroke="url(#color-7)" stroke-width="10" stroke-linecap="round"/><path d="M199.75,124.5l19.5,25.5" fill="none" stroke="url(#color-8)" stroke-width="10" stroke-linecap="round"/><path d="M196.75,92.5l11.47059,15" fill="none" stroke="url(#color-9)" stroke-width="10" stroke-linecap="round"/><path d="M241.25,65.23077l5.17647,6.76923" fill="none" stroke="url(#color-10)" stroke-width="10" stroke-linecap="round"/><path d="M245.25,91.23077l9.76471,12.76923" fill="none" stroke="url(#color-11)" stroke-width="10" stroke-linecap="round"/><path d="M170.75,124.23077l10.14706,13.26923" fill="none" stroke="url(#color-12)" stroke-width="10" stroke-linecap="round"/><path d="M211.75,69.5l17.20588,22.5" fill="none" stroke="url(#color-13)" stroke-width="10" stroke-linecap="round"/><path d="M199.25,151.5l12.61765,16.5" fill="none" stroke="url(#color-14)" stroke-width="10" stroke-linecap="round"/></g></g></svg>